<svg width="78" height="65" viewBox="0 0 78 65" fill="none" xmlns="http://www.w3.org/2000/svg">
<path d="M38.7434 40.6201C42.4168 40.6201 45.3947 37.6422 45.3947 33.9687C45.3947 30.2953 42.4168 27.3174 38.7434 27.3174C35.0699 27.3174 32.092 30.2953 32.092 33.9687C32.092 37.6422 35.0699 40.6201 38.7434 40.6201Z" stroke="white" stroke-width="1.5" stroke-miterlimit="10" stroke-linecap="round" stroke-linejoin="round"/>
<path d="M52.6896 57.5694H24.7969C24.7969 54.351 26.0842 51.1326 28.0153 48.7725C30.59 45.5541 34.452 43.623 38.7432 43.623C43.0344 43.623 47.111 45.5541 49.4712 48.7725C51.6168 51.3472 52.6896 54.351 52.6896 57.5694Z" stroke="white" stroke-width="1.5" stroke-miterlimit="10" stroke-linecap="round" stroke-linejoin="round"/>
<path d="M38.7433 2L47.7547 20.4521L68.1379 23.4559L53.5479 37.6169L60.4138 58H17.0728L24.1532 37.6169L9.34863 23.4559L29.7318 20.4521L38.7433 2Z" stroke="white" stroke-width="1.5" stroke-miterlimit="10" stroke-linecap="round" stroke-linejoin="round"/>
</svg>
