<svg width="78" height="65" viewBox="0 0 78 65" fill="none" xmlns="http://www.w3.org/2000/svg">
<path d="M49.8595 54.1638L49.2734 54.4569C39.8956 60.611 27.5873 58.5596 20.8471 49.768C20.554 49.4749 20.261 48.8888 19.9679 48.5958L14.986 40.9763L8.53875 31.3055C2.09154 21.6347 4.72903 8.44721 14.3998 2C15.8651 2.87917 18.7957 4.93055 20.8471 8.44721C20.8471 8.44721 20.8471 8.74027 21.1401 8.74027C22.8984 11.6708 23.4846 14.6014 23.7776 16.3597L21.4332 18.118L19.6748 19.2902C16.7443 21.0486 16.1582 24.5652 17.9165 27.2027L27.2943 41.2694C29.0526 43.9069 32.5693 44.493 35.2068 42.7347L40.1887 39.511C41.947 40.6833 44.8776 42.7347 47.222 46.5444C47.8081 47.7166 48.3942 48.5958 48.6873 49.4749C49.2734 51.5263 49.5665 52.9916 49.8595 54.1638Z" stroke="white" stroke-width="1.5" stroke-miterlimit="10" stroke-linecap="round" stroke-linejoin="round"/>
<path d="M48.3942 49.768C48.1012 48.8889 47.5151 47.7166 46.9289 46.8375C44.5845 43.0278 41.654 40.6833 39.8956 39.8042L34.9137 43.0278C32.2762 44.7861 28.7595 44.2 27.0012 41.5625L17.9165 27.2028C16.1582 24.5653 17.0373 21.0486 19.6748 19.2903L21.4332 18.1181L23.7776 16.3598C23.4845 14.6014 22.8984 11.9639 21.1401 8.74032C21.1401 8.74032 21.1401 8.44727 20.847 8.44727" stroke="white" stroke-width="1.5" stroke-miterlimit="10" stroke-linecap="round" stroke-linejoin="round"/>
<path d="M22.6052 8.44629H67.4427C69.494 8.44629 71.5454 9.61851 72.1315 11.3768C72.4246 11.9629 72.4246 12.256 72.4246 12.8421V40.6823C72.4246 43.0268 70.0801 45.0782 67.4427 45.0782H58.3579" stroke="white" stroke-width="1.5" stroke-miterlimit="10" stroke-linecap="round" stroke-linejoin="round"/>
<path d="M22.8982 16.945L41.0676 28.6672C43.119 29.8394 45.7565 29.5464 48.1009 28.3741L72.1314 11.377" stroke="white" stroke-width="1.5" stroke-miterlimit="10" stroke-linecap="round" stroke-linejoin="round"/>
</svg>
