<svg width="78" height="65" viewBox="0 0 78 65" fill="none" xmlns="http://www.w3.org/2000/svg">
<path d="M45.9222 9.21585C45.9222 9.52958 45.9222 9.84331 45.9222 10.157C45.4516 13.6081 42.4711 16.4317 38.8632 16.4317C35.2553 16.4317 32.4317 13.9218 31.8042 10.4708C31.8042 10.0002 31.6473 9.68644 31.6473 9.21585C31.6473 5.29419 34.7847 2 38.8632 2C42.7848 2 45.9222 5.13732 45.9222 9.21585Z" stroke="white" stroke-width="1.5" stroke-miterlimit="10" stroke-linecap="round" stroke-linejoin="round"/>
<path d="M24.1179 43.4118C24.1179 45.9216 22.8629 48.1178 20.8237 49.3727C19.7256 50.157 18.3138 50.4708 16.902 50.4708C12.9803 50.4708 9.68616 47.3334 9.68616 43.2549C9.68616 39.9607 11.8823 37.1371 15.0196 36.3528C15.6471 36.1959 16.2745 36.0391 16.902 36.0391C20.9805 36.3528 24.1179 39.4901 24.1179 43.4118Z" stroke="white" stroke-width="1.5" stroke-miterlimit="10" stroke-linecap="round" stroke-linejoin="round"/>
<path d="M68.6678 43.4131C68.6678 47.3348 65.5304 50.629 61.4519 50.629C60.0401 50.629 58.7852 50.1584 57.6871 49.5309C55.6479 48.276 54.3929 46.0798 54.3929 43.4131C54.3929 39.4915 57.5303 36.1973 61.6088 36.1973C62.2363 36.1973 62.8637 36.3541 63.4912 36.511C66.4716 37.4522 68.6678 40.1189 68.6678 43.4131Z" stroke="white" stroke-width="1.5" stroke-miterlimit="10" stroke-linecap="round" stroke-linejoin="round"/>
<path d="M63.6482 33.529C63.6482 34.627 63.6482 35.5682 63.4913 36.5094C62.8639 36.3525 62.2364 36.1957 61.6089 36.1957C57.6873 36.1957 54.3931 39.333 54.3931 43.4115C54.3931 45.9214 55.648 48.1175 57.6873 49.5293C53.295 54.7059 46.7066 58.0001 39.3339 58.0001C31.9612 58.0001 25.3728 54.7059 20.8237 49.5293C22.863 48.2744 24.1179 46.0783 24.1179 43.5684C24.1179 39.6467 20.9806 36.3525 16.9021 36.3525C16.2746 36.3525 15.6471 36.5094 15.0197 36.6663C14.8628 35.7251 14.8628 34.627 14.8628 33.6858C14.8628 22.8621 21.9218 13.7638 31.6475 10.4696C32.2749 13.7638 35.2554 16.2737 38.8633 16.2737C42.4712 16.2737 45.4517 13.6069 45.9223 9.99902C56.1186 12.9795 63.6482 22.3915 63.6482 33.529Z" stroke="white" stroke-width="1.5" stroke-miterlimit="10" stroke-linecap="round" stroke-linejoin="round"/>
</svg>
