<svg width="78" height="65" viewBox="0 0 78 65" fill="none" xmlns="http://www.w3.org/2000/svg">
<path d="M45.9529 54.2587H5V6.76172H10.6996V45.3926C12.5995 45.3926 14.7105 45.3926 17.0326 45.3926C17.4548 45.3926 17.877 45.3926 18.5102 45.3926C18.9324 45.3926 19.5657 45.3926 19.9879 45.6037C20.4101 45.6037 21.0434 45.6037 21.4656 45.8148C22.5211 45.8148 23.5766 46.0259 24.6321 46.237C29.6984 46.8703 34.1315 48.1368 37.7201 49.1923C40.0422 48.3479 41.3088 47.5035 44.4753 46.8703" stroke="white" stroke-width="1.5" stroke-miterlimit="10" stroke-linecap="round" stroke-linejoin="round"/>
<path d="M50.1749 46.2354C50.1749 46.6575 50.1749 46.8686 50.1749 47.0797C50.1749 49.824 51.0193 52.1461 52.497 54.046" stroke="white" stroke-width="1.5" stroke-miterlimit="10" stroke-linecap="round" stroke-linejoin="round"/>
<path d="M70.2293 39.4812C68.7516 37.7925 66.6406 36.5259 64.5297 35.8926" stroke="white" stroke-width="1.5" stroke-miterlimit="10" stroke-linecap="round" stroke-linejoin="round"/>
<path d="M64.5297 29.3492V6.76172H70.2293V32.7267" stroke="white" stroke-width="1.5" stroke-miterlimit="10" stroke-linecap="round" stroke-linejoin="round"/>
<path d="M62.4186 41.5928C62.4186 42.015 62.2075 42.2261 61.7853 42.2261C61.3631 42.2261 61.152 42.015 61.152 41.5928C61.152 41.1706 61.3631 40.9595 61.7853 40.9595C61.9964 40.7484 62.4186 41.1706 62.4186 41.5928Z" stroke="white" stroke-width="1.5" stroke-miterlimit="10" stroke-linecap="round" stroke-linejoin="round"/>
<path d="M64.5295 35.8919C63.6851 35.6808 62.6296 35.4697 61.5741 35.4697C55.4523 35.4697 50.597 40.1139 49.9637 46.0246" stroke="white" stroke-width="1.5" stroke-miterlimit="10" stroke-linecap="round" stroke-linejoin="round"/>
<path d="M44.4753 47.0811C41.3089 47.7143 40.0423 48.7698 37.7202 49.4031C34.3426 48.1365 29.9096 46.87 24.6321 46.2367C23.5767 46.0256 22.5212 46.0256 21.4657 45.8145C21.0435 45.8145 20.4102 45.6034 19.988 45.6034C19.5658 45.6034 18.9325 45.6034 18.5103 45.3923C18.0881 45.3923 17.4548 45.3923 17.0326 45.3923C14.7106 45.1812 12.5996 45.1812 10.6997 45.3923V2.32837C14.0773 2.11728 18.7214 1.90618 24.21 2.75057C29.9096 3.59496 34.5537 5.28374 37.7202 6.55033C41.0977 5.28374 45.7419 3.80606 51.4415 2.75057C56.719 1.90618 61.152 1.90618 64.7407 2.11728V29.1378" stroke="white" stroke-width="1.5" stroke-miterlimit="10" stroke-linecap="round" stroke-linejoin="round"/>
<path d="M37.5092 6.5498V49.4026" stroke="white" stroke-width="1.5" stroke-miterlimit="10" stroke-linecap="round" stroke-linejoin="round"/>
<path d="M70.2291 39.4806C68.7514 37.7918 66.6405 36.5252 64.5295 35.8919C63.6851 35.6808 62.6296 35.4697 61.5741 35.4697C55.4523 35.4697 50.597 40.1139 49.9637 46.0246C49.9637 46.2357 49.9637 46.6579 49.9637 46.869C49.9637 49.6133 50.8081 51.9353 52.2858 53.8352C54.3968 56.5795 57.7744 58.2683 61.363 58.2683C67.6959 58.2683 72.9734 53.2019 72.9734 46.6579C73.1845 44.1247 72.129 41.5916 70.2291 39.4806ZM61.7852 40.7472C62.2074 40.7472 62.4185 40.9583 62.4185 41.3805C62.4185 41.8027 62.2074 42.0138 61.7852 42.0138C61.363 42.0138 61.1519 41.8027 61.1519 41.3805C61.1519 41.1694 61.363 40.7472 61.7852 40.7472Z" stroke="white" stroke-width="1.5" stroke-miterlimit="10" stroke-linecap="round" stroke-linejoin="round"/>
<path d="M62.4184 41.5928C62.4184 42.015 62.2073 42.2261 61.7851 42.2261C61.3629 42.2261 61.1519 42.015 61.1519 41.5928C61.1519 41.1706 61.3629 40.9595 61.7851 40.9595C61.9962 40.7484 62.4184 41.1706 62.4184 41.5928Z" stroke="white" stroke-width="1.5" stroke-miterlimit="10" stroke-linecap="round" stroke-linejoin="round"/>
<path d="M62.4184 41.5928C62.4184 42.015 62.2073 42.2261 61.7851 42.2261C61.3629 42.2261 61.1519 42.015 61.1519 41.5928C61.1519 41.1706 61.3629 40.9595 61.7851 40.9595C61.9962 40.7484 62.4184 41.1706 62.4184 41.5928Z" stroke="white" stroke-width="1.5" stroke-miterlimit="10" stroke-linecap="round" stroke-linejoin="round"/>
<path d="M61.785 46.0254V53.2027" stroke="white" stroke-width="1.5" stroke-miterlimit="10" stroke-linecap="round" stroke-linejoin="round"/>
</svg>
