<svg width="78" height="65" viewBox="0 0 78 65" fill="none" xmlns="http://www.w3.org/2000/svg">
<path d="M70.8746 5.26016V45.3136C70.8746 50.4367 68.3131 55.0941 63.8886 57.8885H19.6435C19.6435 57.8885 19.6435 57.8885 19.8764 57.8885C21.9722 56.4913 23.6023 54.6284 24.7666 52.5325C25.931 50.4367 26.6296 47.8752 26.6296 45.3136V5.26016C26.6296 3.39721 28.0268 2 29.8897 2H67.6145C69.4774 2 70.8746 3.39721 70.8746 5.26016Z" stroke="white" stroke-width="1.5" stroke-miterlimit="10" stroke-linecap="round" stroke-linejoin="round"/>
<path d="M26.6295 8.98633V45.3139C26.6295 47.8754 25.9309 50.2041 24.7666 52.5328C23.6022 54.6286 21.9721 56.4916 19.8763 57.8888C19.4106 57.8888 18.9448 57.8888 18.4791 57.8888C12.6574 57.8888 8 53.2314 8 47.4097V8.98633H26.6295Z" stroke="white" stroke-width="1.5" stroke-miterlimit="10" stroke-linecap="round" stroke-linejoin="round"/>
<path d="M35.9443 18.3037H63.8885" stroke="white" stroke-width="1.5" stroke-miterlimit="10" stroke-linecap="round" stroke-linejoin="round"/>
<path d="M35.9443 27.6152H63.8885" stroke="white" stroke-width="1.5" stroke-miterlimit="10" stroke-linecap="round" stroke-linejoin="round"/>
<path d="M35.9443 36.9307H48.7521" stroke="white" stroke-width="1.5" stroke-miterlimit="10" stroke-linecap="round" stroke-linejoin="round"/>
</svg>
