<svg width="274" height="60" viewBox="0 0 274 60" fill="none" xmlns="http://www.w3.org/2000/svg">
<path d="M58.8232 27.6305V13.2695H61.322V19.1862H68.0717V13.2695H70.5705V27.6305H68.1291V21.3404H61.4082V27.6305H58.8232Z" fill="white"/>
<path d="M73.8438 15.4237V13.2695H76.1989V15.4237H73.8438ZM73.8725 27.6305V17.4916H76.2277V27.6017H73.8725V27.6305Z" fill="white"/>
<path d="M79.0137 27.6305V13.2695H81.4263V27.6305H79.0137Z" fill="white"/>
<path d="M84.2119 27.6305V13.2695H86.6246V27.6305H84.2119Z" fill="white"/>
<path d="M94.5523 27.8601C92.8577 27.8601 91.5078 27.3718 90.5312 26.3953C89.5547 25.4187 89.0664 24.155 89.0664 22.5753C89.0664 21.8572 89.1813 21.1966 89.4111 20.5647C89.6408 19.9329 89.9855 19.3584 90.4163 18.8701C90.8472 18.3819 91.3929 17.9798 92.0535 17.6925C92.7141 17.4053 93.4321 17.2617 94.2363 17.2617C95.0406 17.2617 95.7299 17.4053 96.333 17.6638C96.9362 17.951 97.3957 18.3244 97.7404 18.8127C98.0851 19.301 98.3436 19.8754 98.5159 20.4786C98.6882 21.1105 98.7744 21.7711 98.7744 22.5178C98.7744 22.7189 98.7457 22.8625 98.717 22.9487H91.6227C91.6514 23.9252 91.9673 24.672 92.513 25.1315C93.0875 25.5911 93.8342 25.8496 94.7533 25.8496C95.8448 25.8496 96.9075 25.4762 97.9415 24.7581L98.6021 26.5389C97.9702 26.9697 97.3096 27.3144 96.6777 27.5154C96.0745 27.7452 95.3565 27.8601 94.5523 27.8601ZM91.6801 21.3402H96.7064C96.5915 20.6222 96.333 20.0765 95.9022 19.7031C95.5001 19.3297 94.9831 19.1286 94.38 19.1286C93.6906 19.1286 93.0875 19.3297 92.6279 19.7318C92.1396 20.1052 91.8237 20.6509 91.6801 21.3402Z" fill="white"/>
<path d="M101.445 27.6309V20.7664C101.445 20.077 101.417 19.359 101.359 18.6122L101.273 17.5208H103.858V18.842C104.116 18.3824 104.49 18.0091 105.007 17.7218C105.524 17.4346 106.07 17.291 106.701 17.291C107.362 17.291 107.936 17.4346 108.482 17.7506C109.028 18.0665 109.43 18.5261 109.717 19.1579C110.579 17.9229 111.67 17.291 112.991 17.291C114.227 17.291 115.146 17.6644 115.777 18.4112C116.409 19.1579 116.697 20.1632 116.697 21.4557V27.6596H114.255V21.5706C114.255 21.3121 114.227 21.0536 114.198 20.7951C114.14 20.5366 114.083 20.3068 113.968 20.0483C113.853 19.7898 113.71 19.6175 113.508 19.4452C113.307 19.3015 113.078 19.2154 112.79 19.2154C112.072 19.2154 111.469 19.5026 111.01 20.0483C110.55 20.594 110.32 21.2259 110.32 21.8865V27.6022H107.879V21.427C107.879 21.2259 107.879 21.0536 107.85 20.8525C107.822 20.6802 107.793 20.4791 107.707 20.2781C107.649 20.077 107.563 19.9047 107.448 19.7324C107.333 19.5888 107.19 19.4452 106.989 19.359C106.788 19.2728 106.586 19.2154 106.328 19.2154C105.639 19.2154 105.064 19.4452 104.605 19.9047C104.145 20.3643 103.915 20.8813 103.915 21.4844V27.6309H101.445Z" fill="white"/>
<path d="M124.049 27.8607C123.216 27.8607 122.498 27.7171 121.838 27.4298C121.177 27.1426 120.66 26.7405 120.258 26.2522C119.856 25.764 119.569 25.2183 119.368 24.6151C119.167 24.0119 119.052 23.3801 119.052 22.7194C119.052 22.0301 119.167 21.3408 119.368 20.7089C119.569 20.077 119.885 19.5026 120.287 18.9856C120.689 18.4686 121.235 18.0665 121.895 17.7506C122.556 17.4346 123.303 17.291 124.164 17.291C125.399 17.291 126.318 17.7218 126.979 18.6122V17.5495H129.363V27.6596H126.922V26.281C126.204 27.315 125.227 27.8607 124.049 27.8607ZM124.365 25.8789C125.313 25.8789 126.002 25.5916 126.433 24.9885C126.864 24.3853 127.065 23.5811 127.065 22.5758C127.065 21.5419 126.835 20.7376 126.376 20.1345C125.916 19.5313 125.227 19.2441 124.308 19.2441C123.389 19.2441 122.699 19.5313 122.211 20.1345C121.723 20.7376 121.493 21.5419 121.493 22.5471C121.493 23.5524 121.723 24.3566 122.211 24.9598C122.699 25.5629 123.417 25.8789 124.365 25.8789Z" fill="white"/>
<path d="M132.293 27.6303V21.3689C132.293 20.6509 132.264 19.9616 132.235 19.3297C132.207 18.6978 132.178 18.2383 132.149 17.951L132.092 17.5202H134.677V18.8701C135.021 18.3531 135.481 17.951 136.084 17.6638C136.659 17.4053 137.233 17.2617 137.779 17.2617C138.353 17.2617 138.87 17.3479 139.33 17.4915C139.761 17.6351 140.163 17.8936 140.507 18.2383C140.852 18.5829 141.11 19.0712 141.283 19.6744C141.455 20.2775 141.541 21.0243 141.541 21.8859V27.659H139.1V21.6849C139.1 20.7945 138.956 20.1626 138.669 19.7892C138.382 19.4159 137.922 19.2435 137.29 19.2435C137.061 19.2435 136.802 19.301 136.515 19.3871C136.228 19.502 135.969 19.6456 135.682 19.818C135.424 20.019 135.194 20.2488 135.021 20.5647C134.849 20.8807 134.763 21.1966 134.763 21.57V27.6303H132.293Z" fill="white"/>
<path d="M150.617 27.6305V13.2695H153.116V25.4763H159.751V27.6305H150.617Z" fill="white"/>
<path d="M166.357 27.8607C165.525 27.8607 164.806 27.7171 164.146 27.4298C163.485 27.1426 162.968 26.7405 162.566 26.2522C162.164 25.764 161.877 25.2183 161.676 24.6151C161.475 24.0119 161.36 23.3801 161.36 22.7194C161.36 22.0301 161.475 21.3408 161.676 20.7089C161.877 20.077 162.193 19.5026 162.595 18.9856C162.997 18.4686 163.543 18.0665 164.203 17.7506C164.864 17.4346 165.611 17.291 166.472 17.291C167.707 17.291 168.627 17.7218 169.287 18.6122V17.5495H171.671V27.6596H169.23V26.281C168.483 27.315 167.535 27.8607 166.357 27.8607ZM166.645 25.8789C167.593 25.8789 168.282 25.5916 168.713 24.9885C169.144 24.3853 169.345 23.5811 169.345 22.5758C169.345 21.5419 169.115 20.7376 168.655 20.1345C168.196 19.5313 167.506 19.2441 166.587 19.2441C165.668 19.2441 164.979 19.5313 164.491 20.1345C164.002 20.7376 163.773 21.5419 163.773 22.5471C163.773 23.5524 164.002 24.3566 164.491 24.9598C165.008 25.5629 165.697 25.8789 166.645 25.8789Z" fill="white"/>
<path d="M179.971 27.8602C179.281 27.8602 178.678 27.7166 178.132 27.4294C177.587 27.1422 177.185 26.7975 176.926 26.3954V27.6592H174.427C174.427 27.1996 174.456 26.8263 174.456 26.4529C174.456 26.1082 174.485 25.8497 174.485 25.7061C174.485 25.5625 174.485 25.4189 174.513 25.3327C174.513 25.2178 174.513 25.1604 174.513 25.1029C174.513 25.0742 174.513 25.0168 174.513 24.9593V13.2695H176.926V18.9277C176.955 18.8129 177.041 18.6692 177.185 18.4969C177.328 18.3246 177.5 18.1523 177.73 17.9512C177.96 17.7501 178.305 17.6065 178.707 17.4629C179.138 17.3193 179.568 17.2619 180.085 17.2619C181.493 17.2619 182.613 17.7501 183.446 18.7267C184.279 19.7032 184.681 20.967 184.681 22.518C184.681 23.2935 184.566 24.0115 184.308 24.7008C184.049 25.3614 183.704 25.9359 183.274 26.3954C182.843 26.855 182.354 27.2284 181.78 27.4869C181.206 27.7166 180.602 27.8602 179.971 27.8602ZM179.511 25.8784C179.971 25.8784 180.373 25.7923 180.717 25.6199C181.062 25.4476 181.349 25.1891 181.522 24.8732C181.723 24.5572 181.866 24.2126 181.981 23.8392C182.096 23.4658 182.125 23.035 182.125 22.6041C182.125 21.6276 181.895 20.8234 181.464 20.1915C181.033 19.5596 180.401 19.2437 179.568 19.2437C178.707 19.2437 178.017 19.5596 177.529 20.1915C177.012 20.8234 176.782 21.5989 176.782 22.5467C176.782 23.1499 176.869 23.6956 177.07 24.1838C177.271 24.6721 177.558 25.0742 177.989 25.3902C178.42 25.7061 178.937 25.8784 179.511 25.8784Z" fill="white"/>
<path d="M192.149 27.8601C191.259 27.8601 190.483 27.7165 189.794 27.4293C189.104 27.142 188.559 26.7687 188.128 26.2517C187.697 25.7634 187.381 25.189 187.151 24.5858C186.922 23.9539 186.835 23.2933 186.835 22.5753C186.835 21.8572 186.95 21.1679 187.18 20.536C187.41 19.9041 187.726 19.3297 188.157 18.8414C188.587 18.3532 189.133 17.9798 189.823 17.6925C190.512 17.4053 191.287 17.2617 192.149 17.2617C193.039 17.2617 193.815 17.4053 194.504 17.6925C195.194 17.9798 195.739 18.3532 196.141 18.8414C196.543 19.3297 196.859 19.9041 197.06 20.536C197.261 21.1679 197.376 21.8572 197.376 22.604C197.376 23.2933 197.261 23.9826 197.06 24.5858C196.831 25.2177 196.515 25.7634 196.113 26.2517C195.682 26.7399 195.136 27.142 194.475 27.4293C193.757 27.7165 193.011 27.8601 192.149 27.8601ZM192.092 25.8783C192.58 25.8783 192.982 25.7921 193.355 25.6198C193.729 25.4475 193.987 25.189 194.217 24.873C194.418 24.5571 194.59 24.2124 194.677 23.8103C194.791 23.4082 194.82 23.0061 194.82 22.5465C194.82 21.57 194.59 20.7945 194.131 20.1626C193.671 19.5307 192.982 19.2435 192.092 19.2435C191.488 19.2435 190.971 19.3871 190.541 19.7031C190.11 20.019 189.823 20.3924 189.621 20.8807C189.42 21.3689 189.334 21.9147 189.334 22.5465C189.334 23.1497 189.42 23.6954 189.593 24.1837C189.765 24.672 190.052 25.0741 190.483 25.39C190.943 25.706 191.46 25.8783 192.092 25.8783Z" fill="white"/>
<path d="M200.048 27.6303V20.0765C200.048 19.6744 200.019 19.2723 199.99 18.8414C199.962 18.4106 199.933 18.0947 199.904 17.8649L199.847 17.5202H202.46V18.8414C202.862 18.3244 203.265 17.9223 203.667 17.6638C204.069 17.4053 204.5 17.2617 205.017 17.2617C205.304 17.2617 205.649 17.3192 206.022 17.4053V19.5307C205.591 19.3871 205.16 19.301 204.787 19.301C204.098 19.301 203.552 19.5307 203.121 19.9616C202.69 20.3924 202.489 21.053 202.489 21.8859V27.6016H200.048V27.6303Z" fill="white"/>
<path d="M212.168 27.8607C211.335 27.8607 210.617 27.7171 209.956 27.4298C209.295 27.1426 208.778 26.7405 208.376 26.2522C207.974 25.764 207.687 25.2183 207.486 24.6151C207.285 24.0119 207.17 23.3801 207.17 22.7194C207.17 22.0301 207.285 21.3408 207.486 20.7089C207.687 20.077 208.003 19.5026 208.405 18.9856C208.807 18.4686 209.353 18.0665 210.013 17.7506C210.674 17.4346 211.421 17.291 212.282 17.291C213.517 17.291 214.437 17.7218 215.097 18.6122V17.5495H217.481V27.6596H215.04V26.281C214.322 27.315 213.345 27.8607 212.168 27.8607ZM212.483 25.8789C213.431 25.8789 214.121 25.5916 214.551 24.9885C214.982 24.3853 215.183 23.5811 215.183 22.5758C215.183 21.5419 214.954 20.7376 214.494 20.1345C214.034 19.5313 213.345 19.2441 212.426 19.2441C211.507 19.2441 210.818 19.5313 210.329 20.1345C209.841 20.7376 209.611 21.5419 209.611 22.5471C209.611 23.5524 209.841 24.3566 210.329 24.9598C210.818 25.5629 211.536 25.8789 212.483 25.8789Z" fill="white"/>
<path d="M226.126 27.6013H225.149C224.747 27.6013 224.403 27.6013 224.115 27.5726C223.828 27.5439 223.541 27.5151 223.225 27.4577C222.909 27.4003 222.651 27.3141 222.45 27.1992C222.249 27.0843 222.019 26.9407 221.846 26.7684C221.645 26.596 221.502 26.3663 221.387 26.1078C221.272 25.8493 221.186 25.5333 221.1 25.1887C221.042 24.8153 220.985 24.4132 220.985 23.9536V19.1284H218.859V17.4912H221.071V15.136L223.397 14.418V17.4912H226.04V19.1284H223.397V24.0398C223.397 24.3557 223.426 24.6142 223.484 24.8153C223.541 25.0163 223.598 25.16 223.713 25.3036C223.8 25.4184 223.972 25.5333 224.202 25.5908C224.431 25.6482 224.69 25.6769 224.977 25.7057C225.264 25.7344 225.638 25.7344 226.155 25.7344V27.6013H226.126Z" fill="white"/>
<path d="M233.164 27.8601C232.274 27.8601 231.498 27.7165 230.809 27.4293C230.12 27.142 229.574 26.7687 229.143 26.2517C228.712 25.7634 228.396 25.189 228.167 24.5858C227.937 23.9539 227.851 23.2933 227.851 22.5753C227.851 21.8572 227.965 21.1679 228.195 20.536C228.425 19.9041 228.741 19.3297 229.172 18.8414C229.603 18.3532 230.148 17.9798 230.838 17.6925C231.527 17.4053 232.302 17.2617 233.164 17.2617C234.055 17.2617 234.83 17.4053 235.519 17.6925C236.209 17.9798 236.754 18.3532 237.156 18.8414C237.559 19.3297 237.875 19.9041 238.076 20.536C238.277 21.1679 238.392 21.8572 238.392 22.604C238.392 23.2933 238.277 23.9826 238.076 24.5858C237.846 25.2177 237.53 25.7634 237.128 26.2517C236.697 26.7399 236.151 27.142 235.491 27.4293C234.801 27.7165 234.026 27.8601 233.164 27.8601ZM233.135 25.8783C233.624 25.8783 234.026 25.7921 234.399 25.6198C234.773 25.4475 235.031 25.189 235.261 24.873C235.462 24.5571 235.634 24.2124 235.72 23.8103C235.807 23.4082 235.864 23.0061 235.864 22.5465C235.864 21.57 235.634 20.7945 235.175 20.1626C234.715 19.5307 234.026 19.2435 233.135 19.2435C232.532 19.2435 232.015 19.3871 231.584 19.7031C231.154 20.019 230.866 20.3924 230.665 20.8807C230.464 21.3689 230.378 21.9147 230.378 22.5465C230.378 23.1497 230.464 23.6954 230.637 24.1837C230.809 24.672 231.096 25.0741 231.527 25.39C231.987 25.706 232.504 25.8783 233.135 25.8783Z" fill="white"/>
<path d="M241.062 27.6303V20.0765C241.062 19.6744 241.034 19.2723 241.005 18.8414C240.976 18.4106 240.947 18.0947 240.919 17.8649L240.861 17.5202H243.475V18.8414C243.877 18.3244 244.279 17.9223 244.681 17.6638C245.083 17.4053 245.514 17.2617 246.031 17.2617C246.318 17.2617 246.663 17.3192 247.037 17.4053V19.5307C246.606 19.3871 246.175 19.301 245.801 19.301C245.112 19.301 244.566 19.5307 244.136 19.9616C243.705 20.3924 243.504 21.053 243.504 21.8859V27.6016H241.062V27.6303Z" fill="white"/>
<path d="M248.559 15.4237V13.2695H250.914V15.4237H248.559ZM248.559 27.6305V17.4916H250.914V27.6017H248.559V27.6305Z" fill="white"/>
<path d="M258.898 27.8601C257.203 27.8601 255.853 27.3718 254.877 26.3953C253.9 25.4187 253.412 24.155 253.412 22.5753C253.412 21.8572 253.527 21.1966 253.757 20.5647C253.987 19.9329 254.331 19.3584 254.762 18.8701C255.193 18.3819 255.739 17.9798 256.399 17.6925C257.06 17.4053 257.778 17.2617 258.582 17.2617C259.386 17.2617 260.076 17.4053 260.679 17.6638C261.282 17.951 261.741 18.3244 262.086 18.8127C262.431 19.301 262.689 19.8754 262.862 20.4786C263.034 21.1105 263.12 21.7711 263.12 22.5178C263.12 22.7189 263.091 22.8625 263.063 22.9487H255.968C255.997 23.9252 256.313 24.672 256.859 25.1315C257.433 25.5911 258.18 25.8496 259.099 25.8496C260.19 25.8496 261.253 25.4762 262.287 24.7581L262.948 26.5389C262.316 26.9697 261.655 27.3144 261.023 27.5154C260.392 27.7452 259.673 27.8601 258.898 27.8601ZM255.997 21.3402H261.023C260.909 20.6222 260.65 20.0765 260.219 19.7031C259.788 19.3297 259.3 19.1286 258.697 19.1286C258.008 19.1286 257.404 19.3297 256.945 19.7318C256.457 20.1052 256.141 20.6509 255.997 21.3402Z" fill="white"/>
<path d="M269.469 27.8607C268.579 27.8607 267.775 27.7458 267.028 27.4873C266.281 27.2288 265.707 26.9416 265.247 26.5969L265.85 24.8449C266.252 25.1608 266.798 25.4193 267.43 25.6491C268.062 25.8501 268.665 25.965 269.268 25.965C269.814 25.965 270.216 25.8789 270.503 25.6778C270.79 25.4768 270.934 25.1895 270.934 24.7874V24.6151C270.934 24.414 270.848 24.213 270.676 24.0694C270.503 23.9258 270.13 23.7534 269.555 23.5524L268.119 23.0928C267.746 22.9779 267.459 22.8631 267.2 22.7769C266.97 22.662 266.712 22.5471 266.453 22.3748C266.195 22.2312 265.994 22.0301 265.85 21.8578C265.707 21.6567 265.592 21.427 265.506 21.1685C265.419 20.91 265.362 20.594 265.362 20.2206C265.362 19.7037 265.448 19.2441 265.649 18.8707C265.85 18.4686 266.137 18.1814 266.482 17.9516C266.827 17.7218 267.229 17.5495 267.66 17.4633C268.091 17.3485 268.579 17.291 269.096 17.291C269.728 17.291 270.388 17.3772 271.02 17.5495C271.652 17.7218 272.226 17.9516 272.715 18.2676L272.083 19.9334C271.681 19.7324 271.221 19.5313 270.704 19.3877C270.187 19.2441 269.699 19.1579 269.268 19.1579C268.722 19.1579 268.292 19.2154 268.062 19.359C267.803 19.5026 267.688 19.7324 267.688 20.0483C267.688 20.2494 267.717 20.4217 267.803 20.5366C267.889 20.6515 268.033 20.7664 268.292 20.91C268.55 21.0249 268.952 21.1972 269.498 21.3695L270.819 21.8004C271.336 21.9727 271.767 22.1737 272.083 22.3748C272.399 22.5758 272.657 22.8918 272.858 23.2652C273.059 23.6673 273.146 24.1268 273.146 24.73C273.146 25.1895 273.059 25.5916 272.916 25.9363C272.772 26.3097 272.571 26.5969 272.341 26.8267C272.112 27.0565 271.824 27.2575 271.48 27.4011C271.164 27.5447 270.819 27.6596 270.503 27.7171C270.187 27.8032 269.843 27.8607 269.469 27.8607Z" fill="white"/>
<path d="M58.8223 45.2092V37.8564H60.2009C60.3158 38.0862 60.6892 38.9479 61.3211 40.4127C61.9529 41.8775 62.4699 42.9689 62.8146 43.7444C63.1305 43.0264 63.9922 41.0733 65.3996 37.8852H66.7782V45.238H65.6868V39.7808C65.3421 40.4989 64.8826 41.5328 64.2507 42.9402C63.6475 44.3189 63.3029 45.0944 63.2167 45.2667H62.3551C62.154 44.8359 61.7806 44.0029 61.2349 42.7392C60.6605 41.4754 60.2296 40.5276 59.9424 39.8383V45.2667H58.8223V45.2092Z" fill="white"/>
<path d="M70.885 45.3232C70.368 45.3232 69.8798 45.237 69.4202 45.0647C68.9607 44.8924 68.616 44.6913 68.3862 44.4616L68.9032 43.6286C69.133 43.801 69.4202 43.9733 69.7936 44.0882C70.167 44.2318 70.5116 44.2892 70.8563 44.2892C71.8041 44.2892 72.2637 43.9158 72.2637 43.1978C72.2637 43.0542 72.2637 42.9106 72.235 42.8244C72.2062 42.7382 72.1488 42.6234 72.0626 42.5372C71.9765 42.451 71.8616 42.3361 71.6892 42.2787C71.5169 42.1925 71.3159 42.1064 71.0286 42.0202C70.9712 41.9915 70.8563 41.9627 70.684 41.9053C70.5404 41.8479 70.4255 41.8191 70.368 41.7904C69.9085 41.6468 69.5638 41.4745 69.2766 41.3021C69.0181 41.1298 68.7883 40.9 68.6447 40.6415C68.5011 40.383 68.4149 40.0384 68.4149 39.665C68.4149 39.2342 68.5298 38.8608 68.7596 38.5736C68.9894 38.2576 69.2766 38.0566 69.65 37.913C70.0234 37.7694 70.4542 37.7119 70.9138 37.7119C71.3446 37.7119 71.718 37.7406 72.0339 37.8268C72.3498 37.913 72.6083 37.9991 72.8094 38.114C72.9817 38.2289 73.1828 38.3725 73.3551 38.5448L72.752 39.3203C72.5509 39.1193 72.2924 38.9757 72.0052 38.8608C71.718 38.7459 71.402 38.7172 71.0861 38.7172C70.6553 38.7172 70.3106 38.8033 70.0521 38.947C69.7936 39.0906 69.65 39.3491 69.65 39.665C69.65 39.8661 69.6787 40.0384 69.7362 40.1533C69.7936 40.2682 69.9085 40.383 70.0521 40.4979C70.2244 40.6128 70.4542 40.699 70.7989 40.8139C71.2297 40.9575 71.4595 41.0149 71.4882 41.0436C72.235 41.3021 72.752 41.5894 73.0392 41.9053C73.3264 42.2212 73.47 42.6808 73.47 43.2552C73.47 43.5999 73.4126 43.9158 73.2689 44.2031C73.1253 44.4903 72.9243 44.6913 72.6945 44.8637C72.4647 45.036 72.1775 45.1509 71.8903 45.237C71.6031 45.3232 71.2297 45.3232 70.885 45.3232Z" fill="white"/>
<path d="M75.0503 45.2083V37.8555H76.9459C78.4108 37.8555 79.5022 38.1714 80.2777 38.7746C81.0244 39.3777 81.3978 40.2968 81.3978 41.5319C81.3978 42.7382 81.0532 43.6286 80.3351 44.2892C79.6171 44.921 78.6118 45.237 77.2619 45.237H75.0503V45.2083ZM76.1992 44.203H77.3193C78.2384 44.203 78.9565 43.9732 79.4447 43.485C79.933 43.0254 80.1628 42.3361 80.1628 41.4744C80.1628 40.584 79.9043 39.9234 79.416 39.4639C78.899 39.0331 78.1235 38.8033 77.0608 38.8033H76.1992V44.203Z" fill="white"/>
<path d="M91.0191 45.093L88.9512 37.7402H90.1862C90.3011 38.1711 90.4734 38.8029 90.6745 39.6072C90.8755 40.4114 91.0766 41.1581 91.2489 41.8187C91.4213 42.4793 91.5649 43.1112 91.7085 43.7144C91.8808 43.1112 92.0531 42.4793 92.2542 41.8187C92.4552 41.1581 92.685 40.4114 92.9435 39.6072C93.202 38.7742 93.4031 38.1711 93.5179 37.7402H94.6381L96.0455 42.2496L96.4763 43.7431C96.6199 43.14 96.7635 42.5081 96.9359 41.8475C97.1082 41.1869 97.2805 40.4401 97.4816 39.6359C97.6826 38.8317 97.855 38.1998 97.9411 37.7402H99.1474L97.1369 45.093H95.787L94.0349 39.3199L92.3116 45.093H91.0191Z" fill="white"/>
<path d="M102.538 45.2077C101.676 45.2077 101.016 44.9492 100.528 44.461C100.039 43.9727 99.7808 43.3121 99.7808 42.5079C99.7808 41.9909 99.8957 41.5601 100.097 41.1292C100.298 40.7271 100.614 40.3825 101.016 40.1527C101.418 39.8942 101.877 39.7793 102.394 39.7793C102.797 39.7793 103.113 39.8367 103.428 39.9803C103.716 40.124 103.974 40.2963 104.146 40.5548C104.319 40.8133 104.462 41.0718 104.549 41.3877C104.635 41.7037 104.692 42.0483 104.692 42.4504C104.692 42.5079 104.692 42.594 104.663 42.6802H100.958C100.987 43.2259 101.131 43.628 101.447 43.8865C101.734 44.145 102.136 44.2886 102.624 44.2886C103.227 44.2886 103.744 44.0876 104.261 43.7142L104.577 44.5471C104.003 45.0067 103.314 45.2077 102.538 45.2077ZM100.987 41.9334H103.658C103.601 41.5313 103.486 41.2154 103.256 40.9856C103.026 40.7558 102.768 40.6697 102.423 40.6697C102.05 40.6697 101.734 40.7846 101.475 41.0143C101.246 41.2154 101.073 41.5313 100.987 41.9334Z" fill="white"/>
<path d="M106.07 45.0933V37.6543H107.19V45.0933H106.07Z" fill="white"/>
<path d="M108.741 45.0933V37.6543H109.861V45.0933H108.741Z" fill="white"/>
<path d="M113.824 45.2077C113.279 45.2077 112.79 45.0928 112.388 44.8343C111.986 44.5759 111.67 44.2599 111.469 43.8578C111.268 43.4557 111.153 42.9961 111.153 42.5079C111.153 41.9909 111.268 41.5026 111.469 41.1005C111.699 40.6984 111.986 40.3537 112.417 40.124C112.819 39.8942 113.307 39.7793 113.824 39.7793C114.6 39.7793 115.203 40.0091 115.634 40.4399L115.232 41.1867C114.858 40.8707 114.428 40.6984 113.939 40.6984C113.451 40.6984 113.049 40.8707 112.762 41.1867C112.475 41.5026 112.331 41.9622 112.331 42.5366C112.331 43.0823 112.475 43.5131 112.762 43.8291C113.049 44.145 113.451 44.3174 113.939 44.3174C114.399 44.3174 114.858 44.145 115.289 43.8291L115.634 44.662C115.088 45.0354 114.485 45.2077 113.824 45.2077Z" fill="white"/>
<path d="M119.281 45.2077C118.85 45.2077 118.448 45.1503 118.104 45.0067C117.759 44.8631 117.472 44.662 117.242 44.4322C117.012 44.1737 116.84 43.8865 116.725 43.5706C116.61 43.2546 116.553 42.8813 116.553 42.5079C116.553 41.9909 116.668 41.5313 116.869 41.1292C117.07 40.7271 117.386 40.4112 117.788 40.1527C118.219 39.9229 118.707 39.7793 119.281 39.7793C119.712 39.7793 120.114 39.8367 120.459 39.9803C120.804 40.124 121.091 40.325 121.292 40.5548C121.522 40.8133 121.665 41.1005 121.78 41.4164C121.895 41.7324 121.952 42.1058 121.952 42.5079C121.952 42.8813 121.895 43.2259 121.78 43.5419C121.665 43.8578 121.493 44.145 121.292 44.4035C121.062 44.662 120.804 44.8343 120.459 44.978C120.086 45.1503 119.712 45.2077 119.281 45.2077ZM119.281 44.2886C119.77 44.2886 120.143 44.1163 120.401 43.8004C120.66 43.4557 120.775 43.0249 120.775 42.5079C120.775 41.9622 120.66 41.5313 120.401 41.2154C120.143 40.8707 119.77 40.7271 119.281 40.7271C118.793 40.7271 118.42 40.8995 118.161 41.2154C117.903 41.5601 117.759 41.9909 117.759 42.5079C117.759 43.0249 117.874 43.4557 118.132 43.8004C118.391 44.1163 118.764 44.2886 119.281 44.2886Z" fill="white"/>
<path d="M123.331 45.0932V41.4743C123.331 41.2445 123.331 41.0435 123.303 40.8424C123.274 40.6414 123.274 40.4403 123.274 40.268C123.274 40.0956 123.245 39.9808 123.245 39.8946H124.423V40.6414C124.538 40.3829 124.767 40.1818 125.055 40.0095C125.342 39.8371 125.658 39.7797 125.974 39.7797C126.318 39.7797 126.634 39.8659 126.893 40.0382C127.18 40.2105 127.381 40.469 127.525 40.785C127.726 40.469 127.984 40.2105 128.271 40.0382C128.559 39.8659 128.903 39.751 129.277 39.751C129.88 39.751 130.339 39.952 130.655 40.3254C130.971 40.6988 131.115 41.2158 131.115 41.9051V45.0932H129.995V41.9913C129.995 41.7615 129.966 41.5317 129.937 41.3594C129.88 41.1584 129.794 41.0147 129.679 40.8999C129.564 40.785 129.392 40.6988 129.191 40.6988C128.817 40.6988 128.501 40.8424 128.214 41.1296C127.956 41.4168 127.812 41.7615 127.812 42.1349V45.0932H126.663V41.9051C126.663 41.7328 126.663 41.5892 126.634 41.4743C126.606 41.3307 126.577 41.2158 126.491 41.1009C126.433 40.986 126.347 40.8711 126.203 40.8137C126.089 40.7562 125.945 40.6988 125.773 40.6988C125.399 40.6988 125.083 40.8424 124.825 41.1009C124.566 41.3594 124.451 41.6466 124.451 41.9913V45.0932H123.331Z" fill="white"/>
<path d="M135.135 45.2077C134.274 45.2077 133.613 44.9492 133.125 44.461C132.636 43.9727 132.378 43.3121 132.378 42.5079C132.378 41.9909 132.493 41.5601 132.694 41.1292C132.895 40.7271 133.211 40.3825 133.613 40.1527C134.015 39.8942 134.475 39.7793 134.992 39.7793C135.394 39.7793 135.71 39.8367 136.026 39.9803C136.313 40.124 136.571 40.2963 136.744 40.5548C136.916 40.8133 137.06 41.0718 137.146 41.3877C137.232 41.7037 137.289 42.0483 137.289 42.4504C137.289 42.5079 137.289 42.594 137.261 42.6802H133.556C133.584 43.2259 133.728 43.628 134.044 43.8865C134.331 44.145 134.733 44.2886 135.221 44.2886C135.825 44.2886 136.342 44.0876 136.859 43.7142L137.174 44.5471C136.6 45.0067 135.911 45.2077 135.135 45.2077ZM133.584 41.9334H136.255C136.198 41.5313 136.083 41.2154 135.853 40.9856C135.624 40.7558 135.365 40.6697 135.02 40.6697C134.647 40.6697 134.331 40.7846 134.073 41.0143C133.843 41.2154 133.67 41.5313 133.584 41.9334Z" fill="white"/>
<path d="M143.236 45.0934V38.7172H140.938V37.7119H146.74V38.7172H144.413V45.0934H143.236Z" fill="white"/>
<path d="M147.659 45.0932V41.1871C147.659 41.0435 147.659 40.8711 147.63 40.6414C147.63 40.4116 147.601 40.2393 147.601 40.0956L147.573 39.8659H148.779V40.6126C149.152 40.0382 149.583 39.751 150.1 39.751C150.273 39.751 150.445 39.7797 150.617 39.8371V40.8424C150.416 40.785 150.215 40.7275 150.014 40.7275C149.641 40.7275 149.354 40.8424 149.124 41.1009C148.894 41.3594 148.779 41.7041 148.779 42.1636V45.0932H147.659Z" fill="white"/>
<path d="M153.547 45.2087C152.887 45.2087 152.398 45.0363 152.054 44.6629C151.709 44.2896 151.537 43.8013 151.537 43.1694V39.9238H152.657V43.1694C152.657 43.5428 152.743 43.83 152.944 44.0311C153.145 44.2321 153.404 44.3183 153.748 44.3183C154.15 44.3183 154.466 44.2034 154.667 44.0023C154.868 43.7726 154.983 43.4566 154.983 43.0545V39.9526H156.103V43.8013C156.103 44.2321 156.132 44.6917 156.161 45.1512H154.983L154.955 44.3757C154.926 44.4619 154.868 44.5768 154.782 44.6629C154.725 44.7491 154.61 44.864 154.495 44.9502C154.38 45.0363 154.236 45.1225 154.064 45.1799C153.949 45.1799 153.748 45.2087 153.547 45.2087Z" fill="white"/>
<path d="M159.607 45.2085C159.148 45.2085 158.746 45.1511 158.372 45.0075C157.999 44.8639 157.712 44.7203 157.511 44.5479L157.798 43.715C157.999 43.8586 158.257 44.0022 158.573 44.1171C158.889 44.232 159.205 44.2894 159.492 44.2894C160.096 44.2894 160.383 44.0597 160.383 43.6288C160.383 43.4565 160.325 43.3416 160.182 43.2267C160.067 43.1406 159.78 43.0257 159.378 42.8821L158.889 42.7097C158.66 42.6236 158.458 42.5661 158.315 42.48C158.171 42.4225 158.028 42.3076 157.884 42.1927C157.74 42.0778 157.654 41.9342 157.568 41.7906C157.511 41.6183 157.482 41.446 157.482 41.2162C157.482 40.9577 157.539 40.7279 157.626 40.5269C157.74 40.3258 157.884 40.1822 158.056 40.0673C158.229 39.9524 158.43 39.8663 158.66 39.8088C158.889 39.7514 159.119 39.7227 159.349 39.7227C159.694 39.7227 160.038 39.7801 160.354 39.8663C160.67 39.9524 160.929 40.0673 161.158 40.2109L160.842 40.9864C160.67 40.9003 160.44 40.8141 160.182 40.7279C159.923 40.6418 159.665 40.613 159.435 40.613C158.832 40.613 158.545 40.7854 158.545 41.1588C158.545 41.3311 158.602 41.446 158.717 41.5321C158.832 41.6183 159.062 41.7045 159.406 41.8481C159.406 41.8481 159.492 41.8768 159.665 41.9342C159.808 41.9917 159.895 42.0204 159.923 42.0204C160.124 42.0779 160.268 42.1353 160.412 42.1927C160.526 42.2502 160.67 42.3076 160.785 42.3938C160.929 42.48 161.015 42.5661 161.101 42.681C161.187 42.7959 161.245 42.9108 161.273 43.0544C161.331 43.198 161.359 43.3703 161.359 43.5714C161.359 43.8586 161.302 44.0884 161.187 44.3182C161.072 44.5192 160.929 44.6915 160.756 44.8064C160.584 44.9213 160.383 45.0075 160.153 45.0649C160.067 45.1798 159.837 45.2085 159.607 45.2085Z" fill="white"/>
<path d="M165.639 45.093H165.151C164.777 45.093 164.461 45.0643 164.232 45.0355C164.002 44.9781 163.772 44.8919 163.6 44.777C163.427 44.6334 163.284 44.4611 163.198 44.2026C163.112 43.9441 163.083 43.6282 163.083 43.2548V40.6985H162.049V39.9518H163.112V38.688L164.203 38.3721V39.9518H165.61V40.6985H164.203V43.341C164.203 43.542 164.232 43.7143 164.26 43.8292C164.289 43.9441 164.375 44.0303 164.49 44.1164C164.605 44.1739 164.749 44.2313 164.921 44.2313C165.093 44.2313 165.323 44.2601 165.639 44.2601V45.093Z" fill="white"/>
<path d="M170.78 46.7882C170.321 46.7882 169.832 46.702 169.287 46.501L169.488 45.6106C169.918 45.7542 170.292 45.8117 170.579 45.8117C170.924 45.8117 171.182 45.6968 171.326 45.4957C171.469 45.2947 171.527 44.9787 171.527 44.5479V37.7695H172.705V44.5192C172.705 45.2659 172.532 45.8404 172.188 46.2138C171.872 46.5871 171.383 46.7882 170.78 46.7882Z" fill="white"/>
<path d="M176.899 45.2077C176.468 45.2077 176.066 45.1503 175.721 45.0067C175.376 44.8631 175.089 44.662 174.859 44.4322C174.629 44.1737 174.457 43.8865 174.342 43.5706C174.227 43.2546 174.17 42.8813 174.17 42.5079C174.17 41.9909 174.285 41.5313 174.486 41.1292C174.687 40.7271 175.003 40.4112 175.405 40.1527C175.836 39.9229 176.324 39.7793 176.899 39.7793C177.329 39.7793 177.731 39.8367 178.076 39.9803C178.421 40.124 178.708 40.325 178.909 40.5548C179.139 40.8133 179.282 41.1005 179.397 41.4164C179.512 41.7324 179.57 42.1058 179.57 42.5079C179.57 42.8813 179.512 43.2259 179.397 43.5419C179.282 43.8578 179.11 44.145 178.909 44.4035C178.679 44.662 178.421 44.8343 178.076 44.978C177.731 45.1216 177.329 45.2077 176.899 45.2077ZM176.899 44.2886C177.387 44.2886 177.76 44.1163 178.019 43.8004C178.277 43.4557 178.392 43.0249 178.392 42.5079C178.392 41.9622 178.277 41.5313 178.019 41.2154C177.76 40.8707 177.387 40.7271 176.899 40.7271C176.41 40.7271 176.037 40.8995 175.778 41.2154C175.52 41.5601 175.376 41.9909 175.376 42.5079C175.376 43.0249 175.491 43.4557 175.75 43.8004C176.037 44.1163 176.41 44.2886 176.899 44.2886Z" fill="white"/>
<path d="M180.918 45.093V39.8944H182.039V45.093H180.918ZM180.918 38.7455V37.7402H182.01V38.7455H180.918Z" fill="white"/>
<path d="M183.618 45.0928V41.6749C183.618 41.359 183.618 41.0718 183.589 40.7558C183.589 40.4686 183.56 40.2388 183.56 40.0952L183.532 39.8942H184.709V40.641C184.882 40.3537 185.14 40.1527 185.427 40.0091C185.743 39.8655 186.031 39.7793 186.346 39.7793C186.978 39.7793 187.467 39.9804 187.783 40.3537C188.099 40.7271 188.271 41.359 188.271 42.1919V45.0928H187.151V42.1345C187.151 41.6175 187.065 41.2441 186.921 41.0143C186.777 40.7846 186.519 40.6697 186.117 40.6697C185.801 40.6697 185.485 40.7846 185.169 41.0431C184.853 41.3016 184.709 41.5888 184.709 41.9047V45.0641H183.618V45.0928Z" fill="white"/>
<path d="M192.724 45.093H192.235C191.862 45.093 191.546 45.0643 191.316 45.0355C191.086 44.9781 190.857 44.8919 190.684 44.777C190.512 44.6334 190.368 44.4611 190.282 44.2026C190.196 43.9441 190.167 43.6282 190.167 43.2548V40.6985H189.133V39.9518H190.196V38.688L191.287 38.3721V39.9518H192.695V40.6985H191.287V43.341C191.287 43.542 191.316 43.7143 191.345 43.8292C191.374 43.9441 191.46 44.0303 191.575 44.1164C191.69 44.1739 191.833 44.2313 192.005 44.2313C192.178 44.2313 192.408 44.2601 192.724 44.2601V45.093Z" fill="white"/>
<path d="M199.071 45.093L196.285 37.7402H197.606C197.664 37.8838 197.951 38.7168 198.468 40.2103C198.985 41.7039 199.416 42.8527 199.674 43.6282C199.847 43.1974 200.536 41.2443 201.8 37.7402H203.035L200.249 45.093H199.071Z" fill="white"/>
<path d="M206.367 45.2077C205.505 45.2077 204.844 44.9492 204.356 44.461C203.868 43.9727 203.609 43.3121 203.609 42.5079C203.609 41.9909 203.724 41.5601 203.925 41.1292C204.126 40.7271 204.442 40.3825 204.844 40.1527C205.247 39.8942 205.706 39.7793 206.223 39.7793C206.625 39.7793 206.941 39.8367 207.257 39.9803C207.544 40.124 207.803 40.2963 207.975 40.5548C208.147 40.8133 208.291 41.0718 208.377 41.3877C208.463 41.7037 208.521 42.0483 208.521 42.4504C208.521 42.5079 208.521 42.594 208.492 42.6802H204.787C204.816 43.2259 204.959 43.628 205.275 43.8865C205.562 44.145 205.965 44.2886 206.453 44.2886C207.056 44.2886 207.573 44.0876 208.09 43.7142L208.406 44.5471C207.831 45.0067 207.142 45.2077 206.367 45.2077ZM204.816 41.9334H207.487C207.429 41.5313 207.314 41.2154 207.085 40.9856C206.855 40.7558 206.596 40.6697 206.252 40.6697C205.878 40.6697 205.562 40.7846 205.304 41.0143C205.074 41.2154 204.902 41.5313 204.816 41.9334Z" fill="white"/>
<path d="M209.927 45.0928V41.6749C209.927 41.359 209.927 41.0718 209.898 40.7558C209.898 40.4686 209.87 40.2388 209.87 40.0952L209.841 39.8942H211.018V40.641C211.191 40.3537 211.449 40.1527 211.736 40.0091C212.052 39.8655 212.34 39.7793 212.656 39.7793C213.287 39.7793 213.776 39.9804 214.092 40.3537C214.408 40.7271 214.58 41.359 214.58 42.1919V45.0928H213.46V42.1345C213.46 41.6175 213.374 41.2441 213.23 41.0143C213.086 40.7846 212.828 40.6697 212.426 40.6697C212.11 40.6697 211.794 40.7846 211.478 41.0431C211.162 41.3016 211.018 41.5888 211.018 41.9047V45.0641H209.927V45.0928Z" fill="white"/>
<path d="M219.061 45.093H218.573C218.2 45.093 217.884 45.0643 217.654 45.0355C217.424 44.9781 217.194 44.8919 217.022 44.777C216.85 44.6334 216.706 44.4611 216.62 44.2026C216.534 43.9441 216.505 43.6282 216.505 43.2548V40.6985H215.471V39.9518H216.534V38.688L217.625 38.3721V39.9518H219.033V40.6985H217.625V43.341C217.625 43.542 217.654 43.7143 217.683 43.8292C217.712 43.9441 217.798 44.0303 217.913 44.1164C218.027 44.1739 218.171 44.2313 218.343 44.2313C218.516 44.2313 218.745 44.2601 219.061 44.2601V45.093Z" fill="white"/>
<path d="M222.22 45.2087C221.56 45.2087 221.072 45.0363 220.727 44.6629C220.382 44.2896 220.21 43.8013 220.21 43.1694V39.9238H221.33V43.1694C221.33 43.5428 221.416 43.83 221.617 44.0311C221.818 44.2321 222.077 44.3183 222.422 44.3183C222.824 44.3183 223.14 44.2034 223.341 44.0023C223.542 43.7726 223.657 43.4566 223.657 43.0545V39.9526H224.777V43.8013C224.777 44.2321 224.805 44.6917 224.834 45.1512H223.657L223.628 44.3757C223.599 44.4619 223.542 44.5768 223.456 44.6629C223.398 44.7491 223.283 44.864 223.168 44.9502C223.053 45.0363 222.91 45.1225 222.737 45.1799C222.594 45.1799 222.422 45.2087 222.22 45.2087Z" fill="white"/>
<path d="M226.444 45.0932V41.1871C226.444 41.0435 226.444 40.8711 226.415 40.6414C226.415 40.4116 226.386 40.2393 226.386 40.0956L226.357 39.8659H227.564V40.6126C227.937 40.0382 228.368 39.751 228.885 39.751C229.057 39.751 229.23 39.7797 229.402 39.8371V40.8424C229.201 40.785 229 40.7275 228.799 40.7275C228.425 40.7275 228.138 40.8424 227.908 41.1009C227.679 41.3594 227.564 41.7041 227.564 42.1636V45.0932H226.444Z" fill="white"/>
<path d="M232.906 45.2077C232.044 45.2077 231.383 44.9492 230.895 44.461C230.407 43.9727 230.148 43.3121 230.148 42.5079C230.148 41.9909 230.263 41.5601 230.464 41.1292C230.665 40.7271 230.981 40.3825 231.383 40.1527C231.786 39.8942 232.245 39.7793 232.762 39.7793C233.164 39.7793 233.48 39.8367 233.796 39.9803C234.083 40.124 234.342 40.2963 234.514 40.5548C234.686 40.8133 234.83 41.0718 234.916 41.3877C235.002 41.7037 235.06 42.0483 235.06 42.4504C235.06 42.5079 235.06 42.594 235.031 42.6802H231.326C231.355 43.2259 231.498 43.628 231.814 43.8865C232.102 44.145 232.504 44.2886 232.992 44.2886C233.595 44.2886 234.112 44.0876 234.629 43.7142L234.945 44.5471C234.371 45.0067 233.681 45.2077 232.906 45.2077ZM231.355 41.9334H234.026C233.968 41.5313 233.854 41.2154 233.624 40.9856C233.394 40.7558 233.136 40.6697 232.791 40.6697C232.417 40.6697 232.102 40.7846 231.843 41.0143C231.613 41.2154 231.441 41.5313 231.355 41.9334Z" fill="white"/>
<path d="M84.9882 42.3075C85.4482 42.3075 85.8211 41.9346 85.8211 41.4745C85.8211 41.0145 85.4482 40.6416 84.9882 40.6416C84.5282 40.6416 84.1553 41.0145 84.1553 41.4745C84.1553 41.9346 84.5282 42.3075 84.9882 42.3075Z" fill="white"/>
<path d="M50.6367 41.331C50.5505 41.0438 48.5687 35.3568 43.1115 30.0146C42.3073 29.2391 41.4457 28.4636 40.4979 27.7168C39.6936 28.4923 38.7745 29.2678 37.7693 30.0146C38.7745 30.7613 39.6649 31.5368 40.4979 32.3123C45.5816 37.195 47.3337 42.4224 47.3337 42.4224C47.3337 42.4224 45.8976 42.7096 43.5711 42.7096C41.417 42.7096 38.4873 42.4511 35.2417 41.532C34.1503 41.2161 33.0302 40.814 31.8813 40.3257C31.5079 40.1534 31.1345 39.9811 30.7324 39.8087C29.8133 39.3492 29.0953 38.545 28.7506 37.5684C28.5783 37.0802 28.4059 36.5344 28.1474 35.9887C27.8602 35.3281 27.4581 34.6675 26.855 34.0931C26.5677 33.8346 26.338 33.6335 26.1082 33.4325C26.0507 33.375 25.9933 33.3463 25.9359 33.2889C25.4476 32.8868 25.1029 32.657 24.8732 32.5134C24.7295 32.4272 24.6147 32.3698 24.5572 32.3123C24.4998 32.2836 24.4136 32.2262 24.2413 32.14C24.0115 32.0251 23.6668 31.8528 23.0924 31.623C23.035 31.5943 22.9488 31.5656 22.8626 31.5368C22.6041 31.4219 22.2882 31.3358 21.9148 31.2209C21.3691 31.0486 20.8234 30.9911 20.3064 30.9911C20.0766 30.9911 19.8755 30.9911 19.6458 31.0198C19.0426 31.0773 18.4682 31.1922 17.9512 31.2783C17.7214 31.3358 17.4629 31.3358 17.2331 31.3358C16.4576 31.3358 15.6821 31.106 15.0503 30.6465C14.7343 30.4167 14.4184 30.1869 14.1024 29.9571C13.0972 29.2104 12.2068 28.4349 11.3739 27.6594C6.29009 22.7767 4.53806 17.5493 4.53806 17.5493C4.53806 17.5493 5.97415 17.2621 8.30062 17.2621C10.4548 17.2621 13.3844 17.5206 16.63 18.4397C17.7214 18.7556 18.8416 19.1577 19.9904 19.646C20.3638 19.8183 20.7372 19.9906 21.1393 20.163C22.0584 20.6225 22.7765 21.4267 23.1211 22.4033C23.2934 22.8915 23.4658 23.4373 23.7243 23.983C24.0115 24.6436 24.4136 25.3042 25.0168 25.8786C25.2753 26.1371 25.5338 26.3382 25.7635 26.5392C25.821 26.5967 25.8784 26.6254 25.9359 26.6828C26.3954 27.0562 26.7688 27.286 26.9986 27.4583C27.1422 27.5445 27.2283 27.6019 27.2858 27.6307C27.3145 27.6594 27.4007 27.7168 27.5443 27.7743C27.8028 27.9179 28.1762 28.0902 28.7506 28.32C28.808 28.3487 28.8942 28.3774 28.9804 28.4061C28.9229 28.2913 28.8655 28.2051 28.8081 28.0902C28.2336 27.1998 27.2283 26.5967 26.1082 26.5392C26.338 26.3669 26.5677 26.1371 26.855 25.8786C27.4581 25.3042 27.8602 24.6436 28.1474 23.983C27.9177 23.8106 27.6879 23.5809 27.372 23.3224C26.9411 22.8915 26.7114 22.1735 26.4529 21.398L26.4241 21.3406C26.2805 20.9672 26.1369 20.5938 25.9359 20.2491C25.2178 18.8992 24.0689 17.779 22.6616 17.0897C21.9722 16.7738 21.3116 16.4578 20.651 16.1993C19.5309 15.7398 18.4107 15.3664 17.348 15.0792C13.8439 14.0739 10.6845 13.8154 8.32935 13.8154C5.74438 13.8154 4.07851 14.1314 3.87745 14.1601L0 14.9356L1.26376 18.6981C1.34993 18.9854 3.33174 24.6723 8.7889 30.0146C9.59311 30.7901 10.4548 31.5656 11.4026 32.3123C11.9483 32.7431 12.494 33.1453 13.0972 33.5474C14.3322 34.3803 15.7683 34.8398 17.2619 34.8398C17.348 34.8398 17.4629 34.8398 17.5491 34.8398C17.9225 34.8398 18.2958 34.7824 18.6405 34.725L18.7841 34.6962C19.3586 34.5814 19.8755 34.4952 20.3351 34.4952C20.5649 34.4952 20.7372 34.5239 20.9095 34.5526C21.2829 34.6675 21.6276 34.8111 21.9148 34.8973C22.2595 35.0409 22.518 35.1558 22.719 35.2707C22.7765 35.2994 22.8339 35.3281 22.8626 35.3568C22.8913 35.3856 22.9201 35.3856 22.9775 35.4143C23.2073 35.5292 23.4658 35.7302 23.753 35.96C24.0115 36.1611 24.2987 36.4195 24.5285 36.6206C24.9593 37.0514 25.1891 37.7695 25.4476 38.545L25.505 38.6886C25.6486 39.062 25.7923 39.4353 25.9933 39.78C26.7114 41.1299 27.8602 42.2501 29.2676 42.9394C29.9569 43.2554 30.6175 43.5713 31.2781 43.8298C32.3983 44.2893 33.5184 44.6627 34.5812 44.9499C38.0852 45.9552 41.2446 46.185 43.5998 46.185C46.1848 46.185 47.8507 45.869 48.0517 45.8403L51.9579 45.0648L50.6367 41.331Z" fill="#259B97"/>
<path d="M31.2494 16.1983C30.5888 16.4568 29.8995 16.7727 29.2389 17.0887C27.8315 17.778 26.6826 18.8981 25.9646 20.2481C25.7635 20.5927 25.6199 20.9661 25.4763 21.3395L25.4189 21.4831C25.1604 22.2586 24.9019 22.9766 24.4998 23.4075C24.2987 23.5798 24.0115 23.8383 23.7243 24.0681C23.4658 24.2978 23.1786 24.4989 22.9775 24.6138C22.9488 24.6425 22.9201 24.6425 22.8913 24.6712C22.8626 24.7 22.8052 24.7287 22.7477 24.7574C22.5467 24.8723 22.2882 25.0159 21.9435 25.1308C22.3456 25.7052 22.719 26.3945 22.9201 27.1988C23.0062 27.5721 23.0637 27.8881 23.1211 28.1753C23.1498 28.2615 23.1498 28.3476 23.1498 28.4051C23.7243 28.1753 24.0977 28.003 24.3274 27.8594C24.4998 27.7732 24.5859 27.7158 24.6434 27.687C24.7008 27.6583 24.8157 27.6009 24.9593 27.5147C25.1891 27.3711 25.505 27.1413 25.9933 26.7679C26.0507 26.7105 26.1082 26.6818 26.1656 26.6243C26.3954 26.452 26.6252 26.2222 26.9124 25.9637C27.5156 25.3893 27.9177 24.7287 28.2049 24.0681C28.4634 23.5224 28.6357 22.9766 28.808 22.4884C29.1527 21.5118 29.842 20.7076 30.7899 20.2481C31.1632 20.0757 31.5366 19.8747 31.9387 19.7311C31.7377 18.4673 31.5079 17.2897 31.2494 16.1983ZM34.5524 15.0781C33.4897 15.3653 32.3696 15.7387 31.2494 16.1983C30.5888 16.4568 29.8995 16.7727 29.2389 17.0887C27.8315 17.778 26.6826 18.8981 25.9646 20.2481C25.7635 20.5927 25.6199 20.9661 25.4763 21.3395L25.4189 21.4831C25.1604 22.2586 24.9019 22.9766 24.4998 23.4075C24.2987 23.5798 24.0115 23.8383 23.7243 24.0681C23.4658 24.2978 23.1786 24.4989 22.9775 24.6138C22.9488 24.6425 22.9201 24.6425 22.8913 24.6712C22.8626 24.7 22.8052 24.7287 22.7477 24.7574C22.5467 24.8723 22.2882 25.0159 21.9435 25.1308C21.6563 25.2457 21.3404 25.3606 20.9382 25.4754C20.7659 25.5329 20.5649 25.5329 20.3638 25.5329C19.9043 25.5329 19.3585 25.418 18.8128 25.3318L18.6692 25.3031C18.2958 25.2457 17.9225 25.1882 17.5778 25.1882C17.4916 25.1882 17.3767 25.1882 17.2906 25.1882C15.797 25.1882 14.3609 25.6478 13.1259 26.4807C12.5227 26.8828 11.977 27.3136 11.4313 27.7157C10.4835 28.4625 9.59311 29.238 8.81762 30.0135C3.36046 35.3558 1.40737 41.0427 1.29248 41.3299L0 45.0925L3.90618 45.868C4.07851 45.8967 5.74438 46.2126 8.35807 46.2126C10.6845 46.2126 13.8439 45.9541 17.3767 44.9776C18.4394 44.6904 19.5596 44.317 20.6798 43.8574C20.4213 42.766 20.1915 41.5884 20.0479 40.3534C18.899 40.8416 17.7788 41.2438 16.6874 41.5597C13.4418 42.5075 10.5409 42.7373 8.35807 42.7373C6.03159 42.7373 4.5955 42.4501 4.5955 42.4501C4.5955 42.4501 6.34753 37.194 11.4313 32.34C12.2355 31.5645 13.1546 30.789 14.1599 30.0422C14.4758 29.8124 14.7918 29.5827 15.1077 29.3529C15.7683 28.8933 16.5151 28.6636 17.2906 28.6636C17.5203 28.6636 17.7788 28.6923 18.0086 28.721C18.5256 28.8072 19.1 28.9508 19.7032 28.9795C19.933 29.0082 20.134 29.0082 20.3638 29.0082C20.8808 29.0082 21.4265 28.9508 21.9722 28.7785C22.3169 28.6636 22.6328 28.5487 22.9201 28.4625C23.0062 28.4338 23.0637 28.4051 23.1498 28.3764C23.7243 28.1466 24.0977 27.9742 24.3274 27.8306C24.4998 27.7445 24.5859 27.687 24.6434 27.6583C24.7008 27.6296 24.8157 27.5721 24.9593 27.486C25.1891 27.3424 25.505 27.1126 25.9933 26.7392C26.0507 26.6818 26.1082 26.653 26.1656 26.5956C26.3954 26.4233 26.6252 26.1935 26.9124 25.935C27.5156 25.3606 27.9177 24.7 28.2049 24.0393C28.4634 23.4936 28.6357 22.9479 28.808 22.4596C29.1527 21.4831 29.842 20.6789 30.7899 20.2193C31.1632 20.047 31.5366 19.846 31.9387 19.7023C33.0876 19.2141 34.2078 18.812 35.2992 18.496C35.0694 17.2897 34.8396 16.1408 34.5524 15.0781Z" fill="#62629B"/>
<path d="M51.9002 14.935L50.6365 18.6976C50.5503 18.9848 48.5685 24.6717 43.1114 30.014C42.3071 30.7895 41.4455 31.565 40.4977 32.3117C39.9519 32.7426 39.4062 33.1447 38.8031 33.5468C37.568 34.3797 36.1319 34.8393 34.6384 34.8393C34.5522 34.8393 34.4373 34.8393 34.3512 34.8393C33.9778 34.8393 33.6044 34.7818 33.2597 34.7244L33.1161 34.6957C32.5417 34.5808 32.0247 34.4946 31.5652 34.4946C31.3354 34.4946 31.163 34.5233 30.9907 34.5521C30.6173 34.6669 30.2727 34.8105 29.9854 34.9254C29.5259 35.0978 29.2387 35.2701 29.1238 35.3275C29.0951 35.3275 29.0951 35.3563 29.0663 35.3563C29.0376 35.385 29.0089 35.385 28.9515 35.4137C28.8366 35.4999 28.5494 35.6722 28.1472 35.9881C27.9175 36.1605 27.659 36.3903 27.3718 36.6488C26.9409 37.0796 26.7112 37.7976 26.4527 38.5731L26.3952 38.7167C26.2516 39.0901 26.108 39.4635 25.9069 39.8082C25.1889 41.1581 24.04 42.2782 22.6326 42.9676C21.9433 43.2835 21.2827 43.5994 20.6221 43.8579C20.3636 42.7665 20.1338 41.5889 19.9902 40.3539C20.3636 40.1815 20.737 40.0092 21.1391 39.8369C22.0582 39.3773 22.7763 38.5731 23.1209 37.5966C23.2933 37.1083 23.4656 36.5626 23.7241 36.0169C24.0113 35.3563 24.4134 34.6957 25.0166 34.1212C25.2751 33.8627 25.5336 33.6617 25.7633 33.4606C25.8208 33.4032 25.8782 33.3745 25.9357 33.317C26.3952 32.9436 26.7399 32.7139 26.9984 32.5415C27.142 32.4554 27.2281 32.3979 27.2856 32.3692C27.2856 32.3692 27.2856 32.3692 27.3143 32.3405C27.3143 32.3405 27.343 32.3405 27.343 32.3117C27.4005 32.283 27.4579 32.2543 27.5728 32.1969C27.8313 32.0532 28.2334 31.8809 28.7791 31.6511C28.8366 31.6224 28.9227 31.5937 28.9802 31.565C29.2674 31.4501 29.5833 31.3352 29.928 31.2203C30.4737 31.048 31.0194 30.9905 31.5364 30.9905C31.7662 30.9905 31.996 30.9905 32.197 31.0193C32.8002 31.0767 33.3746 31.1916 33.8916 31.2778C34.1214 31.3352 34.3799 31.3352 34.6097 31.3352C35.3852 31.3352 36.1607 31.1054 36.7925 30.6459C37.1085 30.4161 37.4244 30.1863 37.7404 29.9566C38.7456 29.2098 39.636 28.4343 40.4689 27.6588C45.5527 22.7761 47.3047 17.5487 47.3047 17.5487C47.3047 17.5487 45.8687 17.2615 43.5422 17.2615C41.388 17.2615 38.4584 17.52 35.2128 18.4391C35.0405 17.2328 34.8107 16.0839 34.5235 15.0212C38.0276 14.0159 41.187 13.7861 43.5422 13.7861C46.1271 13.7861 47.793 14.1021 47.9941 14.1308L51.9002 14.935Z" fill="#62629B"/>
<path d="M33.2595 34.7248L33.1159 34.696C32.5414 34.5811 32.0244 34.495 31.5649 34.495C31.3351 34.495 31.1628 34.5237 30.9904 34.5524C30.6171 34.6673 30.2724 34.8109 29.9852 34.9258C30.3298 35.4141 30.7032 35.8449 31.0766 36.247C31.7659 37.0225 32.0819 38.0565 32.0244 39.0905C31.9957 39.5213 31.967 39.9234 31.9095 40.3255C31.7659 41.5606 31.5362 42.7382 31.2777 43.8296C29.5831 50.608 25.9928 54.7439 25.9928 54.7439C25.9928 54.7439 22.3739 50.608 20.708 43.8296C20.4495 42.7382 20.2197 41.5606 20.0761 40.3255C20.0187 39.9234 19.99 39.4926 19.9612 39.0905C19.8751 38.0565 20.2197 37.0225 20.9091 36.247C21.2537 35.8449 21.6558 35.4141 22.0005 34.9258C22.4026 34.3514 22.776 33.662 22.977 32.8578C23.0632 32.4844 23.1206 32.1685 23.1781 31.8813C23.2068 31.7951 23.2068 31.7377 23.2068 31.6515C23.293 31.0483 23.3217 30.6462 23.3504 30.3877C23.3504 30.1867 23.3504 30.0718 23.3504 30.0144C23.3504 29.9569 23.3504 29.842 23.3504 29.6697C23.3504 29.4112 23.3217 29.0091 23.2355 28.3772C23.2355 28.291 23.2068 28.2336 23.2068 28.1474C23.1494 27.8602 23.0919 27.5443 23.0058 27.1709C22.8047 26.3667 22.46 25.7061 22.0292 25.1029C21.6845 24.6147 21.2824 24.1838 20.9378 23.7817C20.2485 23.0062 19.9325 21.9722 19.99 20.9382C20.0187 20.5074 20.0474 20.1053 20.1048 19.7032C20.2485 18.4682 20.4782 17.2906 20.7367 16.1991C22.4313 9.42078 26.0216 5.28483 26.0216 5.28483C26.0216 5.28483 29.6405 9.42078 31.3064 16.1991C31.5649 17.2906 31.7947 18.4682 31.9383 19.7032C31.9957 20.1053 32.0244 20.5361 32.0531 20.9382C32.1393 21.9722 31.7947 22.9775 31.1053 23.7817C30.7607 24.1838 30.3873 24.6147 30.0139 25.1029C30.2724 25.2178 30.6171 25.3327 31.0192 25.4763C31.1915 25.5337 31.3638 25.5338 31.5936 25.5338C32.0531 25.5338 32.5989 25.4189 33.1446 25.3327L33.2882 25.304C33.6616 25.2465 34.0062 25.1891 34.3796 25.1891C35.2126 23.8679 35.6147 22.2882 35.4998 20.7085C35.4423 19.9617 35.3562 19.2149 35.27 18.5256C35.0977 17.3193 34.8679 16.1704 34.5807 15.1077C32.685 7.78363 28.8076 3.27429 28.6065 3.0158L25.9354 0L23.3217 2.98708C23.1206 3.21685 19.2432 7.72618 17.3475 15.079C17.0603 16.1704 16.8306 17.2906 16.6582 18.4969C16.5433 19.2149 16.4859 19.933 16.4284 20.6798C16.3136 22.2595 16.7157 23.8392 17.5486 25.1604C17.7497 25.4763 17.9507 25.7635 18.2092 26.0507L18.2954 26.1656C18.8411 26.7688 19.3294 27.372 19.473 27.9464C19.5304 28.2336 19.6166 28.607 19.674 28.9804C19.7315 29.2963 19.7602 29.6123 19.7602 29.8708C19.7602 29.9569 19.7602 30.0144 19.7602 30.0431C19.7602 30.0718 19.7602 30.1005 19.7602 30.1292C19.7602 30.3303 19.7315 30.6462 19.674 31.0196C19.6166 31.3356 19.5591 31.6802 19.473 32.0536C19.3294 32.6281 18.8124 33.2025 18.2954 33.8344L18.2092 33.9493C17.9507 34.2365 17.7497 34.5237 17.5486 34.8396C16.7157 36.1608 16.3136 37.7405 16.4284 39.3202C16.4859 40.067 16.5721 40.8138 16.6582 41.5031C16.8306 42.7094 17.0603 43.8583 17.3475 44.921C19.2432 52.2451 23.1206 56.7544 23.3217 57.0129L25.9354 60L28.5491 57.0129C28.7501 56.7832 32.6276 52.2738 34.5232 44.921C34.8104 43.8296 35.0402 42.7094 35.2126 41.5031C35.3274 40.7851 35.3849 40.067 35.4423 39.3202C35.5572 37.7405 35.1551 36.1608 34.3222 34.8396C33.9775 34.8396 33.6041 34.7822 33.2595 34.7248ZM28.664 30.359C28.664 30.6175 28.6927 31.0483 28.8076 31.6515C28.865 31.6228 28.9512 31.5941 29.0086 31.5653C29.2958 31.4505 29.6118 31.3356 29.9565 31.2207C30.5022 31.0483 31.0479 30.9909 31.5649 30.9909C31.7947 30.9909 32.0244 30.9909 32.2255 31.0196C32.168 30.7037 32.1393 30.359 32.1393 30.1005V29.9282C32.1393 29.8995 32.1393 29.8708 32.1393 29.842C32.1393 29.6984 32.168 29.3825 32.2255 28.9804C31.9957 29.0091 31.7947 29.0091 31.5649 29.0091C31.0479 29.0091 30.5022 28.9517 29.9565 28.7793C29.6118 28.6644 29.2958 28.5495 29.0086 28.4347C28.9512 28.3198 28.8937 28.2336 28.8363 28.1187C28.8363 28.2049 28.8076 28.2623 28.8076 28.3485C28.7214 28.9517 28.6927 29.3538 28.664 29.6123C28.664 29.8133 28.664 29.9282 28.664 29.9569C28.664 30.0431 28.664 30.158 28.664 30.359Z" fill="#8BC73F"/>
<path d="M40.4981 27.7163C39.6939 28.4918 38.7748 29.2672 37.7696 30.014C37.4536 29.7842 37.1377 29.5545 36.8217 29.3247C36.1611 28.8651 35.4144 28.6354 34.6389 28.6354C34.4091 28.6354 34.1506 28.6641 33.9208 28.6928C33.4038 28.779 32.8294 28.9226 32.2262 28.9513C31.9965 28.98 31.7954 28.98 31.5656 28.98C31.0486 28.98 30.5029 28.9226 29.9572 28.7503C29.6126 28.6354 29.2966 28.5205 29.0094 28.4056C28.952 28.2907 28.8945 28.2045 28.8371 28.0897C28.2626 27.1993 27.2574 26.5961 26.1372 26.5387C26.367 26.3663 26.5968 26.1366 26.884 25.8781C27.4871 25.3036 27.8892 24.643 28.1765 23.9824C28.435 24.1835 28.6073 24.3271 28.7509 24.4133L29.0668 24.6143C29.0956 24.6143 29.0956 24.643 29.1243 24.643C29.1243 24.643 29.1243 24.643 29.153 24.643C29.2392 24.7005 29.5264 24.8441 30.0147 25.0451C30.2732 25.16 30.6178 25.2749 31.0199 25.4185C31.1923 25.476 31.3646 25.476 31.5944 25.476C32.0539 25.476 32.5996 25.3611 33.1453 25.2749L33.289 25.2462C33.6623 25.1887 34.007 25.1313 34.3804 25.1313C34.4666 25.1313 34.5814 25.1313 34.6676 25.1313C36.1611 25.1313 37.5972 25.5908 38.8323 26.4238C39.4067 26.8833 39.9524 27.2854 40.4981 27.7163Z" fill="#259B97"/>
<path d="M25.9361 32.7433C27.4431 32.7433 28.6647 31.5217 28.6647 30.0147C28.6647 28.5078 27.4431 27.2861 25.9361 27.2861C24.4291 27.2861 23.2075 28.5078 23.2075 30.0147C23.2075 31.5217 24.4291 32.7433 25.9361 32.7433Z" fill="#FA9629"/>
<path d="M29.0093 28.4636C28.9519 28.3487 28.8944 28.2625 28.837 28.1477C28.2625 27.2573 27.2573 26.6541 26.1371 26.5967C26.0797 26.5967 26.0222 26.5967 25.9648 26.5967C25.9073 26.5967 25.8499 26.5967 25.7924 26.5967C24.6723 26.6541 23.667 27.2573 23.0926 28.1477C23.0351 28.2625 22.949 28.3487 22.9203 28.4636C22.6905 28.9232 22.5469 29.4401 22.5469 30.0146C22.5469 30.5603 22.6905 31.106 22.9203 31.5656C22.9777 31.6805 23.0351 31.7666 23.0926 31.8815C23.667 32.7719 24.6723 33.4038 25.7924 33.4325C25.8499 33.4325 25.9073 33.4325 25.9648 33.4325C26.0222 33.4325 26.0797 33.4325 26.1371 33.4325C27.2573 33.375 28.2625 32.7719 28.837 31.8815C28.8944 31.7953 28.9519 31.6805 29.0093 31.5656C29.2391 31.106 29.3827 30.5603 29.3827 30.0146C29.3827 29.4689 29.2391 28.9232 29.0093 28.4636ZM27.5732 32.1974C27.4009 32.3123 27.2285 32.4272 27.0275 32.5134C26.7115 32.657 26.3382 32.7432 25.9648 32.7432C25.5914 32.7432 25.2467 32.657 24.9308 32.5421C24.701 32.4559 24.5 32.3123 24.2989 32.1687C23.7532 31.7379 23.3511 31.106 23.2649 30.3592C23.2362 30.2444 23.2362 30.1295 23.2362 30.0146C23.2362 29.8997 23.2362 29.7848 23.2649 29.6699C23.3511 28.9232 23.7532 28.2913 24.2989 27.8604C24.5 27.7168 24.701 27.6019 24.9308 27.4871C25.2467 27.3434 25.5914 27.286 25.9648 27.286C26.3382 27.286 26.7115 27.3722 27.0275 27.4871C27.2285 27.5732 27.4296 27.6881 27.6019 27.803C28.1764 28.2338 28.5785 28.8944 28.6646 29.6125C28.6934 29.7274 28.6934 29.8423 28.6934 29.9859C28.6934 30.1008 28.6934 30.2156 28.6646 30.3305C28.5785 31.106 28.1476 31.7666 27.5732 32.1974Z" fill="white"/>
</svg>
