<svg width="78" height="65" viewBox="0 0 78 65" fill="none" xmlns="http://www.w3.org/2000/svg">
<path d="M54.356 29.7717C54.356 20.4382 46.4761 12.8643 37.0661 13.3998C28.7272 13.8588 21.9183 20.6677 21.5358 29.0066C21.2298 35.127 24.3664 40.5587 29.1097 43.6189C30.7928 44.69 31.8638 46.6026 31.8638 48.6682V49.7392C31.8638 50.4278 32.3994 50.8868 33.0114 50.8868H42.7274C43.4159 50.8868 43.875 50.3513 43.875 49.7392V48.6682C43.875 46.6026 45.0225 44.69 46.7821 43.5424C51.3724 40.6352 54.356 35.5095 54.356 29.7717Z" stroke="white" stroke-width="1.5" stroke-miterlimit="10" stroke-linecap="round" stroke-linejoin="round"/>
<path d="M43.1099 54.7871H32.7819C32.3229 54.7871 31.9403 54.4046 31.9403 53.9456V51.8035C31.9403 51.3444 32.3229 50.9619 32.7819 50.9619H43.1099C43.569 50.9619 43.9515 51.3444 43.9515 51.8035V53.9456C43.9515 54.4046 43.569 54.7871 43.1099 54.7871Z" stroke="white" stroke-width="1.5" stroke-miterlimit="10" stroke-linecap="round" stroke-linejoin="round"/>
<path d="M41.1974 58.6123H34.6945C34.2355 58.6123 33.853 58.2298 33.853 57.7708V55.6287C33.853 55.1696 34.2355 54.7871 34.6945 54.7871H41.1974C41.6564 54.7871 42.0389 55.1696 42.0389 55.6287V57.7708C42.0389 58.2298 41.6564 58.6123 41.1974 58.6123Z" stroke="white" stroke-width="1.5" stroke-miterlimit="10" stroke-linecap="round" stroke-linejoin="round"/>
<path d="M37.9077 50.3508V43.695C37.9077 43.695 42.2685 44.0775 42.4215 40.7113C42.4215 40.4818 42.498 39.6402 41.9625 38.8752C41.0444 37.4981 39.2848 37.4981 39.1318 37.4981C38.2138 37.4981 37.1826 37.9572 37.0296 38.8752C36.8766 39.7933 37.6017 40.7878 38.6728 40.9408C40.2794 41.2468 42.039 40.0228 42.5745 38.4162C42.651 38.1867 43.11 36.7331 42.345 35.662C41.4269 34.3615 38.9023 34.0554 36.5307 35.4325" stroke="white" stroke-width="1.5" stroke-miterlimit="10" stroke-linecap="round" stroke-linejoin="round"/>
<path d="M37.9076 9.80341V2" stroke="white" stroke-width="1.5" stroke-miterlimit="10" stroke-linecap="round" stroke-linejoin="round"/>
<path d="M21.4592 16.688L16.0274 11.1797" stroke="white" stroke-width="1.5" stroke-miterlimit="10" stroke-linecap="round" stroke-linejoin="round"/>
<path d="M14.8034 33.2139H7" stroke="white" stroke-width="1.5" stroke-miterlimit="10" stroke-linecap="round" stroke-linejoin="round"/>
<path d="M21.6888 49.6621L16.1805 55.1704" stroke="white" stroke-width="1.5" stroke-miterlimit="10" stroke-linecap="round" stroke-linejoin="round"/>
<path d="M54.2794 16.1544L59.7877 10.7227" stroke="white" stroke-width="1.5" stroke-miterlimit="10" stroke-linecap="round" stroke-linejoin="round"/>
<path d="M61.2414 32.2207H69.0448" stroke="white" stroke-width="1.5" stroke-miterlimit="10" stroke-linecap="round" stroke-linejoin="round"/>
<path d="M54.8916 48.5908L60.3234 54.0991" stroke="white" stroke-width="1.5" stroke-miterlimit="10" stroke-linecap="round" stroke-linejoin="round"/>
</svg>
