<svg width="78" height="65" viewBox="0 0 78 65" fill="none" xmlns="http://www.w3.org/2000/svg">
<path d="M40.5435 57.9996L18.8851 45.5119V26.7803L40.5435 39.268V57.9996Z" stroke="white" stroke-width="1.5" stroke-miterlimit="10" stroke-linecap="round" stroke-linejoin="round"/>
<path d="M62.202 45.5119L40.5436 57.9996V39.268L62.202 26.7803V45.5119Z" stroke="white" stroke-width="1.5" stroke-miterlimit="10" stroke-linecap="round" stroke-linejoin="round"/>
<path d="M73.1288 20.7316L40.5437 39.6583L7.9585 20.7316L40.5437 2L73.1288 20.7316Z" stroke="white" stroke-width="1.5" stroke-miterlimit="10" stroke-linecap="round" stroke-linejoin="round"/>
<path d="M40.5435 22.6817C41.6211 22.6817 42.4947 21.8081 42.4947 20.7305C42.4947 19.6529 41.6211 18.7793 40.5435 18.7793C39.4659 18.7793 38.5923 19.6529 38.5923 20.7305C38.5923 21.8081 39.4659 22.6817 40.5435 22.6817Z" stroke="white" stroke-width="1.5" stroke-miterlimit="10" stroke-linecap="round" stroke-linejoin="round"/>
<path d="M38.5925 20.7314H7.9585V42.3898" stroke="white" stroke-width="1.5" stroke-miterlimit="10" stroke-linecap="round" stroke-linejoin="round"/>
<path d="M7.95839 51.9504C6.59255 51.9504 5.61694 50.9748 5.61694 49.6089V44.5358C5.61694 43.1699 6.59255 42.1943 7.95839 42.1943C9.32424 42.1943 10.2998 43.1699 10.2998 44.5358V49.6089C10.2998 50.9748 9.12912 51.9504 7.95839 51.9504Z" stroke="white" stroke-width="1.5" stroke-miterlimit="10" stroke-linecap="round" stroke-linejoin="round"/>
</svg>
