<svg width="78" height="65" viewBox="0 0 78 65" fill="none" xmlns="http://www.w3.org/2000/svg">
<path d="M38.539 12.2566C41.3713 12.2566 43.6673 9.96055 43.6673 7.12828C43.6673 4.29601 41.3713 2 38.539 2C35.7068 2 33.4108 4.29601 33.4108 7.12828C33.4108 9.96055 35.7068 12.2566 38.539 12.2566Z" stroke="white" stroke-width="1.5" stroke-miterlimit="10" stroke-linecap="round" stroke-linejoin="round"/>
<path d="M49.2058 25.1804H28.0773C28.0773 22.7189 28.8978 20.2573 30.5388 18.6162C32.5901 16.1547 35.462 14.7188 38.7441 14.7188C42.0262 14.7188 45.1031 16.3598 46.9493 18.6162C48.3852 20.2573 49.2058 22.7189 49.2058 25.1804Z" stroke="white" stroke-width="1.5" stroke-miterlimit="10" stroke-linecap="round" stroke-linejoin="round"/>
<path d="M11.6667 45.0778C14.499 45.0778 16.795 42.7818 16.795 39.9496C16.795 37.1173 14.499 34.8213 11.6667 34.8213C8.83446 34.8213 6.53845 37.1173 6.53845 39.9496C6.53845 42.7818 8.83446 45.0778 11.6667 45.0778Z" stroke="white" stroke-width="1.5" stroke-miterlimit="10" stroke-linecap="round" stroke-linejoin="round"/>
<path d="M11.6668 57.9998H1C1 52.2562 5.71801 47.333 11.6668 47.333C17.6156 47.333 22.3336 52.051 22.3336 57.9998H11.6668Z" stroke="white" stroke-width="1.5" stroke-miterlimit="10" stroke-linecap="round" stroke-linejoin="round"/>
<path d="M65.4112 45.0778C68.2435 45.0778 70.5395 42.7818 70.5395 39.9496C70.5395 37.1173 68.2435 34.8213 65.4112 34.8213C62.579 34.8213 60.283 37.1173 60.283 39.9496C60.283 42.7818 62.579 45.0778 65.4112 45.0778Z" stroke="white" stroke-width="1.5" stroke-miterlimit="10" stroke-linecap="round" stroke-linejoin="round"/>
<path d="M65.4113 57.9998H54.7445C54.7445 52.2562 59.4625 47.333 65.4113 47.333C71.3601 47.333 76.0782 52.051 76.0782 57.9998H65.4113Z" stroke="white" stroke-width="1.5" stroke-miterlimit="10" stroke-linecap="round" stroke-linejoin="round"/>
<path d="M46.7443 18.4102H65.4112V34.8206" stroke="white" stroke-width="1.5" stroke-miterlimit="10" stroke-linecap="round" stroke-linejoin="round"/>
<path d="M11.6669 34.8206V18.4102H30.3338" stroke="white" stroke-width="1.5" stroke-miterlimit="10" stroke-linecap="round" stroke-linejoin="round"/>
</svg>
