<svg width="100" height="37" viewBox="0 0 100 37" fill="none" xmlns="http://www.w3.org/2000/svg">
<path d="M9.35315 9.26082C9.35315 4.15439 13.5052 0 18.6626 0C23.8199 0 28.0157 4.15439 28.0157 9.26082H9.35315ZM9.35315 27.7392C9.35315 22.6327 13.549 18.4784 18.7063 18.4784C13.549 18.4784 9.35315 14.324 9.35315 9.21754C4.1958 9.26082 0 13.3719 0 18.4784C0 23.5848 4.1958 27.7392 9.35315 27.7392ZM9.35315 27.7392C9.35315 32.8456 13.549 37 18.7063 37C23.8636 37 28.0594 32.8456 28.0594 27.7392H9.35315ZM18.6626 18.4784C23.8199 18.4784 28.0157 22.6327 28.0157 27.7392C33.1731 27.7392 37.3689 23.5848 37.3689 18.4784C37.3689 13.3719 33.1731 9.21754 28.0157 9.21754C28.0157 14.3673 23.8199 18.4784 18.6626 18.4784Z" fill="#1C938A"/>
<path d="M60.9267 9.26093H66.6959V27.7393H62.4127V15.3194L56.9057 27.7393L51.1365 15.2761V27.7393H47.1155V9.26093H52.841L56.9494 18.8247L60.9267 9.26093ZM81.9494 14.7136C81.9494 11.0785 79.1085 8.95801 75.6994 8.95801C72.2903 8.95801 68.6627 10.9054 68.6627 14.7136C68.6627 18.0025 72.334 19.6902 74.3882 20.2095C75.5246 20.5124 78.4092 20.8153 78.4092 22.8925C78.4092 24.8399 76.3987 25.3592 74.869 25.3592C72.9022 25.3592 71.7658 24.0177 71.9407 21.9837H68.1819C68.0508 26.5709 71.1976 28.3019 74.9127 28.3884C79.1959 28.475 82.4302 26.7007 82.4302 22.6329C82.4302 18.565 78.7151 17.9159 75.8305 16.9639C74.7379 16.5744 72.6399 16.2715 72.6399 14.3674C72.6399 12.7662 74.0386 12.0305 75.4372 12.0305C77.2291 12.0305 78.1906 12.9393 78.3218 14.7568L81.9494 14.7136ZM90.0351 9.21766H84.091V27.696H90.0351C94.9739 27.696 100 24.8832 100 18.4785C100 12.0738 94.9739 9.21766 90.0351 9.21766ZM89.7728 24.3206H88.112V12.6364H89.7728C94.3183 12.6364 95.9354 15.5791 95.9354 18.4785C95.9354 21.3779 94.2746 24.3206 89.7728 24.3206Z" fill="black"/>
</svg>
