<svg width="78" height="65" viewBox="0 0 78 65" fill="none" xmlns="http://www.w3.org/2000/svg">
<path d="M44.5539 45.4736C43.9208 45.4736 43.3667 45.3153 42.8918 44.9196C42.0212 44.2864 40.9923 43.8907 39.8843 43.8907H38.6971C38.6971 47.7688 38.6971 51.5679 38.7762 55.446C33.9483 59.0076 27.7749 58.691 24.5299 55.446C21.6015 52.5176 21.9972 48.1646 22.0763 47.4523C21.5223 47.4523 16.2986 47.7688 13.0536 43.8115C10.0461 40.0916 10.1252 34.3931 13.4494 30.1192H24.5299V31.3064C24.5299 32.4144 24.1341 33.3642 23.501 34.3139C23.1844 34.7888 22.9469 35.3429 22.9469 35.976C22.9469 37.8755 24.6882 39.3793 26.746 38.9044C27.854 38.667 28.7246 37.7964 28.9621 36.6883C29.1995 35.7386 28.9621 34.868 28.4872 34.1557C27.854 33.285 27.5374 32.2561 27.5374 31.2272V30.04H38.6971V40.804H39.8843C40.9132 40.804 41.9421 40.4874 42.8127 39.8542C43.525 39.3793 44.3956 39.1419 45.3454 39.3793C46.4534 39.6168 47.2449 40.4874 47.5615 41.5954C47.9572 43.6532 46.4534 45.4736 44.5539 45.4736Z" stroke="white" stroke-width="1.5" stroke-miterlimit="10" stroke-linecap="round" stroke-linejoin="round"/>
<path d="M53.9723 23.8652C53.9723 24.4983 53.814 25.0524 53.4183 25.5272C52.7851 26.3978 52.3894 27.4267 52.3894 28.5348V29.722C56.2676 29.722 60.0666 29.722 63.9448 29.6428C67.5064 34.4708 67.1898 40.6442 63.9448 43.8892C61.0164 46.8176 56.6633 46.4219 55.951 46.3427C55.951 46.8968 56.2676 52.1204 52.3103 55.3654C48.6695 58.2939 42.971 58.2939 38.6971 54.9697V43.8892H39.8843C40.9923 43.8892 41.9421 44.2849 42.8918 44.9181C43.3667 45.2347 43.9207 45.4721 44.5539 45.4721C46.4534 45.4721 47.9572 43.7309 47.4823 41.6731C47.2449 40.5651 46.3743 39.6944 45.2662 39.457C44.3165 39.2196 43.4459 39.457 42.7335 39.9319C41.8629 40.5651 40.834 40.8816 39.8051 40.8816H38.6179V29.722H49.3818V28.5348C49.3818 27.5059 49.0653 26.477 48.4321 25.6064C47.9572 24.8941 47.7198 24.0235 47.9572 23.0737C48.1946 21.9656 49.0653 21.1742 50.1733 20.8576C52.152 20.4619 53.9723 21.9656 53.9723 23.8652Z" stroke="white" stroke-width="1.5" stroke-miterlimit="10" stroke-linecap="round" stroke-linejoin="round"/>
<path d="M32.2862 14.5263C32.9194 14.5263 33.4734 14.6846 33.9483 15.0803C34.8189 15.7135 35.8478 16.1092 36.9559 16.1092H38.1431C38.1431 12.2311 38.1431 8.43203 38.0639 4.55385C42.8919 0.992262 49.0653 1.30885 52.3103 4.55385C55.2387 7.48227 54.843 11.8353 54.7638 12.5476C55.3179 12.5476 60.5415 12.2311 63.7865 16.1884C66.7149 19.8291 66.7149 25.5277 63.3908 29.8016H52.3103V28.6144C52.3103 27.5063 52.706 26.5566 53.3392 25.6068C53.6558 25.1319 53.8932 24.5779 53.8932 23.9447C53.8932 22.0452 52.152 20.5414 50.0942 21.0163C48.9861 21.2537 48.1155 22.1244 47.8781 23.2324C47.6406 24.1822 47.8781 25.0528 48.353 25.7651C48.9861 26.6357 49.3027 27.6646 49.3027 28.6935V29.8807H38.1431V19.0376H36.9559C35.927 19.0376 34.8981 19.3542 34.0275 19.9874C33.3151 20.4623 32.4445 20.6997 31.4948 20.4623C30.3867 20.2248 29.5953 19.3542 29.2787 18.2462C28.8829 16.2675 30.3867 14.5263 32.2862 14.5263Z" stroke="white" stroke-width="1.5" stroke-miterlimit="10" stroke-linecap="round" stroke-linejoin="round"/>
<path d="M23.0261 35.9741C23.0261 35.3409 23.1844 34.7869 23.5801 34.312C24.2133 33.4414 24.609 32.4125 24.609 31.3045V30.1173C20.7309 30.1173 16.9318 30.1173 13.0537 30.1964C9.49208 25.3685 9.80866 19.195 13.0537 15.95C15.9821 13.0216 20.3351 13.4174 21.0475 13.4965C21.0475 12.9425 20.7309 7.71882 24.6882 4.47381C28.3289 1.46625 34.0275 1.54539 38.3014 4.86954V15.95H37.1142C36.0061 15.95 35.0564 15.5543 34.1066 14.9211C33.6317 14.6046 33.0777 14.3671 32.4445 14.3671C30.545 14.3671 29.0412 16.1083 29.5161 18.1661C29.7536 19.2742 30.6242 20.1448 31.7322 20.3822C32.682 20.6197 33.5526 20.3822 34.2649 19.9074C35.1355 19.2742 36.1644 18.9576 37.1933 18.9576H38.3805V30.1173H27.5375V31.3045C27.5375 32.3334 27.8541 33.3623 28.4872 34.2329C28.9621 34.9452 29.1995 35.8158 28.9621 36.7656C28.7247 37.8736 27.8541 38.6651 26.746 38.9817C24.7673 39.3774 23.0261 37.8736 23.0261 35.9741Z" stroke="white" stroke-width="1.5" stroke-miterlimit="10" stroke-linecap="round" stroke-linejoin="round"/>
</svg>
