<svg width="78" height="65" viewBox="0 0 78 65" fill="none" xmlns="http://www.w3.org/2000/svg">
<path d="M28.7061 11.4414H15.5645V41.2765H28.7061V11.4414Z" stroke="white" stroke-width="1.5" stroke-miterlimit="10" stroke-linecap="round" stroke-linejoin="round"/>
<path d="M56.5286 4.21885V48.0244C56.5286 50.0371 54.1608 50.9842 52.74 49.5635C52.1481 48.8531 51.4377 48.2612 50.609 47.5508C42.3214 40.4472 32.4948 39.7368 28.7062 39.7368V13.0983C33.4419 12.6248 42.3214 11.0857 50.4906 4.69242C51.3193 3.98206 52.1481 3.39009 52.8584 2.67973C54.1608 1.25901 56.5286 2.20616 56.5286 4.21885Z" stroke="white" stroke-width="1.5" stroke-miterlimit="10" stroke-linecap="round" stroke-linejoin="round"/>
<path d="M66 26.3592C66 31.5685 61.7378 35.8306 56.5285 35.8306V16.8877C61.7378 16.8877 66 21.1499 66 26.3592Z" stroke="white" stroke-width="1.5" stroke-miterlimit="10" stroke-linecap="round" stroke-linejoin="round"/>
<path d="M26 42H18V58H26V42Z" stroke="white" stroke-width="1.5" stroke-miterlimit="10" stroke-linecap="round" stroke-linejoin="round"/>
<path d="M15.5645 17.4795H10V37.3696H15.5645V17.4795Z" stroke="white" stroke-width="1.5" stroke-miterlimit="10" stroke-linecap="round" stroke-linejoin="round"/>
</svg>
