<svg width="78" height="65" viewBox="0 0 78 65" fill="none" xmlns="http://www.w3.org/2000/svg">
<path d="M49.5475 29.6046L51.6491 31.5524L61.5933 20.6343L59.4917 18.6865L58.364 19.9167L50.6752 28.3744L49.5475 29.6046Z" stroke="white" stroke-width="1.5" stroke-miterlimit="10" stroke-linecap="round" stroke-linejoin="round"/>
<path d="M38.7321 13.4049L42.3715 9.35547L38.7321 13.4049Z" stroke="white" stroke-width="1.5" stroke-miterlimit="10" stroke-linecap="round" stroke-linejoin="round"/>
<path d="M34.1189 9.40877L38.6296 13.5094L38.7321 13.4069L42.3715 9.35751L37.912 5.25684L34.1189 9.40877Z" stroke="white" stroke-width="1.5" stroke-miterlimit="10" stroke-linecap="round" stroke-linejoin="round"/>
<path d="M36.6493 1.99952L38.9622 4.10352L33.0986 10.5492L30.7857 8.44521L36.6493 1.99952Z" stroke="white" stroke-width="1.5" stroke-miterlimit="10" stroke-linecap="round" stroke-linejoin="round"/>
<path d="M36.6817 15.6588L40.2698 18.9393L45.0368 23.2451L50.6753 28.3709L58.364 19.9133L44.3192 7.20117L42.3714 9.35402L38.732 13.4034L38.6295 13.506L36.6817 15.6588Z" stroke="white" stroke-width="1.5" stroke-miterlimit="10" stroke-linecap="round" stroke-linejoin="round"/>
<path d="M30.7869 44.1088C31.2482 44.1088 31.7096 44.16 32.1709 44.2626C32.5297 42.4173 33.0423 40.4694 33.8112 38.4191C32.7347 37.9578 31.9659 36.8813 31.9659 35.5999C31.9659 33.9084 33.3498 32.5244 35.0414 32.5244C35.5539 32.5244 36.0665 32.6269 36.4766 32.8832C39.1933 28.475 42.3713 25.3482 45.0367 23.2466L40.2697 18.8896C37.143 21.2475 32.786 25.2457 29.5054 31.3967C25.7636 38.4191 25.0972 45.0827 25.0972 49.4397C25.1485 48.0044 25.8148 46.6717 26.7375 45.749C27.8139 44.7239 29.2492 44.1088 30.7869 44.1088Z" stroke="white" stroke-width="1.5" stroke-miterlimit="10" stroke-linecap="round" stroke-linejoin="round"/>
<path d="M17.5111 56.9231V57.9995H56.775V56.9231C56.775 53.7963 54.2634 51.2334 51.0853 51.2334H23.1495C20.0228 51.2334 17.5111 53.7963 17.5111 56.9231Z" stroke="white" stroke-width="1.5" stroke-miterlimit="10" stroke-linecap="round" stroke-linejoin="round"/>
<path d="M25.1486 49.4905V49.593C25.1486 50.2082 25.1486 50.772 25.1998 51.2333H36.4767V49.7468C36.4767 47.0814 34.6314 44.8773 32.171 44.2622C31.7609 44.1597 31.2483 44.1084 30.787 44.1084C29.198 44.1084 27.814 44.7235 26.7888 45.7487C25.8149 46.7226 25.1998 48.004 25.1486 49.4905Z" stroke="white" stroke-width="1.5" stroke-miterlimit="10" stroke-linecap="round" stroke-linejoin="round"/>
<path d="M25.1487 49.7456V51.2321H25.2C25.1487 50.7195 25.1487 50.1556 25.1487 49.5918C25.1487 49.6431 25.1487 49.6943 25.1487 49.7456Z" stroke="white" stroke-width="1.5" stroke-miterlimit="10" stroke-linecap="round" stroke-linejoin="round"/>
<path d="M31.966 35.5989C31.966 36.8804 32.7348 37.9568 33.8113 38.4182C34.2213 38.5719 34.6314 38.6744 35.0927 38.6744C36.7842 38.6744 38.2195 37.2905 38.2195 35.5989C38.2195 34.42 37.5531 33.3948 36.5792 32.8822C36.1691 32.626 35.6566 32.5234 35.144 32.5234C33.3499 32.5234 31.966 33.9074 31.966 35.5989Z" stroke="white" stroke-width="1.5" stroke-miterlimit="10" stroke-linecap="round" stroke-linejoin="round"/>
</svg>
