<svg width="78" height="65" viewBox="0 0 78 65" fill="none" xmlns="http://www.w3.org/2000/svg">
<path d="M17.4513 58H14.975C13.2865 58 11.9358 56.6493 11.9358 54.9608V35.8253C11.9358 34.1369 13.2865 32.7861 14.975 32.7861H17.5639C19.2523 32.7861 20.6031 34.1369 20.6031 35.8253V55.0734C20.4905 56.6492 19.1398 58 17.4513 58Z" stroke="white" stroke-width="1.5" stroke-miterlimit="10" stroke-linecap="round" stroke-linejoin="round"/>
<path d="M20.4904 34.4736H24.9928C26.1184 34.4736 27.2441 34.8113 28.2571 35.3741L30.846 36.95C31.8591 37.5128 32.9847 37.8505 34.1103 37.8505H37.7123C40.6389 37.8505 42.8902 40.2143 42.8902 43.0283V45.2796H35.1234L31.0712 47.1931L35.1234 45.2796H45.9293L62.8136 39.0887C64.2769 38.5259 65.8528 39.2012 66.4156 40.552C67.091 41.9027 66.6407 43.4786 65.29 44.2665L48.5183 55.0725C47.1675 55.973 45.5917 56.4232 43.9032 56.4232H20.4904" stroke="white" stroke-width="1.5" stroke-miterlimit="10" stroke-linecap="round" stroke-linejoin="round"/>
<path d="M61.6882 22.2049C61.6882 29.8591 55.4973 36.1625 47.7305 36.1625C39.9637 36.1625 33.7728 29.9716 33.7728 22.2049C33.7728 15.9014 43.1155 5.88338 46.4923 2.50653C47.1677 1.83116 48.1807 1.83116 48.8561 2.50653C52.3455 5.99595 61.6882 16.014 61.6882 22.2049Z" stroke="white" stroke-width="1.5" stroke-miterlimit="10" stroke-linecap="round" stroke-linejoin="round"/>
<path d="M55.3847 20.6293H49.6441V14.8887H45.8169V20.6293H40.0763V24.4564H45.8169V30.1971H49.6441V24.4564H55.3847V20.6293Z" stroke="white" stroke-width="1.5" stroke-miterlimit="10" stroke-linecap="round" stroke-linejoin="round"/>
</svg>
