<svg width="78" height="65" viewBox="0 0 78 65" fill="none" xmlns="http://www.w3.org/2000/svg">
<path d="M33.6399 23.4263C39.5566 23.4263 44.3531 18.6299 44.3531 12.7132C44.3531 6.79645 39.5566 2 33.6399 2C27.7232 2 22.9268 6.79645 22.9268 12.7132C22.9268 18.6299 27.7232 23.4263 33.6399 23.4263Z" stroke="white" stroke-width="1.5" stroke-miterlimit="10" stroke-linecap="round" stroke-linejoin="round"/>
<path d="M25.1178 50.2092H11.4829C11.4829 44.8526 13.4308 40.2265 16.3525 36.3308C20.4917 31.4611 26.5787 28.2959 33.3962 28.2959C37.2919 28.2959 41.1876 29.2698 44.3528 31.2177" stroke="white" stroke-width="1.5" stroke-miterlimit="10" stroke-linecap="round" stroke-linejoin="round"/>
<path d="M49.466 34.8711L34.1267 50.2104" stroke="white" stroke-width="1.5" stroke-miterlimit="10" stroke-linecap="round" stroke-linejoin="round"/>
<path d="M55.7965 50.2084H46.5442L54.3356 42.417C55.3095 44.8518 55.7965 47.2866 55.7965 50.2084Z" stroke="white" stroke-width="1.5" stroke-miterlimit="10" stroke-linecap="round" stroke-linejoin="round"/>
<path d="M34.1265 50.2086L55.0658 29.5127L61.1529 35.5997L54.3354 42.4172L46.544 50.2086L38.5091 58H32.4221V51.9129L34.1265 50.2086Z" stroke="white" stroke-width="1.5" stroke-miterlimit="10" stroke-linecap="round" stroke-linejoin="round"/>
<path d="M67.0985 29.394L61.0728 23.3682L57.4573 26.9836L63.4831 33.0094L67.0985 29.394Z" stroke="white" stroke-width="1.5" stroke-miterlimit="10" stroke-linecap="round" stroke-linejoin="round"/>
</svg>
