<svg width="78" height="65" viewBox="0 0 78 65" fill="none" xmlns="http://www.w3.org/2000/svg">
<path d="M43.5196 13.4549L19.0408 37.6377L27.8813 46.5863L52.36 22.4035L43.5196 13.4549Z" stroke="white" stroke-width="1.5" stroke-miterlimit="10"/>
<path d="M13.928 38.312L27.1602 51.7061L30.0468 48.8543L16.8147 35.4603L13.928 38.312Z" stroke="white" stroke-width="1.5" stroke-miterlimit="10"/>
<path d="M13.0021 48.0428L17.3938 52.4883L22.763 47.184L18.3713 42.7386L13.0021 48.0428Z" stroke="white" stroke-width="1.5" stroke-miterlimit="10"/>
<path d="M7.567 49.4096L16.0082 57.9541L19.4144 54.589L10.9732 46.0446L7.567 49.4096Z" stroke="white" stroke-width="1.5" stroke-miterlimit="10"/>
<path d="M50.0825 11.7395L54.3837 11.5771L54.2213 15.8783L50.0013 20.0172L45.8625 15.8783L50.0825 11.7395Z" stroke="white" stroke-width="1.5" stroke-miterlimit="10"/>
<path d="M54.3838 11.5762L64.1223 2" stroke="white" stroke-width="1.5" stroke-miterlimit="10"/>
<path d="M31.3361 42.8204L26.548 37.9512" stroke="white" stroke-width="1.5" stroke-miterlimit="10"/>
<path d="M35.7994 38.4383L32.7967 35.3545" stroke="white" stroke-width="1.5" stroke-miterlimit="10"/>
<path d="M40.1815 34.0548L35.3934 29.1855" stroke="white" stroke-width="1.5" stroke-miterlimit="10"/>
<path d="M44.6452 29.6737L41.6425 26.5898" stroke="white" stroke-width="1.5" stroke-miterlimit="10"/>
<path d="M49.1087 25.2911L44.3206 20.4219" stroke="white" stroke-width="1.5" stroke-miterlimit="10"/>
<path d="M71.0202 10.6024C71.0202 12.1443 69.8029 13.3617 68.261 13.3617C66.7191 13.3617 65.5018 12.1443 65.5018 10.6024C65.5018 9.0605 68.261 6.70703 68.261 6.70703C68.261 6.70703 71.0202 9.0605 71.0202 10.6024Z" stroke="white" stroke-width="1.5" stroke-miterlimit="10"/>
</svg>
