<svg width="78" height="65" viewBox="0 0 78 65" fill="none" xmlns="http://www.w3.org/2000/svg">
<path d="M16.4541 2.38281L24.2902 10.219L8.42677 26.0824L0.781738 18.6285L16.4541 2.38281Z" stroke="white" stroke-width="1.5" stroke-miterlimit="10" stroke-linecap="round" stroke-linejoin="round"/>
<path d="M73.2184 17.6723L65.3822 25.5085L49.3276 9.64503L56.9727 2L73.2184 17.6723Z" stroke="white" stroke-width="1.5" stroke-miterlimit="10" stroke-linecap="round" stroke-linejoin="round"/>
<path d="M31.9353 52.2661L37.0957 57.4265C37.8602 58.191 39.007 58.191 39.5803 57.4265L42.2561 54.9419C43.0206 54.1774 43.0206 53.0306 42.2561 52.4572L36.9046 46.9146L43.4028 53.7951C44.1674 54.5596 45.3141 54.5596 46.0786 53.7951L47.9899 51.5016C48.5632 50.7371 48.5632 49.7815 47.9899 49.017L41.1093 41.7542L48.7544 49.5903C49.5189 50.3548 50.6656 50.3548 51.4301 49.5903L53.9148 47.1057C54.6793 46.3412 54.6793 45.1945 53.9148 44.43L51.0479 41.5631L54.6793 45.0033C55.4438 45.7678 56.5905 45.5767 57.1639 45.0033L59.6485 42.5187C60.413 41.7542 60.413 40.6074 59.6485 40.0341L43.7851 23.9795" stroke="white" stroke-width="1.5" stroke-miterlimit="10" stroke-linecap="round" stroke-linejoin="round"/>
<path d="M48.7545 23.0232C48.7545 23.0232 40.1538 24.3611 34.0378 21.3031C34.0378 21.3031 27.5395 28.9481 22.188 23.2143C22.188 23.2143 27.5395 18.8184 29.6419 13.4669L46.0787 14.2314L50.0923 10.2178L64.6179 24.7433L59.0753 29.9037L55.635 36.2109" stroke="white" stroke-width="1.5" stroke-miterlimit="10" stroke-linecap="round" stroke-linejoin="round"/>
<path d="M13.396 40.6067L11.4848 38.6954C10.7203 37.9309 10.7203 36.7841 11.4848 36.0196L14.1605 33.3439C14.925 32.5794 16.0718 32.5794 16.8363 33.3439L18.7475 35.2551C19.512 36.0196 19.512 37.1664 18.7475 37.9309L16.0718 40.6067C15.3073 41.3712 13.9694 41.3712 13.396 40.6067Z" stroke="white" stroke-width="1.5" stroke-miterlimit="10" stroke-linecap="round" stroke-linejoin="round"/>
<path d="M17.4094 45.7675L15.4982 43.8562C14.7337 43.0917 14.7337 41.945 15.4982 41.1805L19.7029 36.9757C20.4675 36.2112 21.6142 36.2112 22.3787 36.9757L24.29 38.887C25.0545 39.6515 25.0545 40.7982 24.29 41.5627L20.0852 45.7675C19.3207 46.532 18.1739 46.532 17.4094 45.7675Z" stroke="white" stroke-width="1.5" stroke-miterlimit="10" stroke-linecap="round" stroke-linejoin="round"/>
<path d="M21.0408 51.3081L19.1295 49.3968C18.365 48.6323 18.365 47.4856 19.1295 46.7211L25.6278 40.2228C26.3923 39.4583 27.5391 39.4583 28.3036 40.2228L30.2148 42.134C30.9793 42.8986 30.9793 44.0453 30.2148 44.8098L23.7165 51.3081C22.952 51.8815 21.8053 51.8815 21.0408 51.3081Z" stroke="white" stroke-width="1.5" stroke-miterlimit="10" stroke-linecap="round" stroke-linejoin="round"/>
<path d="M27.157 54.368L25.2457 52.4567C24.4812 51.6922 24.4812 50.5454 25.2457 49.7809L28.8771 46.1495C29.6416 45.385 30.7884 45.385 31.5529 46.1495L33.4642 48.0608C34.2287 48.8253 34.2287 49.9721 33.4642 50.7366L29.8328 54.368C29.0683 55.1325 27.9215 55.1325 27.157 54.368Z" stroke="white" stroke-width="1.5" stroke-miterlimit="10" stroke-linecap="round" stroke-linejoin="round"/>
<path d="M12.4404 29.5225L15.3073 32.3893" stroke="white" stroke-width="1.5" stroke-miterlimit="10" stroke-linecap="round" stroke-linejoin="round"/>
<path d="M23.3345 11.1738L28.4949 16.1431" stroke="white" stroke-width="1.5" stroke-miterlimit="10" stroke-linecap="round" stroke-linejoin="round"/>
<path d="M7.66245 19.5847C8.08468 19.5847 8.42696 19.2424 8.42696 18.8202C8.42696 18.3979 8.08468 18.0557 7.66245 18.0557C7.24023 18.0557 6.89795 18.3979 6.89795 18.8202C6.89795 19.2424 7.24023 19.5847 7.66245 19.5847Z" stroke="white" stroke-width="1.5" stroke-miterlimit="10" stroke-linecap="round" stroke-linejoin="round"/>
<path d="M46.2698 37.168L47.7988 38.697" stroke="white" stroke-width="1.5" stroke-miterlimit="10" stroke-linecap="round" stroke-linejoin="round"/>
</svg>
