<svg width="52" height="51" viewBox="0 0 52 51" fill="none" xmlns="http://www.w3.org/2000/svg">
<path d="M20.5441 1.50195V6.89366C20.5441 6.89366 14.0612 8.36996 12.5207 9.78207C10.9802 11.1942 7.83509 11.8361 5.84529 14.6603C3.85549 17.4845 3.79131 23.0046 4.17643 24.0316C4.17643 24.0316 0.646145 28.2037 2.25082 35.5852C1.41639 40.3351 1.3522 40.2067 1.03127 42.0681C0.710332 43.9295 2.95688 49.578 3.342 49.8347" stroke="#259B97" stroke-width="2" stroke-miterlimit="10" stroke-linecap="round" stroke-linejoin="round"/>
<path d="M10.7877 49.835C10.7877 49.835 9.11888 44.1223 8.22026 42.9669C7.32164 41.8758 11.8789 33.2105 11.3654 27.5621C10.8519 21.9136 9.18307 21.3359 9.18307 21.3359" stroke="#259B97" stroke-width="2" stroke-miterlimit="10" stroke-linecap="round" stroke-linejoin="round"/>
<path d="M14.1897 49.8341C14.1897 49.8341 17.8483 36.4191 11.3013 30.3213" stroke="#259B97" stroke-width="2" stroke-miterlimit="10" stroke-linecap="round" stroke-linejoin="round"/>
<path d="M31.4561 1.50195V6.89366C31.4561 6.89366 37.9389 8.36996 39.4794 9.78207C41.0199 11.1942 44.1651 11.8361 46.1549 14.7245C48.1447 17.6129 48.1447 23.0688 47.8237 24.0958C47.8237 24.0958 51.354 28.2679 49.7493 35.6494C50.5838 40.3993 50.648 40.2709 50.9689 42.1323C51.2898 43.9937 49.0433 49.6422 48.6582 49.8989" stroke="#259B97" stroke-width="2" stroke-miterlimit="10" stroke-linecap="round" stroke-linejoin="round"/>
<path d="M41.2124 49.835C41.2124 49.835 42.8813 44.1223 43.7799 42.9669C44.6785 41.8758 40.1212 33.2105 40.6347 27.5621C41.1482 21.9136 42.8171 21.3359 42.8171 21.3359" stroke="#259B97" stroke-width="2" stroke-miterlimit="10" stroke-linecap="round" stroke-linejoin="round"/>
<path d="M37.8746 49.8341C37.8746 49.8341 34.2159 36.4191 40.763 30.3213" stroke="#259B97" stroke-width="2" stroke-miterlimit="10" stroke-linecap="round" stroke-linejoin="round"/>
<path d="M16.3721 12.4775L24.1387 14.9808" stroke="#259B97" stroke-width="2" stroke-miterlimit="10" stroke-linecap="round" stroke-linejoin="round"/>
<path d="M35.6922 12.4775L27.9897 14.9808" stroke="#259B97" stroke-width="2" stroke-miterlimit="10" stroke-linecap="round" stroke-linejoin="round"/>
<path d="M26.1284 18.4473V29.0381" stroke="#259B97" stroke-width="2" stroke-miterlimit="10" stroke-linecap="round" stroke-linejoin="round"/>
<path d="M17.2705 32.5042C17.9766 31.8623 21.1859 29.0381 26.1283 29.0381C31.0707 29.0381 34.2801 31.8623 34.9861 32.5042" stroke="#259B97" stroke-width="2" stroke-miterlimit="10" stroke-linecap="round" stroke-linejoin="round"/>
<path d="M14.3821 20.437C14.8075 20.437 15.1523 20.0921 15.1523 19.6667C15.1523 19.2413 14.8075 18.8965 14.3821 18.8965C13.9567 18.8965 13.6118 19.2413 13.6118 19.6667C13.6118 20.0921 13.9567 20.437 14.3821 20.437Z" stroke="#259B97" stroke-width="2" stroke-miterlimit="10" stroke-linecap="round" stroke-linejoin="round"/>
<path d="M21.1858 23.7105C21.5403 23.7105 21.8277 23.4231 21.8277 23.0686C21.8277 22.7141 21.5403 22.4268 21.1858 22.4268C20.8313 22.4268 20.5439 22.7141 20.5439 23.0686C20.5439 23.4231 20.8313 23.7105 21.1858 23.7105Z" stroke="#259B97" stroke-width="2" stroke-miterlimit="10" stroke-linecap="round" stroke-linejoin="round"/>
<path d="M20.2871 41.6825C20.7479 41.6825 21.1215 41.3089 21.1215 40.8481C21.1215 40.3873 20.7479 40.0137 20.2871 40.0137C19.8262 40.0137 19.4526 40.3873 19.4526 40.8481C19.4526 41.3089 19.8262 41.6825 20.2871 41.6825Z" stroke="#259B97" stroke-width="2" stroke-miterlimit="10" stroke-linecap="round" stroke-linejoin="round"/>
<path d="M26.8344 34.6689C27.2953 34.6689 27.6689 34.2953 27.6689 33.8344C27.6689 33.3736 27.2953 33 26.8344 33C26.3736 33 26 33.3736 26 33.8344C26 34.2953 26.3736 34.6689 26.8344 34.6689Z" stroke="#259B97" stroke-width="2" stroke-miterlimit="10" stroke-linecap="round" stroke-linejoin="round"/>
<path d="M37.8344 20.6689C38.2953 20.6689 38.6689 20.2953 38.6689 19.8344C38.6689 19.3736 38.2953 19 37.8344 19C37.3736 19 37 19.3736 37 19.8344C37 20.2953 37.3736 20.6689 37.8344 20.6689Z" stroke="#259B97" stroke-width="2" stroke-miterlimit="10" stroke-linecap="round" stroke-linejoin="round"/>
<path d="M29.8344 46.6689C30.2953 46.6689 30.6689 46.2953 30.6689 45.8344C30.6689 45.3736 30.2953 45 29.8344 45C29.3736 45 29 45.3736 29 45.8344C29 46.2953 29.3736 46.6689 29.8344 46.6689Z" stroke="#259B97" stroke-width="2" stroke-miterlimit="10" stroke-linecap="round" stroke-linejoin="round"/>
<path d="M32.8344 25.6689C33.2953 25.6689 33.6689 25.2953 33.6689 24.8344C33.6689 24.3736 33.2953 24 32.8344 24C32.3736 24 32 24.3736 32 24.8344C32 25.2953 32.3736 25.6689 32.8344 25.6689Z" stroke="#259B97" stroke-width="2" stroke-miterlimit="10" stroke-linecap="round" stroke-linejoin="round"/>
</svg>
