<svg width="43" height="55" viewBox="0 0 43 55" fill="none" xmlns="http://www.w3.org/2000/svg">
<path d="M27.2051 1C27.2051 1 37.3593 2.73365 36.7814 15.9424C36.7814 15.9424 33.8094 23.9502 40.9917 30.1417C42.4777 32.9486 37.8546 32.866 36.6988 33.0312C35.5431 33.1963 35.7082 35.9206 36.3686 37.2414C37.4418 39.2227 29.5166 39.8006 29.5166 39.8006" stroke="#259B97" stroke-width="2" stroke-miterlimit="10" stroke-linecap="round" stroke-linejoin="round"/>
<path d="M13.0059 53.9995C13.0059 53.9995 17.6289 47.3952 21.0962 47.5603C24.5635 47.7254 28.1959 51.0276 30.7551 48.5509C33.3143 46.0743 31.333 42.5245 33.727 41.864C36.0386 41.2036 34.7177 38.9746 34.7177 38.9746" stroke="#259B97" stroke-width="2" stroke-miterlimit="10" stroke-linecap="round" stroke-linejoin="round"/>
<path d="M13.3361 34.8469C13.3361 34.8469 12.8408 32.3703 13.0059 30.8843C13.0059 30.8843 5.08066 31.2971 8.87817 21.5557" stroke="#259B97" stroke-width="2" stroke-miterlimit="10" stroke-linecap="round" stroke-linejoin="round"/>
<path d="M8.38274 28.4903C8.38274 28.4903 1.44816 30.0588 3.59458 22.1336C1.86094 21.6382 0.787728 19.9046 1.03539 18.1709C1.28306 16.6024 2.60393 15.3641 4.25502 15.199C4.25502 15.0339 3.84225 13.1351 5.32823 11.6491C6.89676 10.0806 9.04318 10.6585 9.12573 10.6585C9.53851 8.92484 11.0245 7.68652 12.5105 7.68652C14.4092 7.68652 16.1429 9.66783 15.8127 11.9794" stroke="#259B97" stroke-width="2" stroke-miterlimit="10" stroke-linecap="round" stroke-linejoin="round"/>
<path d="M16.638 34.2692C16.638 34.2692 15.6474 29.481 22.3343 28.1602C25.9667 27.7474 25.1412 24.5278 25.1412 24.5278C27.1225 24.9405 29.1863 24.1976 30.3421 22.7116C31.7455 20.8954 31.7455 18.1711 30.2595 16.1898C31.2502 14.7038 31.2502 12.7225 30.177 11.3191C29.1863 10.0807 27.5352 9.50285 25.9667 9.83307C25.6365 8.67731 24.6458 7.85176 23.4901 7.76921C22.0041 7.6041 21.0134 8.84242 20.9309 8.92497C20.1879 7.68665 18.7845 6.94366 17.381 7.10877C15.7299 7.27388 14.7393 8.59475 14.6567 8.75986" stroke="#259B97" stroke-width="2" stroke-miterlimit="10" stroke-linecap="round" stroke-linejoin="round"/>
<path d="M20.5182 19.4925C21.3389 19.4925 22.0042 18.8272 22.0042 18.0065C22.0042 17.1858 21.3389 16.5205 20.5182 16.5205C19.6975 16.5205 19.0322 17.1858 19.0322 18.0065C19.0322 18.8272 19.6975 19.4925 20.5182 19.4925Z" stroke="#259B97" stroke-width="2" stroke-miterlimit="10" stroke-linecap="round" stroke-linejoin="round"/>
<path d="M20.0229 12.1445C20.5183 12.1445 22.5821 12.2271 24.2332 13.8782C26.0494 15.6118 26.132 17.9233 26.132 18.3361" stroke="#259B97" stroke-width="2" stroke-miterlimit="10" stroke-linecap="round" stroke-linejoin="round"/>
<path d="M14.9873 17.5928C14.9873 18.0881 15.0699 20.152 16.7209 21.8031C18.4546 23.6193 20.7661 23.7018 21.1789 23.7018" stroke="#259B97" stroke-width="2" stroke-miterlimit="10" stroke-linecap="round" stroke-linejoin="round"/>
<path d="M7.30957 15.2822L9.53854 17.0159" stroke="#259B97" stroke-width="2" stroke-miterlimit="10" stroke-linecap="round" stroke-linejoin="round"/>
<path d="M8.79541 18.8312C8.79541 18.5835 8.87796 17.758 9.45585 17.0976C9.95117 16.4371 10.6116 16.272 10.8593 16.1895" stroke="#259B97" stroke-width="2" stroke-miterlimit="10" stroke-linecap="round" stroke-linejoin="round"/>
</svg>
