<svg width="63" height="105" viewBox="0 0 63 105" fill="none" xmlns="http://www.w3.org/2000/svg">
<g opacity="0.5">
<mask id="mask0_1160:1722" style="mask-type:alpha" maskUnits="userSpaceOnUse" x="0" y="0" width="63" height="105">
<rect width="62.2367" height="104.156" fill="#62629B"/>
</mask>
<g mask="url(#mask0_1160:1722)">
<g opacity="0.7">
<path d="M47.5171 57.0918C47.467 57.0918 47.467 57.1419 47.417 57.1419L47.5171 57.0918ZM47.5171 57.0918C47.467 57.0918 47.467 57.1419 47.417 57.1419L47.5171 57.0918Z" fill="#62629B"/>
<path d="M45.1921 56.7279C47.2166 56.7279 48.8578 55.0867 48.8578 53.0622C48.8578 51.0377 47.2166 49.3965 45.1921 49.3965C43.1676 49.3965 41.5264 51.0377 41.5264 53.0622C41.5264 55.0867 43.1676 56.7279 45.1921 56.7279Z" fill="#62629B"/>
<path fill-rule="evenodd" clip-rule="evenodd" d="M57.3368 61.0995L57.5811 61.1483C58.1676 61.2461 58.803 61.3438 59.3894 61.3438C60.8068 63.592 61.491 66.28 61.2955 68.968C61.1977 70.2388 61.1 71.4606 60.9045 72.6824L60.8997 72.7157L60.9538 72.7314C66.4765 74.2954 71.4616 74.7352 75.1271 74.7352C79.0858 74.7352 81.5295 74.2465 81.5295 74.2465C81.5295 74.2465 78.5482 65.3516 69.8977 57.0431L69.8969 57.0424C68.9685 57.7754 68.04 58.4596 67.0138 59.1437C64.9122 60.561 62.4685 61.343 59.9271 61.343H59.4384C58.8031 61.343 58.1677 61.2453 57.5812 61.1475L57.3369 61.0986C56.3594 60.9031 55.4797 60.7565 54.6977 60.7565C54.3067 60.7565 54.0135 60.8054 53.7202 60.8543C53.1625 61.0259 52.6425 61.2351 52.1931 61.4159L52.0097 61.4896C51.3792 61.7261 50.9393 61.9625 50.6901 62.0965C50.6302 62.1286 50.5813 62.1549 50.5435 62.1738C50.519 62.1738 50.5068 62.1861 50.4946 62.1983C50.4824 62.2105 50.4702 62.2227 50.4457 62.2227C50.4155 62.2529 50.3853 62.2645 50.3436 62.2804L50.3435 62.2804L50.3433 62.2805C50.3176 62.2903 50.2874 62.3019 50.2502 62.3205C50.1903 62.3654 50.1029 62.4241 49.9908 62.4993L49.9902 62.4997L49.99 62.4998L49.9899 62.4999L49.9898 62.5C49.7359 62.6704 49.3558 62.9255 48.8818 63.2979L48.8817 63.298L48.8821 63.2989C49.2397 64.0537 49.5003 64.8085 49.7429 65.5108L49.743 65.5112C49.7988 65.6728 49.8536 65.8316 49.9085 65.9869C50.495 67.6486 51.7168 69.0171 53.2807 69.799C53.965 70.0923 54.6003 70.3855 55.2357 70.6788L55.2818 70.6983L55.2841 70.6786C55.3818 69.9944 55.4307 69.3102 55.4796 68.5771C55.5773 66.8176 55.0397 65.0582 53.8668 63.7386C53.2314 63.0544 52.5961 62.3213 52.0096 61.4904L52.193 61.4168L52.1931 61.4167C52.6425 61.2359 53.1625 61.0267 53.7201 60.8551L53.7202 60.8551C54.0134 60.8062 54.3066 60.7573 54.6976 60.7573C55.4796 60.7573 56.3593 60.904 57.3368 61.0995ZM54.2089 76.6412C53.2961 76.284 52.3833 75.8623 51.4444 75.4285L51.4437 75.4282C51.2267 75.328 51.0083 75.2271 50.7882 75.1262C48.3934 73.9533 46.4385 72.0472 45.2166 69.7502C45.1962 69.7152 45.1762 69.68 45.1564 69.6446C45.1282 69.6961 45.0993 69.7473 45.0697 69.7981C43.8478 72.0951 41.8929 74.0012 39.4981 75.1741C39.279 75.2746 39.0616 75.375 38.8456 75.4748L38.8427 75.4761C37.9528 75.8872 37.0865 76.2874 36.2214 76.6322L36.2235 76.6412C39.0582 88.1752 45.2162 95.213 45.2162 95.213C45.2162 95.213 51.3253 88.1752 54.2089 76.6412ZM35.1457 70.6603C35.7333 70.3892 36.3241 70.118 36.9567 69.8469C38.5206 69.065 39.7425 67.6965 40.329 66.0348C40.3836 65.8801 40.4382 65.722 40.4938 65.5611L40.4944 65.5591L40.4946 65.5587L40.4946 65.5587C40.7371 64.8564 40.9978 64.1016 41.3553 63.3468C41.3699 63.3132 41.3847 63.2797 41.3996 63.2461C40.9128 62.8567 40.4746 62.5163 40.0849 62.3214C40.0476 62.3028 40.0174 62.2912 39.9916 62.2814C39.9499 62.2654 39.9197 62.2539 39.8895 62.2237C39.8406 62.1748 39.7429 62.126 39.6451 62.0771L39.6451 62.0771C39.3306 61.8974 38.9336 61.7177 38.416 61.5C37.9665 62.1355 37.4601 62.7137 36.9846 63.2568L36.9846 63.2569C36.8413 63.4204 36.7009 63.5808 36.5656 63.7386C35.3927 65.0582 34.8062 66.8176 34.9528 68.5771L34.9619 68.7054C35.0075 69.3462 35.0557 70.0239 35.1457 70.6603ZM30.8474 61.344C29.4301 63.5921 28.7459 66.2801 28.9414 68.968C29.0391 70.2388 29.1858 71.5095 29.3324 72.6824L29.3477 72.7891C23.8388 74.3936 18.9152 74.783 15.2085 74.783C11.2497 74.783 8.80605 74.2942 8.80605 74.2942C8.80605 74.2942 11.7873 65.3504 20.4379 57.0908L20.4431 57.0858C21.3537 57.8028 22.2661 58.4737 23.2725 59.1447C25.3741 60.562 27.8178 61.344 30.3592 61.344H30.8474ZM49.7614 52.4836C49.7427 52.556 49.6058 52.6007 49.4599 52.6484C49.2789 52.7076 49.084 52.7713 49.084 52.8979C49.084 52.9911 49.249 53.1264 49.4164 53.2637C49.5775 53.3959 49.7408 53.5298 49.7614 53.6298V53.6691M34.4635 51.3701L34.4641 51.3737C34.5618 51.9113 34.6107 52.4489 34.6107 52.8887V53.182V53.3286C34.6107 53.6697 34.5621 54.2051 34.465 54.8379L34.4156 54.8438C33.6255 54.9191 32.8643 55.0523 32.1544 55.1765H32.1544L32.1542 55.1765C31.9421 55.2136 31.7345 55.25 31.5321 55.2837C31.1412 55.3814 30.7013 55.3814 30.3103 55.3814H30.3103C28.9907 55.3814 27.6711 54.9904 26.5959 54.2085L25.132 53.1438L26.6937 52.008C27.8178 51.226 29.0885 50.8351 30.408 50.8351C30.799 50.8351 31.2389 50.8839 31.6299 50.9328C31.8746 50.9736 32.1269 51.0219 32.3856 51.0715L32.3859 51.0716L32.3861 51.0716C33.0424 51.1974 33.7406 51.3312 34.4635 51.3701ZM38.47 44.7735C38.9851 44.5875 39.3805 44.3674 39.694 44.1883C39.7917 44.1394 39.8895 44.0905 39.9383 44.0417C39.9628 44.0172 39.9872 44.005 40.0116 43.9928C40.0361 43.9806 40.0605 43.9684 40.0849 43.9439C40.4271 43.7484 40.9158 43.4063 41.3556 43.0153L41.403 42.9773L41.3821 42.9302L41.3557 42.8699C40.9981 42.1151 40.7374 41.3603 40.4949 40.6579L40.4949 40.6579L40.4948 40.6575C40.439 40.496 40.3841 40.3372 40.3293 40.1818C39.7428 38.5202 38.521 37.1517 36.9571 36.3697C36.3431 36.1066 35.7686 35.8435 35.198 35.5804L35.1972 35.5876C35.0994 36.2718 35.0506 36.9561 35.0017 37.6892C34.9039 39.4486 35.4415 41.208 36.6145 42.5276C36.7497 42.6854 36.8902 42.8458 37.0334 43.0093L37.0336 43.0095C37.5109 43.5546 38.0192 44.1352 38.47 44.7735ZM29.3439 33.4547L29.3324 33.5349C29.1369 34.7568 29.0391 35.9786 28.9414 37.2493C28.7459 39.9373 29.4301 42.6254 30.8475 44.8735L30.878 44.9214H30.408C27.8666 44.9214 25.423 45.7034 23.3214 47.1207C22.588 47.6096 21.9045 48.1235 21.2352 48.6267C20.9691 48.8268 20.7052 49.0252 20.4413 49.2197L20.3401 49.1257C11.6896 40.8172 8.70831 31.9223 8.70831 31.9223C8.70831 31.9223 11.152 31.4335 15.1107 31.4335C18.7762 31.4335 23.7613 31.8734 29.284 33.4373L29.3439 33.4547ZM30.5053 27.719C24.543 26.0086 19.1671 25.5687 15.1596 25.5687C11.1621 25.5687 8.45639 26.0128 7.73932 26.1304L7.73929 26.1304C7.66734 26.1422 7.61542 26.1508 7.58422 26.1552L0.986328 27.4748L3.13675 33.8772C3.28337 34.3659 6.65563 44.0428 15.9416 53.1333L15.9656 53.1564C7.12093 61.8258 3.69571 71.0205 3.23206 72.2652C3.20991 72.3246 3.19453 72.3659 3.18563 72.3882L0.986328 78.7906L7.63309 80.1101L7.69929 80.1216C8.22536 80.2135 10.9921 80.6966 15.2085 80.6966C19.1622 80.6966 24.5298 80.2579 30.5321 78.6013C33.6159 90.4228 39.7228 97.9105 40.5832 98.9654L40.5833 98.9655C40.6255 99.0172 40.655 99.0535 40.671 99.074L45.1184 104.157L49.5659 99.074C49.9078 98.6832 56.4986 91.0184 59.7262 78.5192L59.8298 78.5474C65.7923 80.2579 71.1684 80.6489 75.176 80.6489C79.1734 80.6489 81.8792 80.2049 82.5963 80.0872C82.6418 80.0798 82.6794 80.0736 82.7087 80.0689C82.7257 80.0663 82.7399 80.0641 82.7513 80.0624L89.3981 78.7429L87.1499 72.3893C87.0033 71.9006 83.631 62.2237 74.3451 53.1333L74.3444 53.1326L74.3448 53.1323C83.6307 44.0419 87.0029 34.3649 87.1496 33.8762L89.3 27.4738L82.6532 26.1054C82.622 26.1009 82.5701 26.0924 82.4981 26.0806C81.781 25.9629 79.0753 25.5189 75.0779 25.5189C71.0826 25.5189 65.7273 25.9075 59.7868 27.6047C56.698 15.818 50.6104 8.35404 49.7515 7.30087L49.7511 7.30042C49.7091 7.24885 49.6796 7.21271 49.6637 7.19224L45.1184 2.06055L40.671 7.14337C40.3289 7.53435 33.731 15.2075 30.5053 27.719L30.5053 27.719ZM36.2599 29.678C37.1285 30.0237 37.9984 30.4256 38.8919 30.8383C39.1089 30.9385 39.3273 31.0394 39.5473 31.1403C41.9421 32.3132 43.8971 34.2193 45.1189 36.5163L45.143 36.558L45.1678 36.5152C46.3896 34.2181 48.3445 32.3121 50.7393 31.1391C51.8634 30.6015 53.0364 30.0639 54.1604 29.6241L54.2486 29.588C51.4099 18.0759 45.2651 11.0532 45.2651 11.0532C45.2651 11.0532 39.1559 18.091 36.2724 29.6251L36.2599 29.678ZM60.9974 33.5497L61.0023 33.5838C61.1489 34.7568 61.2955 36.0275 61.3932 37.2982C61.5859 39.9472 60.9242 42.5962 59.5484 44.8243H59.9757C62.5171 44.8243 64.9607 45.6062 67.0623 47.0236C67.6022 47.4555 68.1272 47.8576 68.6455 48.2546L68.6456 48.2547L68.6465 48.2554C69.0381 48.5553 69.426 48.8523 69.8135 49.1571L69.8484 49.1247C78.499 40.8162 81.4802 31.9213 81.4802 31.9213C81.4802 31.9213 79.0366 31.4326 75.0779 31.4326C71.4393 31.4326 66.5006 31.866 61.0264 33.402L61.0516 33.5339L60.9974 33.5497ZM63.5926 54.2075L65.1622 53.066L63.6412 51.9598C62.5171 51.1778 61.2464 50.7868 59.9268 50.7868C59.5358 50.7868 59.0959 50.8357 58.705 50.8846C58.4602 50.9253 58.2078 50.9737 57.949 51.0233L57.9487 51.0234C57.2773 51.1521 56.5621 51.2891 55.8214 51.3244C55.4304 51.3733 55.0883 51.3733 54.6973 51.3733C53.8176 51.3733 52.889 51.2755 51.9604 50.9823C51.374 50.7868 50.8364 50.5913 50.3476 50.3958C50.2988 50.2981 50.2499 50.2125 50.201 50.127L50.2009 50.1269C50.1521 50.0414 50.1032 49.9559 50.0544 49.8582C49.1141 48.4008 47.4954 47.3956 45.6769 47.2342L45.6714 47.2387C47.4725 47.4119 49.0733 48.4127 50.0062 49.8588C50.0219 49.8901 50.0376 49.9203 50.0533 49.9495L50.0541 49.9335C50.0543 49.9287 50.0545 49.924 50.0545 49.9191C50.0546 49.9153 50.0546 49.9114 50.0546 49.9075C50.1035 50.0052 50.1524 50.0907 50.2013 50.1763L50.2013 50.1764C50.2502 50.2619 50.299 50.3474 50.3479 50.4451C50.8366 50.6406 51.3742 50.8361 51.9607 51.0316C52.8893 51.3248 53.8179 51.4225 54.6976 51.4225C55.0886 51.4225 55.4307 51.4225 55.8217 51.3737C55.7239 52.0579 55.6751 52.5955 55.6751 52.8399V52.9865V53.2797C55.6751 53.7196 55.7239 54.3061 55.8217 54.8437C55.5969 54.8116 55.351 54.8006 55.0979 54.7968C55.3338 54.8012 55.5626 54.8128 55.7729 54.8429C56.563 54.9181 57.3242 55.0513 58.0341 55.1755L58.0341 55.1755L58.0342 55.1755L58.0344 55.1755C58.2465 55.2127 58.4541 55.249 58.6564 55.2827C59.0474 55.3805 59.4873 55.3805 59.8783 55.3805C61.1978 55.3805 62.5174 54.9895 63.5926 54.2075ZM49.8406 40.8033C49.6065 41.4813 49.3555 42.2082 49.0168 42.9368C49.085 42.9902 49.1496 43.041 49.2109 43.0892C49.5021 43.3184 49.7194 43.4894 49.9078 43.6024L50.4454 43.9445C50.4698 43.9445 50.482 43.9568 50.4942 43.969C50.5065 43.9812 50.5187 43.9934 50.5431 43.9934H50.592C50.7386 44.0912 51.2273 44.3355 52.0582 44.6776C52.0768 44.6859 52.0956 44.6942 52.1147 44.7024C52.6827 43.9648 53.2495 43.3041 53.7802 42.6855L53.9156 42.5276C55.0886 41.1592 55.6751 39.4486 55.5285 37.6892L55.5193 37.5608C55.4733 36.9138 55.4246 36.2292 55.333 35.5876L55.3329 35.5868L55.326 35.5892L55.3334 35.6355C54.8456 35.8097 54.3826 36.0336 53.9268 36.254L53.9263 36.2543C53.7429 36.343 53.5607 36.4311 53.3785 36.5152C51.7657 37.2972 50.5927 38.6656 50.0062 40.3273C49.9514 40.4826 49.8966 40.6414 49.8408 40.8029L49.8406 40.8033ZM50.2011 50.2243C50.25 50.3098 50.2988 50.3953 50.3477 50.4931C50.7387 51.275 50.9831 52.2036 50.9831 53.1322C50.9831 54.0608 50.7387 54.9894 50.3477 55.7714L50.3477 55.7715C50.2499 55.9669 50.1522 56.1624 50.0545 56.309C49.077 57.824 47.3664 58.8504 45.4604 58.9481H45.1671H44.8739C42.9678 58.8993 41.2573 57.824 40.2798 56.309C40.2309 56.2112 40.1821 56.1257 40.1332 56.0402C40.0843 55.9546 40.0354 55.8691 39.9866 55.7714C39.5956 54.9894 39.3512 54.0608 39.3512 53.1322C39.3512 52.1547 39.5956 51.275 39.9866 50.4931C40.0167 50.3727 40.0838 50.2708 40.1538 50.1647C40.1975 50.0985 40.2422 50.0306 40.2798 49.9554C41.2573 48.4404 42.9678 47.414 44.8739 47.3163H45.1671H45.4604C47.3664 47.414 49.077 48.4404 50.0545 49.9554C50.1033 50.0532 50.1522 50.1387 50.2011 50.2243Z" fill="#62629B"/>
</g>
</g>
</g>
</svg>
