<svg width="39" height="60" viewBox="0 0 39 60" fill="none" xmlns="http://www.w3.org/2000/svg">
<path d="M22.7031 1C22.7031 1 33.6682 2.87209 33.1334 17.2248C33.1334 17.2248 29.8349 25.8721 37.6799 32.6473C39.2845 35.6783 34.2923 35.5891 32.9551 35.7674C31.707 35.9457 31.8853 38.8876 32.5985 40.3139C33.7574 42.4535 25.1101 43.0775 25.1101 43.0775" stroke="#259B97" stroke-width="2" stroke-miterlimit="10" stroke-linecap="round" stroke-linejoin="round"/>
<path d="M7.28027 58.5002C7.28027 58.5002 12.2725 51.3684 16.0167 51.5467C19.7609 51.725 23.6834 55.2909 26.5361 52.6165C29.3888 49.9421 27.1601 46.1087 29.7454 45.3955C32.3307 44.6824 30.8152 42.2754 30.8152 42.2754" stroke="#259B97" stroke-width="2" stroke-miterlimit="10" stroke-linecap="round" stroke-linejoin="round"/>
<path d="M18.0674 16.6006C18.0674 16.6006 24.3077 21.8603 29.0325 19.3642L28.2302 17.1355" stroke="#259B97" stroke-width="2" stroke-miterlimit="10" stroke-linecap="round" stroke-linejoin="round"/>
<path d="M25.11 24.9811C24.1294 24.357 20.5635 22.3066 20.5635 22.3066C20.5635 22.3066 24.5751 23.9113 26.7146 23.5547" stroke="#259B97" stroke-width="2" stroke-miterlimit="10" stroke-linecap="round" stroke-linejoin="round"/>
<path d="M7.72625 32.3801C7.72625 32.3801 5.14098 34.0739 3.89292 31.4886C2.64485 28.9034 2.9123 26.5855 1.66423 25.07C0.416171 23.5545 1.93168 18.4731 5.85416 19.008C9.77664 19.5429 11.1138 22.3956 8.43943 27.2987C8.43943 27.2987 8.88516 24.1786 5.49757 24.9809" stroke="#259B97" stroke-width="2" stroke-miterlimit="10" stroke-linecap="round" stroke-linejoin="round"/>
<path d="M3.53662 38.5303C3.53662 38.5303 3.71492 50.6543 15.5715 50.1194" stroke="#259B97" stroke-width="2" stroke-miterlimit="10" stroke-linecap="round" stroke-linejoin="round"/>
<path d="M10.9354 37.8174C10.9354 37.8174 10.2222 42.9879 15.5711 43.8794" stroke="#259B97" stroke-width="2" stroke-miterlimit="10" stroke-linecap="round" stroke-linejoin="round"/>
</svg>
