<svg width="59" height="51" viewBox="0 0 59 51" fill="none" xmlns="http://www.w3.org/2000/svg">
<path d="M20.4 39.9998C20.4 43.0998 18.9 45.8998 16.7 47.6998C15 48.9998 13 49.7998 10.7 49.7998C8.4 49.7998 6.3 48.9998 4.7 47.6998C2.4 45.8998 1 43.0998 1 39.9998C1 34.5998 5.4 30.2998 10.7 30.2998C16 30.2998 20.4 34.5998 20.4 39.9998Z" stroke="#259B97" stroke-width="2" stroke-miterlimit="10" stroke-linecap="round" stroke-linejoin="round"/>
<path d="M10.6004 39.9996C12.0916 39.9996 13.3004 38.7908 13.3004 37.2996C13.3004 35.8084 12.0916 34.5996 10.6004 34.5996C9.10922 34.5996 7.90039 35.8084 7.90039 37.2996C7.90039 38.7908 9.10922 39.9996 10.6004 39.9996Z" stroke="#259B97" stroke-width="2" stroke-miterlimit="10" stroke-linecap="round" stroke-linejoin="round"/>
<path d="M16.6992 47.3994C16.6992 47.4994 16.6992 47.5994 16.6992 47.6994C14.9992 48.9994 12.9992 49.7994 10.6992 49.7994C8.39922 49.7994 6.29922 48.9994 4.69922 47.6994C4.69922 47.5994 4.69922 47.4994 4.69922 47.3994C4.69922 44.0994 7.39922 41.3994 10.6992 41.3994C13.9992 41.3994 16.6992 44.0994 16.6992 47.3994Z" stroke="#259B97" stroke-width="2" stroke-miterlimit="10" stroke-linecap="round" stroke-linejoin="round"/>
<path d="M57.4 39.9998C57.4 43.0998 55.9 45.8998 53.7 47.6998C52 48.9998 50 49.7998 47.7 49.7998C45.4 49.7998 43.3 48.9998 41.7 47.6998C39.4 45.8998 38 43.0998 38 39.9998C38 34.5998 42.4 30.2998 47.7 30.2998C53 30.2998 57.4 34.5998 57.4 39.9998Z" stroke="#259B97" stroke-width="2" stroke-miterlimit="10" stroke-linecap="round" stroke-linejoin="round"/>
<path d="M47.6004 39.9996C49.0916 39.9996 50.3004 38.7908 50.3004 37.2996C50.3004 35.8084 49.0916 34.5996 47.6004 34.5996C46.1092 34.5996 44.9004 35.8084 44.9004 37.2996C44.9004 38.7908 46.1092 39.9996 47.6004 39.9996Z" stroke="#259B97" stroke-width="2" stroke-miterlimit="10" stroke-linecap="round" stroke-linejoin="round"/>
<path d="M53.6992 47.3994C53.6992 47.4994 53.6992 47.5994 53.6992 47.6994C51.9992 48.9994 49.9992 49.7994 47.6992 49.7994C45.3992 49.7994 43.2992 48.9994 41.6992 47.6994C41.6992 47.5994 41.6992 47.4994 41.6992 47.3994C41.6992 44.0994 44.3992 41.3994 47.6992 41.3994C50.9992 41.3994 53.6992 44.0994 53.6992 47.3994Z" stroke="#259B97" stroke-width="2" stroke-miterlimit="10" stroke-linecap="round" stroke-linejoin="round"/>
<path d="M38.2008 10.7C38.2008 13.8 36.7008 16.6 34.5008 18.4C32.8008 19.7 30.8008 20.5 28.5008 20.5C26.2008 20.5 24.1008 19.7 22.5008 18.4C20.2008 16.6 18.8008 13.8 18.8008 10.7C18.8008 5.3 23.2008 1 28.5008 1C33.9008 1 38.2008 5.4 38.2008 10.7Z" stroke="#259B97" stroke-width="2" stroke-miterlimit="10" stroke-linecap="round" stroke-linejoin="round"/>
<path d="M28.5008 10.6998C29.992 10.6998 31.2008 9.49097 31.2008 7.9998C31.2008 6.50864 29.992 5.2998 28.5008 5.2998C27.0096 5.2998 25.8008 6.50864 25.8008 7.9998C25.8008 9.49097 27.0096 10.6998 28.5008 10.6998Z" stroke="#259B97" stroke-width="2" stroke-miterlimit="10" stroke-linecap="round" stroke-linejoin="round"/>
<path d="M34.5 18.2C34.5 18.3 34.5 18.4 34.5 18.5C32.8 19.8 30.8 20.6 28.5 20.6C26.2 20.6 24.1 19.8 22.5 18.5C22.5 18.4 22.5 18.3 22.5 18.2C22.5 14.9 25.2 12.2 28.5 12.2C31.8 12.1 34.5 14.8 34.5 18.2Z" stroke="#259B97" stroke-width="2" stroke-miterlimit="10" stroke-linecap="round" stroke-linejoin="round"/>
<path d="M19.5008 35.8996C19.4008 35.7996 28.5008 31.5996 28.5008 31.5996L38.8008 35.8996" stroke="#259B97" stroke-width="2" stroke-miterlimit="10" stroke-linecap="round" stroke-linejoin="round"/>
<path d="M28.5 20.5V31.7" stroke="#259B97" stroke-width="2" stroke-miterlimit="10" stroke-linecap="round" stroke-linejoin="round"/>
</svg>
