<svg width="48" height="47" viewBox="0 0 48 47" fill="none" xmlns="http://www.w3.org/2000/svg">
<path d="M1 31.2996H9.5C10.4 30.5996 12.3 29.0996 15.2 28.6996C20 27.9996 23.5 30.7996 24.1 31.2996H30.9C32.4 31.2996 33.6 32.4996 33.6 33.9996C33.6 35.4996 32.4 36.6996 30.9 36.6996H24.1" stroke="#259B97" stroke-width="2" stroke-miterlimit="10" stroke-linecap="round" stroke-linejoin="round"/>
<path d="M34 33.2998C34 33.2998 39.5 29.8998 43 28.2998C44.3 27.6998 45.8 28.1998 46.5 29.4998C47.1 30.5998 46.8 31.8998 45.9 32.7998L32.4 44.2998C31.2 45.2998 29.6 45.7998 28 45.5998L10.5 42.8998H1" stroke="#259B97" stroke-width="2" stroke-miterlimit="10" stroke-linecap="round" stroke-linejoin="round"/>
<path d="M28.8988 10.2C31.4393 10.2 33.4988 8.14051 33.4988 5.6C33.4988 3.05949 31.4393 1 28.8988 1C26.3583 1 24.2988 3.05949 24.2988 5.6C24.2988 8.14051 26.3583 10.2 28.8988 10.2Z" stroke="#259B97" stroke-width="2" stroke-miterlimit="10" stroke-linecap="round" stroke-linejoin="round"/>
<path d="M39.1996 22.8996C39.1996 17.1996 34.5996 12.5996 28.8996 12.5996C23.1996 12.5996 18.5996 17.1996 18.5996 22.8996" stroke="#259B97" stroke-width="2" stroke-miterlimit="10" stroke-linecap="round" stroke-linejoin="round"/>
</svg>
