<svg width="48" height="50" viewBox="0 0 48 50" fill="none" xmlns="http://www.w3.org/2000/svg">
<path d="M14.2227 18.6426C23.0441 18.6426 31.792 18.6426 40.6134 18.7161C42.3777 18.7161 43.2599 20.7744 42.0837 22.0976C40.4664 23.8619 38.4816 25.6997 35.9822 27.464C32.8947 29.5958 29.9542 30.9925 27.6019 31.8747C27.3813 31.9482 27.0873 32.0217 26.8668 32.0217C24.1468 31.9482 20.6918 31.5806 16.8692 30.3309C14.7373 29.6693 12.0174 28.6402 11.3558 28.0521C11.3558 27.9786 11.2823 27.8315 11.2823 27.6845C11.2823 27.6845 10.9147 26.2878 10.9882 24.744C11.0617 23.7149 11.4293 21.8771 12.4585 19.8188C12.7525 19.0836 13.4141 18.6426 14.2227 18.6426Z" stroke="#259B97" stroke-width="2" stroke-miterlimit="10" stroke-linecap="round" stroke-linejoin="round"/>
<path d="M17.8249 25.3325C17.8249 25.3325 16.6487 25.3325 16.5017 24.4504C16.3547 23.5682 18.707 22.5391 19.8832 22.5391C21.2064 22.5391 22.6032 23.4212 22.2356 24.3033C21.8681 25.1855 20.5448 25.6266 20.5448 25.6266" stroke="#259B97" stroke-width="2" stroke-miterlimit="10" stroke-linecap="round" stroke-linejoin="round"/>
<path d="M18.854 27.7583C18.854 27.7583 23.9263 28.6405 24.5879 25.4795C25.2495 22.3185 27.5284 21.9509 28.2635 21.8774C28.9986 21.8039 34.1444 21.8774 34.1444 21.8774" stroke="#259B97" stroke-width="2" stroke-miterlimit="10" stroke-linecap="round" stroke-linejoin="round"/>
<path d="M28.043 23.9355C28.043 23.9355 30.8364 24.8177 31.0569 26.3614C31.2775 27.9052 28.484 27.2436 28.484 27.2436" stroke="#259B97" stroke-width="2" stroke-miterlimit="10" stroke-linecap="round" stroke-linejoin="round"/>
<path d="M10.1799 31.9486C10.1799 31.9486 16.6489 35.4772 27.2346 34.9626C27.2346 34.9626 34.5857 34.0805 43.4807 26.3617C44.6568 25.3326 45.6125 24.0829 46.2006 22.6126C47.0827 20.1868 47.2297 16.8787 41.9369 15.335H10.0328C10.0328 15.335 5.9162 14.9674 3.26978 20.0397C0.623357 25.112 2.02008 33.1248 8.34208 43.2694L11.4296 47.6066C11.7971 48.1212 12.4587 48.3417 13.0468 48.0477C13.7084 47.7536 14.6641 47.092 15.6197 45.8423C17.531 43.2694 25.1027 35.2566 25.6173 35.0361" stroke="#259B97" stroke-width="2" stroke-miterlimit="10" stroke-linecap="round" stroke-linejoin="round"/>
<path d="M22.8237 15.3344C22.8237 15.3344 23.1178 7.90976 21.3535 3.7931L27.3815 2.69043L26.7934 15.3344" stroke="#259B97" stroke-width="2" stroke-miterlimit="10" stroke-linecap="round" stroke-linejoin="round"/>
<path d="M27.6758 15.3348L30.3222 1H36.1296L31.7189 15.3348" stroke="#259B97" stroke-width="2" stroke-miterlimit="10" stroke-linecap="round" stroke-linejoin="round"/>
</svg>
