<svg width="46" height="47" viewBox="0 0 46 47" fill="none" xmlns="http://www.w3.org/2000/svg">
<path d="M20.7338 1V8.58331C20.7338 10.658 19.7322 12.5896 17.9437 13.7342L14.7959 15.8089" stroke="#259B97" stroke-width="2" stroke-miterlimit="10" stroke-linecap="round" stroke-linejoin="round"/>
<path d="M19.3741 12.4464C19.3741 12.4464 18.0148 9.4417 14.8671 10.0856C11.7193 10.7294 2.34745 20.5305 1.13126 34.7671C0.272768 45.212 3.8498 45.8559 5.35215 45.999C7.21221 46.0705 11.8623 42.0642 14.4378 39.4172C17.5856 36.0548 20.0895 36.7702 20.7334 32.3347C21.1626 29.4015 21.735 19.6005 20.3041 16.8819" stroke="#259B97" stroke-width="2" stroke-miterlimit="10" stroke-linecap="round" stroke-linejoin="round"/>
<path d="M13.7941 20.5303C13.7941 20.5303 11.0755 21.4603 11.2186 24.7512C11.2902 28.042 11.5763 35.1246 7.78467 37.4854" stroke="#259B97" stroke-width="2" stroke-miterlimit="10" stroke-linecap="round" stroke-linejoin="round"/>
<path d="M7.56994 22.248L8.64305 25.3958C8.64305 25.3958 6.63991 26.0397 6.42529 27.5421" stroke="#259B97" stroke-width="2" stroke-miterlimit="10" stroke-linecap="round" stroke-linejoin="round"/>
<path d="M11.147 26.1822L8.64307 25.4668" stroke="#259B97" stroke-width="2" stroke-miterlimit="10" stroke-linecap="round" stroke-linejoin="round"/>
<path d="M3.99316 31.4043L6.92633 33.4074C6.92633 33.4074 5.2809 35.4106 3.99316 34.9813" stroke="#259B97" stroke-width="2" stroke-miterlimit="10" stroke-linecap="round" stroke-linejoin="round"/>
<path d="M10.3602 33.8368C10.3602 33.8368 7.78476 33.1214 6.92627 33.4791" stroke="#259B97" stroke-width="2" stroke-miterlimit="10" stroke-linecap="round" stroke-linejoin="round"/>
<path d="M11.147 30.1885C11.147 30.1885 13.2932 30.8323 13.7224 32.0485C13.7224 32.0485 13.5794 34.9102 13.7224 35.3394" stroke="#259B97" stroke-width="2" stroke-miterlimit="10" stroke-linecap="round" stroke-linejoin="round"/>
<path d="M16.7271 30.6895C16.7271 30.6895 14.0801 31.6195 13.7939 32.0487" stroke="#259B97" stroke-width="2" stroke-miterlimit="10" stroke-linecap="round" stroke-linejoin="round"/>
<path d="M15.2249 26.8976L14.2949 24.6083L17.5858 23.249" stroke="#259B97" stroke-width="2" stroke-miterlimit="10" stroke-linecap="round" stroke-linejoin="round"/>
<path d="M11.6475 22.4619C11.6475 22.4619 13.9368 23.7496 14.2945 24.6081" stroke="#259B97" stroke-width="2" stroke-miterlimit="10" stroke-linecap="round" stroke-linejoin="round"/>
<path d="M24.668 1V8.58331C24.668 10.658 25.6695 12.5896 27.4581 13.7342L30.6058 15.8089" stroke="#259B97" stroke-width="2" stroke-miterlimit="10" stroke-linecap="round" stroke-linejoin="round"/>
<path d="M26.0986 12.4464C26.0986 12.4464 27.4578 9.4417 30.6056 10.0856C33.7534 10.7294 43.1252 20.459 44.3414 34.7671C45.1999 45.212 41.6229 45.8559 40.1205 45.999C38.2605 46.0705 33.6103 42.0642 31.0349 39.4172C27.8871 36.0548 25.3832 36.7702 24.7393 32.3347C24.31 29.4015 23.7377 19.6005 25.1685 16.8819" stroke="#259B97" stroke-width="2" stroke-miterlimit="10" stroke-linecap="round" stroke-linejoin="round"/>
<path d="M31.6787 20.5303C31.6787 20.5303 34.3973 21.4603 34.2542 24.7512C34.1111 28.042 33.8965 35.1246 37.6881 37.4854" stroke="#259B97" stroke-width="2" stroke-miterlimit="10" stroke-linecap="round" stroke-linejoin="round"/>
<path d="M37.9027 22.248L36.8296 25.3958C36.8296 25.3958 38.8327 26.0397 39.0474 27.5421" stroke="#259B97" stroke-width="2" stroke-miterlimit="10" stroke-linecap="round" stroke-linejoin="round"/>
<path d="M34.2544 26.1822L36.8299 25.4668" stroke="#259B97" stroke-width="2" stroke-miterlimit="10" stroke-linecap="round" stroke-linejoin="round"/>
<path d="M41.48 31.4043L38.5469 33.479C38.5469 33.479 40.1923 35.4821 41.48 35.0529" stroke="#259B97" stroke-width="2" stroke-miterlimit="10" stroke-linecap="round" stroke-linejoin="round"/>
<path d="M35.1128 33.8368C35.1128 33.8368 37.6883 33.1214 38.5467 33.4791" stroke="#259B97" stroke-width="2" stroke-miterlimit="10" stroke-linecap="round" stroke-linejoin="round"/>
<path d="M34.2542 30.1885C34.2542 30.1885 32.108 30.8323 31.6787 32.0485C31.6787 32.0485 31.8218 34.9102 31.6787 35.3394" stroke="#259B97" stroke-width="2" stroke-miterlimit="10" stroke-linecap="round" stroke-linejoin="round"/>
<path d="M28.7456 30.6895C28.7456 30.6895 31.3926 31.6195 31.6788 32.0487" stroke="#259B97" stroke-width="2" stroke-miterlimit="10" stroke-linecap="round" stroke-linejoin="round"/>
<path d="M30.1765 26.8976L31.1781 24.6083L27.8872 23.249" stroke="#259B97" stroke-width="2" stroke-miterlimit="10" stroke-linecap="round" stroke-linejoin="round"/>
<path d="M33.7534 22.4619C33.7534 22.4619 31.4641 23.7496 31.1064 24.6081" stroke="#259B97" stroke-width="2" stroke-miterlimit="10" stroke-linecap="round" stroke-linejoin="round"/>
<path d="M17.8003 19.3145C18.2295 18.6706 19.0165 17.6691 20.3042 16.8821C21.1627 16.3813 21.9496 16.0952 22.5935 15.9521C22.9512 15.8806 23.3805 15.8806 23.8097 15.9521C24.5251 16.0952 25.3836 16.3813 26.3136 16.9537C27.6729 17.7406 28.6029 18.6706 29.1037 19.3145" stroke="#259B97" stroke-width="2" stroke-miterlimit="10" stroke-linecap="round" stroke-linejoin="round"/>
</svg>
