<svg width="42" height="52" viewBox="0 0 42 52" fill="none" xmlns="http://www.w3.org/2000/svg">
<path d="M29.6041 25.6458L31.4806 27.385L40.3594 17.6366L38.4829 15.8975L37.4761 16.9959L30.611 24.5474L29.6041 25.6458Z" stroke="#259B97" stroke-width="2" stroke-miterlimit="10" stroke-linecap="round" stroke-linejoin="round"/>
<path d="M19.9478 11.182L23.1973 7.56641L19.9478 11.182Z" stroke="#259B97" stroke-width="2" stroke-miterlimit="10" stroke-linecap="round" stroke-linejoin="round"/>
<path d="M15.8288 7.61436L19.8563 11.2757L19.9478 11.1842L23.1973 7.56859L19.2155 3.90723L15.8288 7.61436Z" stroke="#259B97" stroke-width="2" stroke-miterlimit="10" stroke-linecap="round" stroke-linejoin="round"/>
<path d="M18.0873 1.00031L20.1523 2.87891L14.9169 8.63407L12.8518 6.75547L18.0873 1.00031Z" stroke="#259B97" stroke-width="2" stroke-miterlimit="10" stroke-linecap="round" stroke-linejoin="round"/>
<path d="M18.1171 13.1951L21.3208 16.1242L25.5771 19.9686L30.6115 24.5453L37.4766 16.9938L24.9364 5.64355L23.1972 7.56577L19.9478 11.1814L19.8562 11.2729L18.1171 13.1951Z" stroke="#259B97" stroke-width="2" stroke-miterlimit="10" stroke-linecap="round" stroke-linejoin="round"/>
<path d="M12.8529 38.5975C13.2648 38.5975 13.6767 38.6432 14.0886 38.7348C14.409 37.0872 14.8667 35.348 15.5532 33.5173C14.5921 33.1054 13.9056 32.1443 13.9056 31.0001C13.9056 29.4898 15.1413 28.2541 16.6516 28.2541C17.1093 28.2541 17.5669 28.3456 17.9331 28.5745C20.3587 24.6385 23.1963 21.8467 25.5762 19.9703L21.3198 16.0801C18.528 18.1854 14.6378 21.7552 11.7088 27.2472C8.36776 33.5173 7.77279 39.467 7.77279 43.3572C7.81856 42.0758 8.41353 40.8858 9.23734 40.062C10.1984 39.1467 11.4799 38.5975 12.8529 38.5975Z" stroke="#259B97" stroke-width="2" stroke-miterlimit="10" stroke-linecap="round" stroke-linejoin="round"/>
<path d="M0.99908 50.0391V51.0002H36.0566V50.0391C36.0566 47.2473 33.8141 44.959 30.9765 44.959H6.03346C3.24167 44.959 0.99908 47.2473 0.99908 50.0391Z" stroke="#259B97" stroke-width="2" stroke-miterlimit="10" stroke-linecap="round" stroke-linejoin="round"/>
<path d="M7.81908 43.4032V43.4947C7.81908 44.0439 7.81908 44.5474 7.86484 44.9593H17.9336V43.632C17.9336 41.2521 16.286 39.2842 14.0892 38.735C13.723 38.6434 13.2654 38.5977 12.8535 38.5977C11.4347 38.5977 10.199 39.1469 9.28362 40.0622C8.41405 40.9318 7.86484 42.076 7.81908 43.4032Z" stroke="#259B97" stroke-width="2" stroke-miterlimit="10" stroke-linecap="round" stroke-linejoin="round"/>
<path d="M7.81751 43.6305V44.9577H7.86328C7.81751 44.5 7.81751 43.9966 7.81751 43.4932C7.81751 43.5389 7.81751 43.5847 7.81751 43.6305Z" stroke="#259B97" stroke-width="2" stroke-miterlimit="10" stroke-linecap="round" stroke-linejoin="round"/>
<path d="M13.9067 30.9999C13.9067 32.1441 14.5932 33.1052 15.5543 33.5171C15.9204 33.6544 16.2865 33.746 16.6984 33.746C18.2088 33.746 19.4902 32.5102 19.4902 30.9999C19.4902 29.9473 18.8953 29.0319 18.0257 28.5743C17.6596 28.3454 17.2019 28.2539 16.7442 28.2539C15.1424 28.2539 13.9067 29.4896 13.9067 30.9999Z" stroke="#259B97" stroke-width="2" stroke-miterlimit="10" stroke-linecap="round" stroke-linejoin="round"/>
</svg>
