<svg width="88" height="37" viewBox="0 0 88 37" fill="none" xmlns="http://www.w3.org/2000/svg">
<path d="M40.8201 5.64587C40.8201 3.92179 42.2177 2.52415 43.9418 2.52415C45.6658 2.52415 47.0635 3.92179 47.0635 5.64587C47.0635 7.36994 45.6658 8.76758 43.9418 8.76758C42.2177 8.76758 40.8201 7.36994 40.8201 5.64587Z" fill="white"/>
<path fill-rule="evenodd" clip-rule="evenodd" d="M36.7629 -0.160077C36.5616 0.376392 36.3604 0.750701 36.2464 0.962848L36.2464 0.962894C36.219 1.01388 36.1966 1.0555 36.1805 1.08775C36.1805 1.10856 36.1701 1.11896 36.1597 1.12937C36.1492 1.13978 36.1388 1.15018 36.1388 1.17099C36.1131 1.19672 36.1033 1.22244 36.0897 1.25799L36.0897 1.25803C36.0813 1.27999 36.0715 1.30569 36.0556 1.33747C36.0173 1.38858 35.9672 1.46323 35.9029 1.55902L35.9027 1.55922L35.9027 1.55928L35.9026 1.55945L35.9025 1.55953C35.7575 1.77568 35.5403 2.09929 35.2233 2.50269C34.5811 2.19857 33.9389 1.97677 33.3413 1.77039L33.3412 1.77035L33.3408 1.77024L33.3408 1.77021L33.3407 1.7702L33.3404 1.7701C33.2028 1.72258 33.0676 1.67588 32.9353 1.62918C31.5202 1.12974 30.3548 0.0892327 29.6889 -1.24262C29.4392 -1.8253 29.1895 -2.36636 28.9397 -2.90743L28.9233 -2.94607L28.9393 -2.94793C29.5219 -3.03116 30.1046 -3.07279 30.7289 -3.1144C32.2272 -3.19764 33.7256 -2.73982 34.8493 -1.74094C35.4317 -1.20013 36.0557 -0.659325 36.7629 -0.160077ZM23.8624 -2.03248C24.1666 -1.25531 24.5256 -0.478143 24.8949 0.321315L24.895 0.321647L24.8951 0.321704L24.8951 0.321761C24.9805 0.506564 25.0664 0.692558 25.1523 0.880016C26.1512 2.91941 27.7744 4.58421 29.7305 5.62472C29.7598 5.6418 29.7892 5.65859 29.8188 5.67512C29.7888 5.69157 29.7589 5.70829 29.7291 5.72529L29.6877 5.74922C27.7316 6.78972 26.1084 8.45453 25.1095 10.4939C25.0238 10.6809 24.9381 10.8664 24.8529 11.0507L24.8523 11.052C24.5021 11.8102 24.1612 12.5483 23.8674 13.2853L23.8616 13.284C14.0392 10.87 8.04591 5.62584 8.04591 5.62584C8.04591 5.62584 14.0392 0.423312 23.8616 -2.03228L23.8624 -2.03248ZM22.1921 18.1307C12.1252 15.5045 5.74881 10.304 4.85042 9.57131L4.84975 9.57077C4.80599 9.53508 4.77531 9.51005 4.7579 9.49652L0.429406 5.70908L4.7579 1.92164C5.09069 1.63045 11.6183 -3.98244 22.263 -6.73097L22.2389 -6.81973C20.7822 -11.8974 20.4492 -16.4756 20.4492 -19.8885C20.4492 -23.2928 20.8274 -25.597 20.9276 -26.2076L20.9409 -26.2891C20.9442 -26.31 20.9468 -26.3268 20.9487 -26.3396L22.0724 -32L27.483 -30.0854C27.8992 -29.9606 36.1395 -27.089 43.8806 -19.1817C51.6219 -27.0892 59.8624 -29.9609 60.2786 -30.0858L65.7308 -31.9171L66.8962 -26.2567C66.9 -26.2302 66.9072 -26.1861 66.9172 -26.1251L66.9173 -26.1247C67.0175 -25.514 67.3956 -23.2098 67.3956 -19.8056C67.3956 -16.403 67.0647 -11.8422 65.6191 -6.78284C75.6575 -4.1526 82.0145 1.0321 82.9114 1.76361L82.9116 1.76375C82.9556 1.79966 82.9864 1.82482 83.0039 1.8384L87.374 5.70908L83.0455 9.49652C82.7126 9.78786 76.1785 15.4063 65.5242 18.1533C66.9807 23.2306 67.3552 27.8085 67.3552 31.2212C67.3552 34.6253 66.9771 36.9295 66.8769 37.5402L66.8769 37.5402L66.8768 37.5404L66.8768 37.5405C66.8668 37.6016 66.8595 37.6458 66.8557 37.6723L65.732 43.291L60.2798 41.4597C59.8636 41.3349 51.6227 38.4631 43.8814 30.5552L43.8614 30.5344C36.4785 38.0667 28.6481 40.9837 27.5882 41.3786C27.5375 41.3974 27.5023 41.4105 27.4834 41.4181L22.0312 43.291L20.9074 37.6307L20.8977 37.5743L20.8976 37.5742L20.8976 37.5741C20.8193 37.1255 20.408 34.7695 20.408 31.1795C20.408 27.8127 20.7816 23.2419 22.1921 18.1307ZM28.953 14.2016C29.184 13.7007 29.415 13.1973 29.6461 12.6582C30.312 11.3263 31.4774 10.2858 32.8925 9.78638C33.0246 9.73974 33.1596 9.69311 33.297 9.64565L33.2979 9.64537C33.896 9.43882 34.5388 9.21684 35.1816 8.91235C35.2105 8.89976 35.2395 8.88703 35.2684 8.87413C35.6004 9.28912 35.8907 9.66269 36.0568 9.99484C36.0727 10.0266 36.0825 10.0523 36.0909 10.0743L36.0909 10.0743C36.1045 10.1099 36.1143 10.1356 36.14 10.1613C36.1817 10.2029 36.2233 10.2862 36.2649 10.3694C36.4179 10.6373 36.571 10.9754 36.7564 11.4163C36.2149 11.7993 35.7222 12.2307 35.2596 12.6359L35.2595 12.6359C35.1202 12.7579 34.9837 12.8775 34.8493 12.9926C33.7256 13.9915 32.2272 14.4909 30.7289 14.3661L30.6197 14.3583C30.0733 14.3195 29.4954 14.2784 28.953 14.2016ZM36.8892 17.8619L36.8887 17.8622C34.9742 19.0692 32.6851 19.6519 30.396 19.4854C29.3138 19.4021 28.2317 19.2773 27.2328 19.1524L27.1418 19.1393C25.7756 23.8304 25.444 28.023 25.444 31.1795C25.444 34.5508 25.8602 36.6318 25.8602 36.6318C25.8602 36.6318 33.4767 34.0929 40.5105 26.7262L40.5152 26.7214C39.9047 25.946 39.3334 25.1691 38.7621 24.3122C37.5551 22.5225 36.8892 20.4415 36.8892 18.2773L36.8892 17.8619ZM44.4758 1.75381C44.4717 1.75426 44.4676 1.75471 44.4636 1.75516L44.425 1.75516C44.437 1.75004 44.4499 1.74885 44.464 1.75236C44.4679 1.75283 44.4718 1.75332 44.4758 1.75381ZM43.4688 1.75516L43.3994 1.75516C43.4074 1.75419 43.4154 1.75326 43.4235 1.75236C43.4375 1.74885 43.4527 1.75004 43.4688 1.75516ZM45.3823 14.7828L45.3792 14.7823C44.9214 14.699 44.4636 14.6574 44.089 14.6574L43.8393 14.6574L43.7144 14.6574C43.4241 14.6574 42.9683 14.6988 42.4297 14.7814L42.4247 14.8228C42.3606 15.4957 42.2472 16.144 42.1414 16.7485C42.1098 16.9292 42.0788 17.106 42.0501 17.2784C41.9669 17.6113 41.9669 17.9859 41.9669 18.3188L41.9669 18.3189C41.9669 19.4426 42.2998 20.5664 42.9657 21.482L43.8721 22.7283L44.839 21.3988C45.5049 20.4415 45.8379 19.3594 45.8379 18.2356C45.8379 17.9027 45.7963 17.5281 45.7547 17.1951C45.7199 16.9866 45.6787 16.7717 45.6364 16.5511C45.5294 15.9925 45.4155 15.3981 45.3823 14.7828ZM50.9997 11.3707C51.1581 10.9318 51.3457 10.5948 51.4983 10.3278L51.4983 10.3278C51.5399 10.2445 51.5815 10.1613 51.6231 10.1197C51.6439 10.0989 51.6543 10.0781 51.6647 10.0573C51.6751 10.0365 51.6855 10.0157 51.7064 9.99485C51.8728 9.7035 52.1642 9.2873 52.4971 8.91272L52.5297 8.87222L52.5593 8.88539L52.6216 8.91272C53.2644 9.21718 53.9071 9.43915 54.5052 9.64568L54.5052 9.64569L54.5052 9.6457L54.5053 9.64571L54.5053 9.64572L54.5061 9.64601L54.5096 9.64721L54.5102 9.64741L54.5119 9.64799C54.6473 9.69476 54.7804 9.74075 54.9107 9.78674C56.3258 10.2862 57.4912 11.3267 58.1571 12.6585C58.3813 13.1816 58.6054 13.6711 58.8296 14.1572L58.8226 14.158C58.2399 14.2412 57.6572 14.2828 57.0329 14.3245C55.5346 14.4077 54.0362 13.9499 52.9125 12.951C52.7782 12.8359 52.6416 12.7163 52.5024 12.5944L52.5023 12.5943L52.5022 12.5942C52.0379 12.1876 51.5434 11.7546 50.9997 11.3707ZM60.6397 19.1425L60.5706 19.1524C59.5301 19.3189 58.4896 19.4021 57.4075 19.4854C55.1184 19.6519 52.8293 19.0692 50.9147 17.8622L50.874 17.8362L50.874 18.2356C50.874 20.3999 50.208 22.4809 49.001 24.2706C48.5849 24.8948 48.1475 25.4766 47.7192 26.0463L47.719 26.0465L47.7188 26.0468L47.7187 26.0469L47.7186 26.0471L47.7183 26.0474C47.5481 26.2738 47.3793 26.4984 47.2138 26.7229L47.2942 26.8094C54.3697 34.1762 61.9446 36.715 61.9446 36.715C61.9446 36.715 62.3608 34.634 62.3608 31.2628C62.3608 28.1413 61.9862 23.896 60.6543 19.1929L60.6397 19.1425ZM63.856 13.2528C63.5615 12.5128 63.2192 11.7719 62.8676 11.0108C62.7823 10.826 62.6964 10.6401 62.6105 10.4527C61.6116 8.41327 59.9884 6.74847 58.0323 5.70796L57.9965 5.68726L58.0326 5.66634C59.9888 4.62584 61.612 2.96103 62.6109 0.921638C63.0687 -0.0356257 63.5265 -1.03451 63.9011 -1.99178L63.9315 -2.06619C73.7353 0.351211 79.7159 5.58422 79.7159 5.58422C79.7159 5.58422 73.7226 10.7867 63.9002 13.2423L63.856 13.2528ZM60.5579 -7.81335L60.529 -7.81749C59.5301 -7.94235 58.448 -8.06721 57.3659 -8.15045C55.1096 -8.31454 52.8533 -7.7508 50.9557 -6.57878L50.9557 -6.94536C50.9557 -9.10961 50.2897 -11.1906 49.0828 -12.9803C48.7149 -13.44 48.3725 -13.8871 48.0345 -14.3285L48.0344 -14.3286L48.034 -14.3291C47.7785 -14.6627 47.5255 -14.993 47.2659 -15.3231L47.2931 -15.3522C54.3685 -22.719 61.9434 -25.2578 61.9434 -25.2578C61.9434 -25.2578 62.3596 -23.1768 62.3596 -19.8056C62.3596 -16.707 61.9905 -12.501 60.6823 -7.83909L60.5715 -7.86023L60.5579 -7.81335ZM42.9646 -10.0248L43.9371 -11.3621L44.8791 -10.0669C45.545 -9.10961 45.878 -8.02749 45.878 -6.90374C45.878 -6.57078 45.8364 -6.1962 45.7948 -5.86324C45.76 -5.65488 45.7189 -5.44009 45.6766 -5.21975L45.6765 -5.21924C45.567 -4.64748 45.4502 -4.0384 45.4202 -3.40764C45.3786 -3.07468 45.3786 -2.78334 45.3786 -2.45038C45.3786 -1.70121 45.4618 -0.910431 45.7115 -0.119648C45.878 0.379795 46.0445 0.837615 46.211 1.25382C46.2942 1.29542 46.367 1.33702 46.4398 1.37863L46.4399 1.37867C46.5127 1.4203 46.5855 1.46192 46.6688 1.50354C47.9106 2.30469 48.7668 3.68416 48.9036 5.23376L48.9011 5.23679C48.7534 3.70321 47.9012 2.3403 46.6699 1.54594C46.6436 1.53278 46.6184 1.51962 46.5938 1.50647C46.5987 1.50617 46.6037 1.50594 46.6088 1.50576C46.615 1.50555 46.6214 1.50544 46.6278 1.50544C46.5446 1.46384 46.4718 1.42223 46.399 1.38062L46.3989 1.38058C46.3261 1.33896 46.2533 1.29734 46.17 1.25572C46.0035 0.839515 45.8371 0.38169 45.6706 -0.117749C45.4209 -0.908536 45.3376 -1.69932 45.3376 -2.44848C45.3376 -2.78145 45.3376 -3.07278 45.3792 -3.40574C44.7966 -3.32251 44.3387 -3.28088 44.1306 -3.28088L44.0058 -3.28088L43.756 -3.28088C43.3815 -3.28088 42.882 -3.32251 42.4242 -3.40574C42.4658 -3.1144 42.4658 -2.78145 42.4658 -2.44848C42.4658 -2.38624 42.4652 -2.32371 42.464 -2.26092C42.4648 -2.31023 42.4651 -2.35938 42.4651 -2.40835L42.4651 -2.40844C42.4651 -2.74137 42.4651 -3.0743 42.4235 -3.36561C42.3594 -4.03851 42.246 -4.68675 42.1402 -5.29131L42.14 -5.29249C42.1084 -5.47278 42.0776 -5.64919 42.0489 -5.8212C41.9657 -6.15416 41.9657 -6.52875 41.9657 -6.86171C41.9657 -7.98546 42.2986 -9.1092 42.9646 -10.0248ZM54.3808 1.68695C53.8035 1.88632 53.1845 2.10008 52.5641 2.38854C52.5187 2.33054 52.4756 2.27567 52.4346 2.22356L52.4331 2.22177L52.4331 2.22169C52.238 1.97382 52.0924 1.78876 51.9962 1.6284L51.7048 1.17058C51.7048 1.14977 51.6944 1.13937 51.684 1.12896C51.6736 1.11855 51.6632 1.10815 51.6632 1.08734L51.6632 1.04572C51.58 0.920856 51.3719 0.504657 51.0805 -0.202889L51.0604 -0.248871C51.6885 -0.732552 52.2512 -1.21525 52.778 -1.66724L52.7781 -1.66732L52.9125 -1.78256C54.0779 -2.78144 55.5346 -3.28088 57.0329 -3.15603L57.1423 -3.14823C57.6932 -3.10905 58.2762 -3.0676 58.8226 -2.98954L58.823 -2.98949L58.8212 -2.98439L58.7818 -2.99066C58.6334 -2.57526 58.4428 -2.181 58.255 -1.79282L58.255 -1.79277C58.1794 -1.63648 58.1043 -1.48116 58.0326 -1.32585C57.3667 0.0476147 56.2013 1.0465 54.7863 1.54594C54.6541 1.59257 54.5191 1.63921 54.3817 1.68666L54.3808 1.68695ZM27.2052 -7.7303L27.2328 -7.73425C28.2733 -7.90073 29.3138 -7.98397 30.396 -8.06721C32.6849 -8.23367 34.9738 -7.65112 36.8882 -6.44436L36.888 -6.48713L36.888 -6.90333C36.888 -9.06758 37.5539 -11.1486 38.7609 -12.9383C39.3436 -13.8123 39.9263 -14.6031 40.5506 -15.3939L40.551 -15.3943C33.4758 -22.7605 25.9015 -25.2991 25.9015 -25.2991C25.9015 -25.2991 25.4853 -23.2181 25.4853 -19.8469C25.4853 -16.7253 25.8598 -12.4801 27.1917 -7.77699L27.2052 -7.7303ZM36.8894 -6.36429C36.8935 -6.1226 36.9158 -5.87235 36.947 -5.62272C36.9169 -5.86654 36.895 -6.11506 36.8894 -6.36429ZM46.3577 1.37778C46.2848 1.33616 46.212 1.29454 46.1288 1.25292C45.4628 0.919956 44.6721 0.711856 43.8813 0.711856C43.0905 0.711856 42.2997 0.919956 41.6338 1.25292C41.4673 1.33616 41.3008 1.4194 41.176 1.50264C39.8857 2.33504 39.0117 3.79175 38.9285 5.41494L38.9285 5.66466L38.9285 5.91438C38.9701 7.53757 39.8857 8.99428 41.176 9.82669C41.2592 9.86831 41.3321 9.90993 41.4049 9.95155C41.4777 9.99317 41.5506 10.0348 41.6338 10.0764C42.2997 10.4094 43.0905 10.6175 43.8813 10.6175C44.7137 10.6175 45.4628 10.4094 46.1288 10.0764C46.2313 10.0508 46.318 9.99359 46.4084 9.93399C46.4648 9.8968 46.5226 9.85867 46.5866 9.82669C47.8768 8.99428 48.7508 7.53757 48.8341 5.91438L48.8341 5.66466L48.8341 5.41494C48.7508 3.79175 47.8768 2.33504 46.5866 1.50264C46.5033 1.46102 46.4305 1.4194 46.3577 1.37778Z" fill="white"/>
</svg>
