<svg width="52" height="47" viewBox="0 0 52 47" fill="none" xmlns="http://www.w3.org/2000/svg">
<path d="M29.3298 10.0254L10.041 29.0811L17.0071 36.1324L36.2959 17.0768L29.3298 10.0254Z" stroke="#259B97" stroke-width="2" stroke-miterlimit="10" stroke-linecap="round" stroke-linejoin="round"/>
<path d="M6.01278 29.6137L16.4395 40.168L18.7141 37.9208L8.28741 27.3666L6.01278 29.6137Z" stroke="#259B97" stroke-width="2" stroke-miterlimit="10" stroke-linecap="round" stroke-linejoin="round"/>
<path d="M5.28357 37.2813L8.74414 40.7842L12.9749 36.6045L9.51437 33.1016L5.28357 37.2813Z" stroke="#259B97" stroke-width="2" stroke-miterlimit="10" stroke-linecap="round" stroke-linejoin="round"/>
<path d="M1.00085 38.3579L7.65234 45.0908L10.3364 42.4392L3.68491 35.7063L1.00085 38.3579Z" stroke="#259B97" stroke-width="2" stroke-miterlimit="10" stroke-linecap="round" stroke-linejoin="round"/>
<path d="M34.5011 8.67379L37.8903 8.5459L37.7624 11.9351L34.4371 15.1965L31.1758 11.9351L34.5011 8.67379Z" stroke="#259B97" stroke-width="2" stroke-miterlimit="10" stroke-linecap="round" stroke-linejoin="round"/>
<path d="M37.8926 8.54585L45.5663 1" stroke="#259B97" stroke-width="2" stroke-miterlimit="10" stroke-linecap="round" stroke-linejoin="round"/>
<path d="M19.73 33.166L15.957 29.3291" stroke="#259B97" stroke-width="2" stroke-miterlimit="10" stroke-linecap="round" stroke-linejoin="round"/>
<path d="M23.2469 29.7132L20.8809 27.2832" stroke="#259B97" stroke-width="2" stroke-miterlimit="10" stroke-linecap="round" stroke-linejoin="round"/>
<path d="M26.7007 26.2587L22.9277 22.4219" stroke="#259B97" stroke-width="2" stroke-miterlimit="10" stroke-linecap="round" stroke-linejoin="round"/>
<path d="M30.2176 22.806L27.8516 20.376" stroke="#259B97" stroke-width="2" stroke-miterlimit="10" stroke-linecap="round" stroke-linejoin="round"/>
<path d="M33.7358 19.3535L29.9629 15.5166" stroke="#259B97" stroke-width="2" stroke-miterlimit="10" stroke-linecap="round" stroke-linejoin="round"/>
<path d="M51.0008 7.77848C51.0008 8.99349 50.0416 9.95271 48.8266 9.95271C47.6116 9.95271 46.6523 8.99349 46.6523 7.77848C46.6523 6.56347 48.8266 4.70898 48.8266 4.70898C48.8266 4.70898 51.0008 6.56347 51.0008 7.77848Z" stroke="#259B97" stroke-width="2" stroke-miterlimit="10" stroke-linecap="round" stroke-linejoin="round"/>
</svg>
