<svg width="51" height="51" viewBox="0 0 51 51" fill="none" xmlns="http://www.w3.org/2000/svg">
<path d="M25.6617 43.3898C35.5427 43.3898 43.5529 35.3796 43.5529 25.4986C43.5529 15.6176 35.5427 7.60742 25.6617 7.60742C15.7807 7.60742 7.77051 15.6176 7.77051 25.4986C7.77051 35.3796 15.7807 43.3898 25.6617 43.3898Z" stroke="#259B97" stroke-width="2" stroke-miterlimit="10" stroke-linecap="round" stroke-linejoin="round"/>
<path d="M19.3743 20.0191C20.7986 20.0191 21.9532 18.8645 21.9532 17.4402C21.9532 16.0159 20.7986 14.8613 19.3743 14.8613C17.95 14.8613 16.7954 16.0159 16.7954 17.4402C16.7954 18.8645 17.95 20.0191 19.3743 20.0191Z" stroke="#259B97" stroke-width="2" stroke-miterlimit="10" stroke-linecap="round" stroke-linejoin="round"/>
<path d="M34.042 27.4337C36.8016 27.4337 39.0387 25.1966 39.0387 22.4371C39.0387 19.6775 36.8016 17.4404 34.042 17.4404C31.2825 17.4404 29.0454 19.6775 29.0454 22.4371C29.0454 25.1966 31.2825 27.4337 34.042 27.4337Z" stroke="#259B97" stroke-width="2" stroke-miterlimit="10" stroke-linecap="round" stroke-linejoin="round"/>
<path d="M21.9533 37.5893C24.0898 37.5893 25.8217 35.8573 25.8217 33.7209C25.8217 31.5845 24.0898 29.8525 21.9533 29.8525C19.8169 29.8525 18.085 31.5845 18.085 33.7209C18.085 35.8573 19.8169 37.5893 21.9533 37.5893Z" stroke="#259B97" stroke-width="2" stroke-miterlimit="10" stroke-linecap="round" stroke-linejoin="round"/>
<path d="M43.8748 24.6936C44.6807 24.8548 45.4866 24.6936 46.2925 24.6936L47.4208 24.5324C47.7432 24.3712 48.2267 24.6936 48.5491 23.8877C49.5162 23.8877 50.1609 24.5324 50.1609 25.4995C50.1609 26.4666 49.5162 27.1113 48.5491 27.1113C48.2267 26.3054 47.7432 26.6278 47.4208 26.4666L46.2925 26.3054C45.4866 26.3054 44.6807 26.3054 43.8748 26.3054C43.3913 26.3054 42.9077 25.9831 42.9077 25.4995C42.9077 25.016 43.2301 24.5324 43.7136 24.5324C43.7136 24.5324 43.8748 24.5324 43.8748 24.6936Z" fill="#259B97" stroke="#259B97" stroke-miterlimit="10" stroke-linecap="round" stroke-linejoin="round"/>
<path d="M39.2001 37.75C39.6836 38.3947 40.3284 38.8782 40.8119 39.523L41.779 40.3289C42.1014 40.4901 42.2625 40.9736 43.0684 40.8124C43.7132 41.4571 43.7132 42.4242 43.0684 43.069C42.4237 43.7137 41.4566 43.7137 40.8119 43.069C41.1343 42.2631 40.6507 42.1019 40.3284 41.7795L39.6836 40.8124C39.2001 40.1677 38.5554 39.6842 37.9106 39.2006C37.5883 38.8782 37.4271 38.3947 37.7494 37.9112C38.0718 37.4276 38.7165 37.2664 39.2001 37.75Z" fill="#259B97" stroke="#259B97" stroke-miterlimit="10" stroke-linecap="round" stroke-linejoin="round"/>
<path d="M26.6277 43.7142C26.4665 44.5201 26.6277 45.326 26.6277 46.1319L26.7889 47.2602C26.9501 47.5825 26.6277 48.0661 27.4336 48.3884C27.4336 49.3555 26.7889 50.0002 25.8218 50.0002C24.8547 50.0002 24.21 49.3555 24.21 48.3884C25.0159 48.0661 24.6935 47.5825 24.8547 47.2602L25.0159 46.1319C25.0159 45.326 25.0159 44.5201 25.0159 43.7142C25.0159 43.2306 25.3382 42.7471 25.8218 42.7471C26.3053 42.7471 26.7889 43.0694 26.7889 43.553C26.6277 43.553 26.6277 43.7142 26.6277 43.7142Z" fill="#259B97" stroke="#259B97" stroke-miterlimit="10" stroke-linecap="round" stroke-linejoin="round"/>
<path d="M13.4109 39.0385C12.7662 39.522 12.2827 40.1667 11.6379 40.6503L10.832 41.6174C10.6709 41.9397 10.1873 42.1009 10.3485 42.9068C9.70376 43.5515 8.73667 43.5515 8.09194 42.9068C7.44722 42.2621 7.44722 41.295 8.09194 40.6503C8.89785 40.9726 9.05903 40.4891 9.3814 40.1667L10.5097 39.522C11.1544 39.0385 11.6379 38.3937 12.1215 37.749C12.4438 37.4266 12.9274 37.2655 13.4109 37.5878C13.8945 37.9102 13.8945 38.5549 13.4109 39.0385C13.4109 39.0385 13.5721 39.0385 13.4109 39.0385Z" fill="#259B97"/>
<path d="M13.4109 39.0385C12.7662 39.522 12.2827 40.1667 11.6379 40.6503L10.832 41.6174C10.6709 41.9397 10.1873 42.1009 10.3485 42.9068C9.70376 43.5515 8.73667 43.5515 8.09194 42.9068C7.44722 42.2621 7.44722 41.295 8.09194 40.6503C8.89785 40.9726 9.05903 40.4891 9.3814 40.1667L10.5097 39.522C11.1544 39.0385 11.6379 38.3937 12.1215 37.749C12.4438 37.4266 12.9274 37.2655 13.4109 37.5878C13.8945 37.9102 13.8945 38.5549 13.4109 39.0385ZM13.4109 39.0385C13.5721 39.0385 13.4109 39.0385 13.4109 39.0385Z" stroke="#259B97" stroke-miterlimit="10" stroke-linecap="round" stroke-linejoin="round"/>
<path d="M7.44727 26.4666C6.64136 26.3054 5.83545 26.4666 5.02954 26.4666L3.90127 26.6278C3.41773 26.6278 2.93418 26.3054 2.61182 27.1113C1.64473 27.1113 1 26.4666 1 25.4995C1 24.5324 1.64473 23.8877 2.61182 23.8877C2.93418 24.6936 3.41773 24.3712 3.74009 24.5324L4.86836 24.6936C5.67427 24.6936 6.48018 24.6936 7.28609 24.6936C7.76963 24.6936 8.25318 25.016 8.25318 25.4995C8.25318 25.9831 7.93081 26.4666 7.44727 26.4666C7.44727 26.4666 7.60845 26.4666 7.44727 26.4666Z" fill="#259B97"/>
<path d="M7.44727 26.4666C6.64136 26.3054 5.83545 26.4666 5.02954 26.4666L3.90127 26.6278C3.41773 26.6278 2.93418 26.3054 2.61182 27.1113C1.64473 27.1113 1 26.4666 1 25.4995C1 24.5324 1.64473 23.8877 2.61182 23.8877C2.93418 24.6936 3.41773 24.3712 3.74009 24.5324L4.86836 24.6936C5.67427 24.6936 6.48018 24.6936 7.28609 24.6936C7.76963 24.6936 8.25318 25.016 8.25318 25.4995C8.25318 25.9831 7.93081 26.4666 7.44727 26.4666ZM7.44727 26.4666C7.60845 26.4666 7.44727 26.4666 7.44727 26.4666Z" stroke="#259B97" stroke-miterlimit="10" stroke-linecap="round" stroke-linejoin="round"/>
<path d="M12.1224 13.2488C11.6389 12.6041 10.9941 12.1205 10.5106 11.4758L9.54351 10.8311C9.22114 10.5087 9.05996 10.0251 8.25405 10.3475C7.60933 9.70278 7.60933 8.73569 8.25405 8.09097C8.89878 7.44624 9.86587 7.44624 10.5106 8.09097C10.1882 8.89688 10.6718 9.05806 10.9941 9.38042L11.8001 10.3475C12.2836 10.9922 12.9283 11.4758 13.5731 11.9593C13.7342 12.2817 13.8954 12.9264 13.5731 13.2488C13.2507 13.5711 12.606 13.7323 12.1224 13.2488C12.1224 13.2488 12.2836 13.41 12.1224 13.2488Z" fill="#259B97"/>
<path d="M12.1224 13.2488C11.6389 12.6041 10.9941 12.1205 10.5106 11.4758L9.54351 10.8311C9.22114 10.5087 9.05996 10.0251 8.25405 10.3475C7.60933 9.70278 7.60933 8.73569 8.25405 8.09097C8.89878 7.44624 9.86587 7.44624 10.5106 8.09097C10.1882 8.89688 10.6718 9.05806 10.9941 9.38042L11.8001 10.3475C12.2836 10.9922 12.9283 11.4758 13.5731 11.9593C13.7342 12.2817 13.8954 12.9264 13.5731 13.2488C13.2507 13.5711 12.606 13.7323 12.1224 13.2488ZM12.1224 13.2488C12.2836 13.41 12.1224 13.2488 12.1224 13.2488Z" stroke="#259B97" stroke-miterlimit="10" stroke-linecap="round" stroke-linejoin="round"/>
<path d="M24.8542 7.28609C25.0154 6.48018 24.8542 5.67427 24.8542 4.86836L24.6931 3.74009C24.5319 3.41773 24.8542 2.93418 24.0483 2.61182C24.0483 1.64473 24.6931 1 25.6602 1C26.6272 1 27.272 1.64473 27.272 2.61182C26.4661 2.93418 26.7884 3.41773 26.6272 3.74009L26.4661 4.86836C26.4661 5.67427 26.4661 6.48018 26.4661 7.28609C26.4661 7.76963 26.1437 8.25318 25.6602 8.25318C25.1766 8.25318 24.6931 7.93081 24.6931 7.44727C24.6931 7.44727 24.6931 7.28609 24.8542 7.28609Z" fill="#259B97" stroke="#259B97" stroke-miterlimit="10" stroke-linecap="round" stroke-linejoin="round"/>
<path d="M37.9101 11.9593C38.5549 11.4758 39.0384 10.8311 39.6831 10.3475L40.489 9.38042C40.6502 9.05806 41.1338 8.89688 40.9726 8.09097C41.6173 7.44624 42.5844 7.44624 43.2291 8.09097C43.8739 8.73569 43.8739 9.70278 43.2291 10.3475C42.4232 10.0251 42.262 10.5087 41.9397 10.8311L40.9726 11.637C40.3279 12.1205 39.8443 12.7652 39.3608 13.41C39.0384 13.7323 38.5549 13.8935 38.0713 13.5711C37.5878 13.0876 37.4266 12.4429 37.9101 11.9593C37.9101 11.9593 37.9101 12.1205 37.9101 11.9593Z" fill="#259B97"/>
<path d="M37.9101 11.9593C38.5549 11.4758 39.0384 10.8311 39.6831 10.3475L40.489 9.38042C40.6502 9.05806 41.1338 8.89688 40.9726 8.09097C41.6173 7.44624 42.5844 7.44624 43.2291 8.09097C43.8739 8.73569 43.8739 9.70278 43.2291 10.3475C42.4232 10.0251 42.262 10.5087 41.9397 10.8311L40.9726 11.637C40.3279 12.1205 39.8443 12.7652 39.3608 13.41C39.0384 13.7323 38.5549 13.8935 38.0713 13.5711C37.5878 13.0876 37.4266 12.4429 37.9101 11.9593ZM37.9101 11.9593C37.9101 12.1205 37.9101 11.9593 37.9101 11.9593Z" stroke="#259B97" stroke-miterlimit="10" stroke-linecap="round" stroke-linejoin="round"/>
</svg>
